<svg width="116" height="116" viewBox="0 0 116 116" fill="none" xmlns="http://www.w3.org/2000/svg">
<path d="M58.0363 59.0875L58.0628 63.655M67.3888 49.5658H102.861M48.6379 49.5658H13.166M79.75 52.5746L96.5144 53.5823M36.2766 52.5746L19.5122 53.5823M88.0682 57.0696L79.7863 55.8274M27.9584 57.0696L36.2404 55.8274M79.7041 58.4712L81.8549 59.2856M36.3249 58.4712L34.1717 59.2856M76.1154 59.0416L78.9356 61.0474M39.9137 59.0416L37.091 61.0474M71.9128 59.0875L75.5209 62.8575M44.1139 59.0875L40.5058 62.8575M67.6812 59.0512L71.7412 63.8M48.3479 59.0512L44.2879 63.8M64.1214 59.0802L67.4492 64.9817M51.9052 59.0802L48.5774 64.9817M60.9097 59.0875L63.4714 65.7816M55.1169 59.0875L52.5553 65.7816M58.0145 68.2128C59.3123 68.2128 61.1296 71.0548 64.322 70.2911L78.503 66.4631C81.9589 65.5351 80.7143 63.5873 83.8632 62.6351C83.8632 62.6351 98.6049 58.3407 98.7885 58.2924C101.316 57.5046 101.009 55.3151 102.385 55.1145C104.642 54.5901 103.922 52.5359 105.369 52.3232C107.051 51.881 107.89 47.1274 107.404 46.3226C107.256 46.0879 107.05 45.8958 106.806 45.7653C106.561 45.6347 106.287 45.5703 106.01 45.5783H66.0379C62.2195 45.5783 63.3771 48.6596 60.9121 48.6596H55.0879C52.6229 48.6596 53.7805 45.5783 49.9598 45.5783H9.99052C9.71341 45.5703 9.43901 45.6347 9.19445 45.7653C8.94989 45.8958 8.74364 46.0879 8.5961 46.3226C8.11035 47.1274 8.94894 51.881 10.6309 52.3232C12.0809 52.5359 11.3584 54.5901 13.6155 55.1145C14.9906 55.3151 14.6813 57.507 17.2115 58.2924C17.3952 58.3407 32.1369 62.6351 32.1369 62.6351C35.2858 63.5849 34.0436 65.5351 37.497 66.4631L51.6756 70.2911C54.8704 71.0548 56.6878 68.2128 57.9855 68.2128H58H58.0145Z" stroke="#CFCFCF" stroke-width="2" stroke-linecap="round" stroke-linejoin="round"/>
</svg>
