<svg width="106" height="106" viewBox="0 0 106 106" fill="none" xmlns="http://www.w3.org/2000/svg">
<g clip-path="url(#clip0_21_124)">
<path d="M87.662 34.6619C83.2807 34.6619 79.2615 36.1989 76.108 38.7606C72.8442 36.1036 68.7626 34.6557 64.554 34.6619C60.1727 34.6619 56.1535 36.1989 53 38.7606C49.7362 36.1036 45.6546 34.6557 41.446 34.6619C37.0647 34.6619 33.0455 36.1989 29.892 38.7606C27.2014 36.5771 23.9471 35.2006 20.5063 34.7907C17.0655 34.3807 13.579 34.954 10.4506 36.4442C7.32229 37.9343 4.68016 40.2804 2.83036 43.2104C0.980553 46.1405 -0.0012207 49.5347 -0.0012207 52.9999C-0.0012207 56.465 0.980553 59.8592 2.83036 62.7893C4.68016 65.7194 7.32229 68.0654 10.4506 69.5556C13.579 71.0457 17.0655 71.619 20.5063 71.2091C23.9471 70.7991 27.2014 69.4227 29.892 67.2392C33.0455 69.8009 37.0647 71.3379 41.446 71.3379C45.8274 71.3379 49.8465 69.8009 53 67.2392C56.1535 69.8009 60.1727 71.3379 64.554 71.3379C68.9354 71.3379 72.9545 69.8009 76.108 67.2392C78.3873 69.0889 81.0773 70.3643 83.9519 70.9584C86.8265 71.5525 89.8018 71.4478 92.6275 70.6532C95.4533 69.8585 98.047 68.3972 100.191 66.3919C102.334 64.3867 103.965 61.8961 104.946 59.1296C105.928 56.3631 106.23 53.4015 105.829 50.4936C105.428 47.5858 104.335 44.8168 102.641 42.4193C100.947 40.0218 98.703 38.0659 96.0964 36.716C93.4899 35.3661 90.5974 34.6617 87.662 34.6619ZM76.108 61.2414C74.387 58.8383 73.4632 55.9557 73.4669 52.9999C73.4669 49.9259 74.4473 47.0816 76.108 44.7584C77.7687 47.0816 78.7492 49.9259 78.7492 52.9999C78.7492 56.0739 77.7687 58.9182 76.108 61.2414ZM53 61.2414C51.279 58.8383 50.3552 55.9557 50.3589 52.9999C50.3589 49.9259 51.3394 47.0816 53 44.7584C54.6607 47.0816 55.6412 49.9259 55.6412 52.9999C55.6412 56.0739 54.6607 58.9182 53 61.2414ZM29.892 61.2414C28.171 58.8383 27.2472 55.9557 27.2509 52.9999C27.2509 49.9259 28.2314 47.0816 29.892 44.7584C31.5527 47.0816 32.5332 49.9259 32.5332 52.9999C32.5332 56.0739 31.5527 58.9182 29.892 61.2414ZM4.14286 52.9999C4.1439 50.3511 4.88601 47.7555 6.28526 45.5066C7.68451 43.2576 9.68509 41.445 12.0608 40.2737C14.4365 39.1024 17.0925 38.6191 19.7285 38.8786C22.3645 39.138 24.8753 40.1298 26.977 41.7418C24.4659 44.9569 23.1038 48.9203 23.108 52.9999C23.108 57.2443 24.5567 61.153 26.977 64.258C24.8753 65.87 22.3645 66.8617 19.7285 67.1212C17.0925 67.3806 14.4365 66.8974 12.0608 65.7261C9.68509 64.5548 7.68451 62.7422 6.28526 60.4932C4.88601 58.2442 4.1439 55.6486 4.14286 52.9999ZM32.807 64.258C35.3182 61.0429 36.6803 57.0794 36.676 52.9999C36.676 48.7555 35.2274 44.8467 32.807 41.7418C35.2832 39.8355 38.321 38.8027 41.446 38.8047C44.6967 38.8047 47.6912 39.9001 50.085 41.7418C47.5726 44.9562 46.2104 48.9201 46.216 52.9999C46.216 57.2443 47.6647 61.153 50.085 64.258C47.6088 66.1643 44.571 67.1971 41.446 67.195C38.3206 67.1994 35.2821 66.1664 32.807 64.258ZM55.915 64.258C58.4274 61.0435 59.7896 57.0797 59.784 52.9999C59.784 48.7555 58.3354 44.8467 55.915 41.7374C58.3089 39.9001 61.3034 38.8003 64.554 38.8003C67.8047 38.8003 70.7992 39.8956 73.193 41.7374C70.6806 44.9518 69.3184 48.9157 69.324 52.9955C69.324 57.2399 70.7727 61.1486 73.193 64.2536C70.7168 66.1599 67.679 67.1927 64.554 67.1906C61.4288 67.1983 58.3897 66.1666 55.915 64.258ZM87.662 67.195C84.5366 67.1994 81.4981 66.1664 79.023 64.258C81.5336 61.0426 82.8956 57.0793 82.892 52.9999C82.892 48.7555 81.4434 44.8467 79.023 41.7418C80.8126 40.3674 82.904 39.4394 85.1238 39.0348C87.3436 38.6302 89.6279 38.7606 91.7873 39.4152C93.9467 40.0698 95.9189 41.2297 97.5405 42.7988C99.162 44.3678 100.386 46.3009 101.111 48.4376C101.837 50.5743 102.042 52.8531 101.71 55.085C101.379 57.3169 100.52 59.4377 99.2055 61.2715C97.8907 63.1052 96.1577 64.5991 94.1501 65.6293C92.1426 66.6594 89.9184 67.1962 87.662 67.195Z" fill="#CFCFCF"/>
</g>
<defs>
<clipPath id="clip0_21_124">
<rect width="106" height="106" fill="white"/>
</clipPath>
</defs>
</svg>
