<svg width="108" height="108" viewBox="0 0 108 108" fill="none" xmlns="http://www.w3.org/2000/svg">
<path d="M51.9075 36.5129C49.6113 36.7029 47.3538 37.2181 45.2025 38.0429C44.613 38.2679 43.992 38.6504 43.3395 38.3984C40.3965 37.7099 37.35 37.9664 34.3755 38.2859C30.51 38.6909 26.6355 38.2724 22.77 38.0834C19.245 37.9661 15.7163 38.0412 12.1995 38.3084C8.991 38.5064 5.769 38.2634 2.5785 37.9214C2.1825 37.9124 1.7775 37.8314 1.386 37.9124C0.7785 38.3084 0.396 38.9564 0 39.5459V39.8519C0.8325 40.5629 1.818 41.0309 2.8125 41.4629C2.5335 42.1424 2.358 42.8579 2.2275 43.5779C3.4155 44.1359 4.6575 44.5994 5.8095 45.2339C5.679 45.6614 5.4855 46.0709 5.436 46.5164C5.409 46.7819 5.544 47.0609 5.8095 47.1554C6.7545 47.6504 7.8255 47.7944 8.802 48.1904C8.8965 48.2354 9.027 48.2804 9.027 48.4064C9.1035 48.9824 9.117 49.5674 9.2385 50.1389C9.31294 50.2076 9.40007 50.2611 9.495 50.2964C10.7865 50.7239 12.141 50.8859 13.4595 51.1784C13.6125 51.6734 13.5585 52.2989 13.9365 52.6904C15.624 53.5724 17.6265 53.1404 19.395 53.7164C19.836 54.1484 19.7325 55.0214 20.3985 55.2644C21.7305 55.6694 23.1615 55.3094 24.5295 55.4894C24.84 55.8449 24.876 56.3579 25.1775 56.7179C25.3776 56.9255 25.6499 57.048 25.938 57.0599C27.2295 57.0959 28.467 56.6684 29.745 56.5199C30.0105 56.9654 30.1365 57.6314 30.7035 57.7664C31.734 57.9689 32.7375 57.5774 33.696 57.2444C34.056 58.4144 34.443 59.5889 35.0595 60.6554C37.188 64.5164 40.8555 67.4009 44.9505 68.9399C45.5265 69.1019 45.7245 69.7274 46.0215 70.1819C46.593 69.9659 47.1555 69.7229 47.7495 69.5789L48.6495 70.9154C49.185 70.6454 49.716 70.3664 50.2515 70.0874C50.6115 70.5104 50.9715 70.9289 51.3405 71.3474L52.7355 70.3574C53.1405 70.7084 53.514 71.0954 53.8785 71.4869H54.036C54.468 71.1044 54.8775 70.6904 55.305 70.3034C55.782 70.6499 56.25 71.0054 56.727 71.3609C57.0915 70.9334 57.4605 70.5059 57.834 70.0829C58.374 70.3529 58.905 70.6364 59.4405 70.9109C59.724 70.4699 59.9985 70.0289 60.273 69.5834C60.903 69.7229 61.488 69.9839 62.091 70.1954C62.2395 69.8894 62.3835 69.5744 62.55 69.2774C62.7885 68.6384 63.54 68.5394 64.062 68.2334C68.436 66.2219 72.072 62.4464 73.5075 57.8024C74.2365 58.0724 75.06 58.4054 75.834 58.0904C76.239 57.8834 76.3965 57.4424 76.59 57.0644C77.67 57.3029 78.75 57.7574 79.875 57.5234C80.46 57.3479 80.748 56.7989 81.0135 56.3039C82.0485 56.4389 83.0655 56.7314 84.1185 56.6414C84.5865 56.5829 85.23 56.6414 85.5495 56.2094C85.815 55.7774 85.851 55.2419 86.1075 54.8054C87.525 54.6164 89.0235 54.9944 90.4005 54.4814C90.8325 53.9954 90.837 53.2664 91.2285 52.7579C92.34 52.6769 93.456 52.7579 94.5675 52.6769C94.7599 52.6631 94.9468 52.6062 95.1143 52.5104C95.2818 52.4146 95.4255 52.2823 95.535 52.1234C95.787 51.6419 95.823 51.0884 95.985 50.5754C96.0165 50.4674 96.075 50.3504 96.183 50.3009C97.2675 49.8509 98.586 50.2019 99.5805 49.5044C100.066 48.9644 99.675 48.1094 99.9765 47.5109C100.908 46.9799 102.123 47.1149 102.987 46.4264C103.567 45.9314 103.131 45.1574 103.05 44.5364C104.062 44.1899 105.174 44.0009 106.007 43.2809C105.772 42.6509 105.498 42.0434 105.241 41.4269C106.197 40.994 107.119 40.4901 108 39.9194V39.5279C107.691 38.9462 107.276 38.4273 106.776 37.9979C106.457 37.7594 106.011 37.9529 105.651 37.9169C102.519 38.1959 99.369 38.5019 96.2235 38.3309C94.347 38.2319 92.475 38.0519 90.5985 38.0519C88.2495 38.0519 85.9005 37.9844 83.5605 38.1734C80.0955 38.3804 76.6125 38.6369 73.152 38.2499C70.1955 37.9034 67.1445 37.7324 64.2375 38.4884C63.774 38.6819 63.288 38.5289 62.865 38.3219C60.543 37.2689 58.0185 36.7559 55.494 36.5129H51.9075ZM54.252 37.2104C55.7235 37.2734 57.195 37.4309 58.635 37.7594C60.03 38.0834 61.434 38.4299 62.73 39.0509C62.2665 39.3434 61.7085 39.7889 61.137 39.5459C58.6571 38.6707 56.0448 38.2292 53.415 38.2409C51.948 38.3309 50.481 38.4479 49.05 38.8034C48.132 38.9834 47.25 39.3254 46.323 39.4739C45.891 39.3569 45.495 39.1454 45.099 38.9384C48.0176 37.804 51.1206 37.2182 54.252 37.2104ZM105.854 38.4614C106.618 38.4164 107.239 39.0284 107.631 39.6314C106.11 40.4078 104.42 40.7973 102.713 40.7654C95.2875 40.8869 87.8715 41.1929 80.451 41.3819C80.451 41.5034 80.46 41.6249 80.469 41.7464C80.3902 41.5176 80.3182 41.2865 80.253 41.0534C81.8775 40.8284 83.493 40.5134 85.1355 40.4144C88.1415 40.1894 91.1655 40.1084 94.1805 40.0769C94.5738 40.0943 94.9617 39.9803 95.283 39.7529C92.8845 39.4964 90.468 39.6359 88.065 39.6944C86.3955 39.8159 84.717 39.8429 83.052 40.0544C80.8245 40.3244 78.6015 40.7474 76.3515 40.7744C74.9475 40.7969 73.539 40.9184 72.135 40.8194C70.38 40.7879 68.598 40.6304 66.87 41.0219C66.384 41.1794 65.7945 41.3504 65.601 41.8859C65.1825 42.7319 65.646 43.6769 66.0285 44.4464C66.492 45.4229 67.284 46.3589 67.14 47.5154C67.0725 47.9249 66.726 48.1949 66.411 48.4289C66.0892 48.0727 65.7916 47.6953 65.52 47.2994C65.7 46.9394 65.997 46.6019 65.916 46.1654C65.7675 45.2654 65.115 44.5544 64.503 43.9244C63.621 43.0694 62.64 42.2729 62.0415 41.1794C61.866 40.8644 61.7445 40.4144 62.082 40.1579C63.072 39.4559 64.2915 39.2174 65.466 39.0239C68.6835 38.5739 71.928 38.9564 75.1545 39.0914C76.743 39.2489 78.345 39.2264 79.938 39.0914C83.709 38.8484 87.498 38.4704 91.278 38.7224C92.979 38.8169 94.6845 38.8934 96.3855 38.9339C99.4995 39.0599 102.596 38.6549 105.701 38.4794C105.751 38.4706 105.802 38.4646 105.854 38.4614ZM2.475 38.4749C3.357 38.4659 4.239 38.5964 5.1165 38.6549C7.5555 38.8709 10.0035 39.0104 12.4515 38.9069C15.4845 38.8709 18.504 38.5109 21.537 38.6729C24.6285 38.7719 27.702 39.1139 30.798 39.2084C33.1605 39.1274 35.5185 38.9384 37.881 38.8304C40.2795 38.7539 42.7725 38.7809 45.036 39.6719C45.4725 39.8519 46.0125 40.0904 46.116 40.6034C46.026 41.3144 45.486 41.8634 45.045 42.3989C44.2575 43.3709 43.1145 44.0189 42.48 45.1214C41.985 45.7514 41.913 46.6964 42.4575 47.3174C42.1627 47.711 41.8329 48.077 41.472 48.4109C41.0985 48.0689 40.752 47.6459 40.797 47.0969C40.968 45.5399 42.3585 44.4284 42.5205 42.8669C42.66 42.3224 42.381 41.7914 42.0345 41.3954C41.3798 41.0627 40.662 40.8726 39.9285 40.8374C37.3995 40.6214 34.8615 40.9589 32.328 40.8059C29.8215 40.8239 27.3465 40.3874 24.8715 40.0544C21.7065 39.7705 18.5315 39.6113 15.354 39.5774C14.4765 39.5639 13.599 39.6449 12.7215 39.7214C13.005 39.9554 13.3515 40.1129 13.734 40.0724C17.0325 40.1174 20.331 40.1714 23.6205 40.4549C25.002 40.5854 26.3655 40.8329 27.7425 41.0444L27.639 41.4224C25.227 41.2739 22.806 41.2964 20.3895 41.1974C16.047 41.0399 11.7045 40.9049 7.362 40.8329C5.5125 40.7114 3.5775 40.9094 1.809 40.2299C1.314 40.0634 0.8505 39.8339 0.3825 39.6179C0.7245 39.1994 1.071 38.7224 1.5975 38.5379C1.89 38.4929 2.1825 38.4749 2.475 38.4749ZM54.0225 38.9879C56.4806 38.974 58.9191 39.426 61.209 40.3199C61.227 40.7879 61.0785 41.3009 61.317 41.7284C61.5176 42.0979 61.7591 42.4435 62.037 42.7589C62.847 43.7129 63.882 44.4824 64.683 45.4454C65.0062 45.7961 65.2475 46.2142 65.3895 46.6694C63.7319 45.1716 61.7942 44.0169 59.688 43.2719C57.3657 42.4605 54.8971 42.1531 52.4467 42.3704C49.9963 42.5876 47.6203 43.3245 45.477 44.5319C44.694 44.9729 43.983 45.5219 43.29 46.0979L42.606 46.6739C42.6603 46.4405 42.7515 46.2172 42.876 46.0124C43.8795 44.5949 45.378 43.6139 46.3905 42.2054C46.8855 41.6069 46.8405 40.8104 46.764 40.0904C49.1161 39.3679 51.5619 38.9964 54.0225 38.9879ZM79.9515 41.0354C80.0235 41.2334 80.0865 41.4314 80.1495 41.6294C78.741 42.4394 77.0535 42.2369 75.5055 42.0344C75.1545 42.0029 74.9475 41.7014 74.808 41.4089C76.518 41.2244 78.2415 41.2379 79.9515 41.0354ZM27.9765 41.1074C29.7135 41.1344 31.446 41.2199 33.1695 41.3954C33.0345 41.6249 32.9265 41.9534 32.6205 41.9894C31.707 42.1469 30.7755 42.1739 29.8575 42.2099C29.1465 42.2549 28.494 41.9309 27.8775 41.6294L27.9765 41.1074ZM33.408 41.3549C34.101 41.3684 34.7985 41.3774 35.4915 41.4179C37.3365 41.4944 39.231 41.3459 41.0265 41.8904C41.472 42.0434 41.9625 42.2504 42.192 42.6914C42.3675 43.4654 41.922 44.1539 41.544 44.7794C41.1705 45.4589 40.6575 46.0979 40.4865 46.8674C40.2705 47.5874 40.7115 48.1904 41.0445 48.7709C40.5405 48.7889 39.9195 49.0004 39.5235 48.5909C39.339 48.2219 39.555 47.7854 39.6315 47.4074L38.9115 48.0509L38.034 47.9969C37.9665 47.0834 38.6685 46.4219 39.0285 45.6524C38.4075 46.2059 37.7775 46.9889 36.855 46.9169C36.4905 46.9304 36.2115 46.4489 36.4365 46.1564C36.936 45.5219 37.584 45.0134 38.052 44.3474C37.494 44.7794 36.927 45.2249 36.2655 45.4769C35.772 45.6006 35.2503 45.5398 34.7985 45.3059C34.8795 44.3879 35.8515 44.0639 36.3735 43.4294C35.802 43.6679 35.2935 44.1224 34.632 44.0819C34.371 44.0909 34.1145 44.0099 33.867 43.9514C33.822 43.1729 34.6365 42.8984 35.0955 42.4349C34.6905 42.5249 34.299 42.7139 33.8805 42.7049C33.6015 42.6059 33.3855 42.3809 33.1425 42.2189C33.21 41.9219 33.3 41.6339 33.4125 41.3549H33.408ZM74.61 41.3549C74.691 41.7059 75.0015 42.1559 74.5875 42.4214C74.1375 42.9839 73.3815 42.5204 72.8325 42.4124C73.3365 42.8444 74.115 43.1639 74.1105 43.9559C73.6785 44.0324 73.2105 44.1809 72.783 44.0009C72.387 43.8389 72.0045 43.6364 71.6175 43.4519C71.739 43.5734 71.865 43.6904 71.9955 43.8029L72.387 44.1449C72.6435 44.3744 72.8955 44.6129 73.107 44.8829C73.179 45.1889 72.9585 45.5129 72.63 45.5084C71.5815 45.7739 70.7625 44.9369 70.002 44.3654C70.4025 44.9099 70.8795 45.3824 71.3385 45.8729C71.568 46.1159 71.5455 46.4804 71.6265 46.7864C71.2485 46.8359 70.8435 46.9844 70.4745 46.8224C69.8985 46.5884 69.462 46.1249 68.9895 45.7289C69.399 46.4489 70.0245 47.1014 69.9615 47.9879L69.0255 48.0239C68.8181 47.8279 68.6126 47.6299 68.409 47.4299C68.445 47.7989 68.679 48.2219 68.4405 48.5549C68.1615 48.8699 67.7295 48.8474 67.3335 48.8384C67.1985 48.8384 67.068 48.8384 66.9465 48.8519C67.158 48.3164 67.5765 47.8529 67.563 47.2499C67.401 45.6749 65.952 44.6084 65.736 43.0559C65.691 42.3854 66.429 42.0749 66.9645 41.8814C69.4575 41.2289 72.0585 41.5529 74.61 41.3549ZM3.141 41.3639C6.606 41.3639 10.071 41.5439 13.536 41.5754C17.8695 41.6699 22.203 41.7014 26.532 41.8139C27.432 41.7509 28.1745 42.3359 28.917 42.7454L28.836 43.6004C28.7031 43.6661 28.5696 43.7306 28.4355 43.7939L28.5525 43.4654C24.507 43.5734 20.4705 43.8479 16.425 43.9694C13.878 44.0234 11.34 44.2394 8.7885 44.1944C7.17715 44.2525 5.56589 44.0767 4.005 43.6724C3.4875 43.5194 2.8935 43.4384 2.484 43.0559C2.4795 42.4484 2.817 41.8679 3.141 41.3639ZM104.931 41.4629C105.219 41.9624 105.525 42.4619 105.736 43.0019C103.801 43.6319 101.731 43.6004 99.7245 43.5239C95.9985 43.5149 92.2725 43.2764 88.5465 43.1504C85.401 43.0064 82.2555 42.8804 79.11 42.7004C79.7535 42.2414 80.4825 41.7914 81.297 41.8184C89.1765 41.7869 97.0515 41.4719 104.931 41.4629ZM32.6025 42.4259C32.949 42.4484 33.2145 42.7589 33.4755 42.9659C33.5518 43.0288 33.6121 43.1089 33.6512 43.1997C33.6904 43.2905 33.7073 43.3893 33.7005 43.4879C33.3495 43.7579 32.886 43.7939 32.472 43.9019C31.635 44.0549 30.807 44.3069 29.952 44.3384C29.6505 44.2214 29.322 44.0909 29.1195 43.8164C29.0475 43.4384 29.1645 42.9164 29.5875 42.8174C30.5325 42.6284 31.5 42.5744 32.4495 42.4349C32.4999 42.4257 32.5513 42.4227 32.6025 42.4259ZM75.195 42.4619C76.2525 42.4619 77.31 42.5969 78.345 42.7904C78.8355 42.8849 78.822 43.4654 78.948 43.8434C78.543 44.0684 78.1515 44.4284 77.643 44.3249C76.9095 44.2124 76.1895 44.0279 75.4605 43.8929C75.069 43.7939 74.619 43.7624 74.2995 43.4879C74.322 43.0019 74.8215 42.6914 75.1995 42.4619H75.195ZM53.6625 43.0829C57.7485 42.9929 61.9515 44.3879 64.89 47.2904C66.501 48.9329 67.68 51.1424 67.644 53.4869C67.689 55.6019 66.7485 57.6539 65.3625 59.2199C62.8155 62.1089 58.995 63.6434 55.2105 63.9269C51.7922 64.2162 48.3709 63.4058 45.4455 61.6139C43.893 60.6239 42.4755 59.3639 41.544 57.7529C40.4231 55.9142 40.057 53.713 40.5225 51.6104C40.968 49.7429 42.1245 48.1274 43.5285 46.8539C46.071 44.5589 49.4595 43.3664 52.8435 43.1189C53.1135 43.1009 53.388 43.0919 53.6625 43.0829ZM79.0425 43.1864C80.0235 43.1639 81 43.2989 81.981 43.3439C88.461 43.7399 94.95 43.9739 101.43 44.3519C101.849 44.4149 102.321 44.3339 102.703 44.5454C102.96 44.9189 103.027 45.3779 103.095 45.8189C101.736 46.6514 100.044 46.4489 98.5275 46.4894C96.615 46.3634 94.7025 46.1294 92.7945 45.9449C92.1578 45.8822 91.5202 45.8282 90.882 45.7829C86.958 45.3914 83.0205 45.1574 79.1145 44.6219C79.1429 44.1408 79.1188 43.6579 79.0425 43.1819V43.1864ZM54.054 43.2314C53.532 43.2314 53.019 43.2539 52.5015 43.3034C48.879 43.6499 45.18 45.0584 42.777 47.8934C41.391 49.4594 40.446 51.5339 40.599 53.6624C40.68 56.6954 42.615 59.3909 45.0315 61.0874C49.0095 63.8684 54.288 64.4624 58.887 63.0674C60.957 62.3969 62.9505 61.3574 64.4895 59.7959C66.4155 57.9329 67.7025 55.2194 67.347 52.4969C67.0545 50.2694 65.772 48.2624 64.0935 46.8044C61.3485 44.3924 57.681 43.2269 54.054 43.2314ZM27.4365 44.0189C27.702 44.0189 27.9675 44.0189 28.2375 44.0279C28.9035 44.2169 29.358 44.7794 29.853 45.2249C29.7315 45.5714 29.628 45.9224 29.529 46.2779C29.853 46.5344 30.1995 46.7639 30.564 46.9529C28.2375 47.3309 25.929 47.8214 23.616 48.2669L21.528 48.7259L19.4355 49.1669C18.0405 49.4504 16.641 49.7204 15.2325 49.9499C13.41 50.2739 11.5065 50.1749 9.7335 49.6394C9.225 49.4954 9.099 48.9104 9.306 48.4604C9.3825 48.0104 9.9405 48.0554 10.2735 47.9879C16.0155 47.4029 21.7395 46.6604 27.4635 45.9764C28.2645 45.8909 29.1735 45.8729 29.7585 45.2429C26.604 45.5309 23.4495 45.8819 20.2995 46.2329L15.57 46.7414C13.995 46.9034 12.4155 47.0564 10.836 47.1914C9.063 47.3714 7.227 47.2004 5.571 46.5029C5.73279 45.9889 5.95007 45.494 6.219 45.0269C12.4875 44.7434 18.7695 44.6129 25.029 44.1494C25.83 44.1134 26.631 44.0369 27.4365 44.0189ZM33.0885 44.3069C33.2723 44.2989 33.4564 44.3109 33.6375 44.3429C34.0155 44.4554 34.3665 44.6444 34.7175 44.8154C34.677 45.4094 34.0965 45.5624 33.6465 45.7694C33.084 45.9989 32.535 46.2644 31.959 46.4579C31.23 46.6919 30.4965 46.3319 29.826 46.0664C29.916 45.7604 29.952 45.4184 30.141 45.1529C30.5513 44.8958 31.0037 44.713 31.4775 44.6129C32.004 44.4779 32.544 44.3249 33.0885 44.3069ZM74.7045 44.3069C75.501 44.2889 76.2795 44.5499 77.031 44.7839C77.319 44.9009 77.679 44.9459 77.895 45.1979C78.039 45.4679 78.075 45.7829 78.183 46.0619C77.526 46.3004 76.824 46.7144 76.104 46.4804C75.1362 46.1217 74.187 45.7147 73.26 45.2609C73.341 44.7074 73.8765 44.4509 74.3625 44.3339C74.4759 44.3189 74.5901 44.3099 74.7045 44.3069ZM78.696 45.0809C79.7715 45.0629 80.829 45.2654 81.8955 45.3779C85.3065 45.7604 88.722 46.1339 92.1375 46.4849C94.581 46.7909 97.0425 46.9709 99.4815 47.3399C99.54 47.8214 100.049 48.7439 99.333 48.9149C97.6659 49.1809 95.9703 49.2187 94.293 49.0274C88.974 48.1994 83.673 47.2544 78.345 46.4804C78.3253 46.0188 78.2893 45.558 78.237 45.0989C78.39 45.0899 78.543 45.0809 78.696 45.0809ZM54.4995 45.5804C55.638 45.5849 56.7675 45.7244 57.8655 46.0439C59.1345 46.4219 60.4215 47.0609 61.1505 48.2129C61.65 48.9329 61.7085 49.8689 61.542 50.7059C61.29 51.7229 60.3585 52.3484 59.553 52.9199L59.571 53.1089C60.7635 53.9234 62.064 55.0619 62.0235 56.6414C62.136 57.7844 61.5285 58.8554 60.705 59.5979C60.1245 60.0389 59.49 60.4214 58.806 60.6824C56.871 61.3529 54.792 61.4384 52.767 61.3034C50.283 60.9929 47.682 60.2954 45.8505 58.4819C46.1655 58.0589 46.5705 57.7169 46.8585 57.2759C46.952 54.8545 46.961 52.4305 46.8855 50.0084C46.5885 49.5629 46.179 49.2119 45.846 48.7934C47.079 47.1059 49.14 46.3409 51.111 45.9134C52.2225 45.7019 53.361 45.5759 54.4995 45.5804ZM73.233 45.8639C73.3635 45.8639 73.494 45.8684 73.62 45.8999C74.3805 46.1924 75.114 46.5479 75.843 46.9124C76.005 47.0204 76.248 47.0744 76.32 47.2814C76.338 47.6414 76.167 48.0374 75.8115 48.1679C75.294 48.3839 74.673 48.5189 74.1465 48.2759C73.287 47.8979 72.504 47.3669 71.6985 46.8944C71.775 46.7054 71.811 46.4669 71.9415 46.3094C71.9881 46.256 72.0467 46.2144 72.1125 46.1879C72.4583 46.0004 72.8405 45.8899 73.233 45.8639ZM34.6995 45.8639C35.1371 45.8701 35.5654 45.9911 35.9415 46.2149C36.234 46.3544 36.297 46.8449 36.018 47.0249C35.289 47.5199 34.524 47.9699 33.705 48.2894C33.0615 48.5009 32.4135 48.2579 31.815 48.0509L31.635 47.1779C32.391 46.7819 33.165 46.3994 33.948 46.0529C34.1795 45.9301 34.4374 45.8652 34.6995 45.8639ZM54.3645 46.6379C53.9406 46.6368 53.5169 46.6594 53.0955 46.7054C52.4859 46.773 51.9152 47.0385 51.471 47.4614C50.7375 48.2219 50.679 49.3604 50.8185 50.3459C50.8542 50.8313 51.029 51.296 51.3219 51.6846C51.6147 52.0733 52.0133 52.3693 52.47 52.5374C53.5185 52.8929 54.675 52.8749 55.7325 52.5824C56.8755 52.1999 57.4515 50.9534 57.4245 49.8194C57.483 48.8609 57.2445 47.7404 56.385 47.1824C55.779 46.8082 55.0764 46.6159 54.3645 46.6379ZM78.156 47.0204C79.371 47.0474 80.586 47.2544 81.783 47.4659C85.5315 48.1409 89.28 48.8204 93.024 49.5269C93.969 49.7204 94.9275 49.8824 95.859 50.1479C95.733 50.7104 95.6655 51.5879 94.95 51.6959C92.6415 51.9884 90.324 51.4709 88.11 50.8544C84.447 49.8644 80.7435 48.9914 77.085 47.9744C76.865 47.9254 76.6382 47.9148 76.4145 47.9429C76.473 47.7089 76.491 47.4614 76.6035 47.2499C76.8915 47.0339 77.292 47.0474 77.634 47.0249L78.156 47.0204ZM31.4145 47.2679C31.5405 47.7809 31.6485 48.2984 31.851 48.7844C28.998 49.6619 26.1495 50.5394 23.283 51.3584C21.762 51.7949 20.268 52.3619 18.693 52.5734C17.271 52.6994 15.813 52.6319 14.427 52.2764C13.86 52.1234 13.707 51.5114 13.6935 50.9984C17.6985 50.1299 21.69 49.2029 25.7085 48.4019C27.6075 48.0194 29.484 47.4884 31.4145 47.2679ZM71.451 47.4974C71.7421 47.4919 72.0253 47.5927 72.2475 47.7809C72.9225 48.2264 73.584 48.6809 74.2635 49.1129C74.2351 49.1748 74.214 49.2397 74.2005 49.3064L74.1555 49.5179C74.115 49.6619 74.061 49.7924 73.9305 49.8644C73.3455 49.9274 72.72 50.0579 72.1485 49.8374C71.5002 49.4219 70.9022 48.9326 70.3665 48.3794C70.1595 48.2039 70.182 47.8574 70.3575 47.6684C70.418 47.6055 70.4967 47.563 70.5825 47.5469C70.857 47.5334 71.1585 47.4839 71.451 47.4974ZM36.7425 47.4974C36.972 47.4974 37.2015 47.5154 37.4265 47.5424C37.737 47.6189 37.9485 48.0914 37.638 48.3029C36.936 49.0049 36.207 49.8959 35.1315 49.9454C34.7715 49.9409 34.4115 49.9544 34.0605 49.8779C33.804 49.7069 33.8265 49.3379 33.741 49.0859C34.5195 48.5909 35.262 48.0464 36.063 47.5874C36.2836 47.5304 36.5102 47.5002 36.738 47.4974H36.7425ZM76.599 48.4154C77.328 48.4919 78.021 48.7304 78.7275 48.9014C82.1745 49.9139 85.626 50.9129 89.0685 51.9344C89.712 52.1279 90.369 52.2899 90.9855 52.5554C90.8145 52.9829 90.6525 53.4689 90.252 53.7344C88.603 54.0758 86.8924 53.9639 85.302 53.4104C84.087 52.9469 82.9305 52.3619 81.738 51.8534C79.578 50.9309 77.427 49.9679 75.2355 49.1084C75.699 48.8969 76.113 48.5639 76.599 48.4154ZM69.5655 48.5954C70.038 48.5954 70.4205 48.9734 70.7625 49.2614C71.0865 49.5854 71.514 49.8509 71.7165 50.2739C71.784 50.6564 71.469 50.9894 71.361 51.3314C70.893 51.2414 70.308 51.4214 69.93 51.0344C69.3526 50.5221 68.8632 49.9186 68.481 49.2479C68.409 48.8609 68.8545 48.6269 69.2145 48.6134L69.3585 48.6179C69.4264 48.6025 69.4959 48.595 69.5655 48.5954ZM38.556 48.6134C38.9298 48.632 39.2898 48.7604 39.591 48.9824C39.2161 49.7562 38.6967 50.4511 38.061 51.0299C37.728 51.4349 37.161 51.3674 36.711 51.2324C36.4275 51.0209 36.324 50.6474 36.153 50.3504C36.7065 49.7789 37.233 49.1714 37.9035 48.7349C38.1086 48.6442 38.332 48.6026 38.556 48.6134ZM32.589 49.1534C32.751 49.1461 32.9134 49.1491 33.075 49.1624C33.534 49.2299 33.5925 49.7699 33.7635 50.1164C32.9625 50.3864 32.229 50.8049 31.4775 51.1784C29.5245 52.1144 27.621 53.1359 25.6725 54.0809C24.345 54.7829 22.779 54.6659 21.3255 54.6794C20.9205 54.6389 20.466 54.6794 20.1105 54.4454C19.8765 54.1439 19.7775 53.7614 19.6605 53.4014C20.763 52.8434 21.9825 52.5914 23.1255 52.1279C25.1775 51.3539 27.2835 50.7329 29.3535 50.0129C30.4245 49.7114 31.473 49.2074 32.5935 49.1579L32.589 49.1534ZM67.203 49.2029C67.6215 49.3019 68.1345 49.2704 68.4495 49.6124C68.8905 50.2109 69.336 50.8364 69.588 51.5384C69.507 52.0784 68.895 52.4384 68.364 52.4159C68.184 51.2774 67.698 50.2334 67.203 49.2029ZM40.707 49.2164C40.2085 50.2429 39.8425 51.3286 39.618 52.4474C39.1905 52.3484 38.655 52.2404 38.466 51.7859C38.331 51.5609 38.4615 51.3134 38.565 51.1109C38.8506 50.56 39.1897 50.0384 39.5775 49.5539C39.897 49.3109 40.329 49.3109 40.707 49.2164ZM74.5245 49.3424C75.3435 49.4909 76.0635 49.9454 76.8105 50.2964C79.785 51.6869 82.7505 53.0999 85.707 54.5354C85.6485 54.8504 85.6575 55.2284 85.4415 55.4984C84.708 55.7819 83.8935 55.6649 83.133 55.5884C82.206 55.4849 81.243 55.3769 80.4285 54.8684C78.147 53.4509 76.0185 51.7769 73.638 50.5214C74.1555 50.3324 74.331 49.8059 74.5245 49.3424ZM34.7805 50.4854C35.1855 50.4854 35.5905 50.5484 35.982 50.6744C35.109 51.7184 33.93 52.4384 32.8545 53.2439C31.5945 54.0989 30.4335 55.1204 29.0295 55.7324C27.9283 56.1053 26.7659 56.2641 25.605 56.2004C25.101 56.1374 24.8805 55.6694 24.858 55.2104C27.4995 53.7704 30.1995 52.4429 32.841 51.0119C33.4259 50.6633 34.0996 50.4813 34.7805 50.4854ZM72.6975 50.5664C73.228 50.6204 73.7306 50.8302 74.142 51.1694C76.1625 52.6769 78.174 54.2024 80.199 55.7009C80.469 55.8404 80.6085 56.1104 80.721 56.3849C80.154 56.6279 79.5375 56.9249 78.9075 56.7359C78.723 56.6909 78.5295 56.6549 78.3405 56.6144C77.7601 56.5343 77.2024 56.3351 76.7025 56.0294C74.781 54.8144 73.224 53.1044 71.2755 51.9254C71.6895 51.5564 71.8155 50.9804 72.2025 50.6069C72.3648 50.5706 72.5314 50.5569 72.6975 50.5664ZM35.9955 51.3584C36.5085 52.1594 37.4985 51.8849 38.2815 52.1009C36.5715 53.3294 35.2845 55.0349 33.5925 56.2859C32.5665 57.0464 30.969 57.3389 29.9295 56.4524C30.438 55.6649 31.2345 55.1474 31.941 54.5489C33.291 53.4869 34.6095 52.3754 35.9955 51.3584ZM69.9885 51.9209C70.4835 52.0244 71.037 52.0649 71.424 52.4429C72.702 53.5229 73.9035 54.6839 75.186 55.7639C75.6225 56.1689 76.2075 56.5154 76.257 57.1814C75.8295 57.3389 75.348 57.5189 74.898 57.3299C74.7897 57.3014 74.683 57.2668 74.5785 57.2264C73.8495 56.9429 73.251 56.4029 72.6705 55.8899C71.5711 54.8118 70.416 53.7919 69.21 52.8344C69.462 52.5239 69.723 52.2179 69.9885 51.9209ZM38.1825 52.7129C38.6415 52.8344 39.087 53.0054 39.546 53.1224C39.6045 53.5724 39.636 54.0224 39.663 54.4724C38.88 55.2599 38.2815 56.2994 37.2285 56.7674C36.5265 57.0374 35.757 57.1319 35.01 57.0374C34.7535 56.9834 34.5735 56.7809 34.389 56.6099C35.64 55.2959 36.819 53.9099 38.1825 52.7129ZM68.463 53.0414C69.1425 53.0324 69.588 53.5724 70.011 54.0224C70.893 55.0484 71.901 55.9484 72.81 56.9429C72.6165 57.1994 72.405 57.5549 72 57.4199C71.5227 57.4465 71.0454 57.3698 70.6005 57.1949C69.6645 56.7449 69.048 55.8764 68.2515 55.2464L68.463 53.0414ZM54.4995 53.6354C54.1159 53.6251 53.7321 53.6462 53.352 53.6984C52.119 53.8424 50.9355 54.7559 50.724 56.0159C50.589 57.2354 50.6385 58.7249 51.642 59.5979C52.3035 60.1379 53.172 60.3179 54.0045 60.3899C55.1655 60.4259 56.5245 60.2414 57.2445 59.2019C58.032 58.0139 58.0365 56.3984 57.4875 55.1159C56.8935 54.0359 55.683 53.6714 54.4995 53.6354ZM39.636 55.1204C39.933 55.8854 40.149 56.6774 40.356 57.4694C39.816 57.3659 38.997 57.4244 38.691 56.8484C38.5425 56.1239 39.2175 55.6154 39.636 55.1249V55.1204ZM68.2065 55.7954C68.598 56.1419 69.1245 56.6099 68.9715 57.1904C68.67 57.7169 67.9905 57.7214 67.464 57.7754C67.7162 57.1172 67.9637 56.4572 68.2065 55.7954ZM38.1015 57.2399C38.52 57.5864 38.979 57.9464 39.537 58.0319C39.897 58.1399 40.3155 58.1129 40.6395 58.3154C41.3415 59.1749 41.9625 60.1109 42.8355 60.8129C44.181 62.0594 45.7965 62.9234 47.313 63.9269C47.052 65.0069 46.3545 65.8934 45.7875 66.8249C41.6475 65.2364 38.052 62.0099 36.405 57.8474C36.972 57.6584 37.539 57.4559 38.097 57.2399H38.1015ZM69.57 57.5234C69.9885 57.6899 70.407 57.8609 70.83 58.0184C69.9975 60.3134 68.436 62.2934 66.6 63.8729C65.2661 65.0524 63.7209 65.9686 62.046 66.5729C61.686 65.9429 61.299 65.3219 60.984 64.6649C60.894 64.4399 60.75 64.1339 60.939 63.9224C61.38 63.4814 61.9605 63.2204 62.496 62.9144C63.612 62.2484 64.638 61.4429 65.583 60.5474C66.213 59.9444 66.609 59.1434 67.1895 58.4954C67.6845 58.3019 68.2605 58.3874 68.751 58.1624C69.066 58.0004 69.309 57.7484 69.57 57.5234ZM35.055 57.8384L35.973 57.8519C36.756 59.7869 37.872 61.6184 39.393 63.0584C40.3245 63.8999 41.229 64.7864 42.3135 65.4299C43.3485 66.1139 44.4825 66.6089 45.5985 67.1399C45.4884 67.4498 45.3545 67.7507 45.198 68.0399C44.1056 67.6041 43.0531 67.0741 42.0525 66.4559C40.7025 65.6594 39.5775 64.5614 38.4525 63.4859C37.2825 62.3474 36.5175 60.8759 35.7345 59.4629C35.442 58.9499 35.253 58.3874 35.055 57.8384ZM71.1765 58.0994L72.1665 58.1894C71.4197 60.4733 70.1087 62.5318 68.355 64.1744C66.681 65.7044 64.8225 67.1669 62.631 67.8644C62.478 67.5494 62.325 67.2344 62.181 66.9104C63.5535 66.2939 64.926 65.6099 66.096 64.6424C68.256 62.8964 70.191 60.7364 71.1765 58.0994ZM65.1105 60.0479C64.2555 61.2449 62.928 61.9379 61.7535 62.7704C61.2135 63.1889 60.4485 63.4454 60.228 64.1654C60.2775 64.5884 60.6195 64.9034 60.813 65.2679C61.299 66.1049 61.7805 66.9509 62.172 67.8329C62.388 68.3909 62.1675 68.9669 61.956 69.4844C61.245 69.2909 60.453 68.9669 60.1425 68.2469C59.544 67.1624 59.5575 65.7989 58.725 64.8269C58.6485 66.2759 59.697 67.4459 59.8725 68.8454C59.8005 69.3359 59.4945 69.7544 59.2605 70.1819C58.635 69.8309 57.8655 69.4799 57.717 68.7014C57.2895 67.5494 57.5505 66.1679 56.853 65.1149C56.5695 66.1184 57.06 67.0949 57.249 68.0669C57.3525 68.6699 57.618 69.4304 57.1455 69.9434C56.9927 70.1478 56.8336 70.3474 56.6685 70.5419C56.196 70.2044 55.5885 69.8894 55.431 69.2819C55.1655 68.1119 55.359 66.8969 55.143 65.7269C55.08 65.5784 54.9765 65.4614 54.882 65.3399C54.567 66.7349 55.2645 68.1119 55.0935 69.5159C54.9045 70.0199 54.486 70.5464 53.9235 70.6409C53.406 70.2809 52.9245 69.7409 52.929 69.0659C52.8615 67.8464 53.3205 66.6584 53.2575 65.4344L52.929 65.4254C52.7625 66.4604 52.848 67.5179 52.7805 68.5619C52.7737 69.0423 52.6093 69.5072 52.3125 69.8849C52.0425 70.1279 51.741 70.3349 51.426 70.5239C51.1425 70.2269 50.8185 69.9389 50.6475 69.5519C50.4945 68.9669 50.706 68.3819 50.8275 67.8059C51.039 66.9419 51.345 66.0779 51.3045 65.1779H51.0075C50.634 66.3434 50.643 67.5764 50.3145 68.7509C50.2212 69.0496 50.0625 69.3237 49.85 69.5533C49.6375 69.7829 49.3765 69.9623 49.086 70.0784C48.843 70.1864 48.5505 70.0154 48.456 69.7814C48.0195 69.2279 48.24 68.4809 48.4335 67.8779C48.8205 66.8789 49.2975 65.9024 49.5135 64.8449L49.2165 64.7234C48.5865 65.8934 48.4335 67.2614 47.7765 68.4179C47.633 68.6868 47.4341 68.9222 47.1928 69.1084C46.9516 69.2945 46.6735 69.4273 46.377 69.4979C46.1745 69.5654 46.017 69.3989 45.927 69.2414C45.8109 69.0086 45.7486 68.7526 45.7447 68.4925C45.7409 68.2324 45.7954 67.9747 45.9045 67.7384C46.4085 66.6539 47.1195 65.6684 47.6145 64.5794C47.7045 64.2824 47.8665 63.8819 47.619 63.6209C46.629 62.6039 45.162 62.2709 44.154 61.2719C45.2025 61.8929 46.2195 62.6039 47.376 63.0089C51.5295 64.6829 56.331 64.7324 60.4935 63.0584C62.2485 62.4464 63.774 61.3169 65.1105 60.0479Z" fill="#CFCFCF"/>
</svg>
