<svg width="78" height="78" viewBox="0 0 78 78" fill="none" xmlns="http://www.w3.org/2000/svg">
<path d="M0 9.67847H60.4272C60.4955 9.69147 60.5638 9.71747 60.632 9.72072C62.049 9.78247 63.4367 10.0132 64.7887 10.4292C69.5305 11.895 72.9365 14.872 74.919 19.4382C76.3945 22.8377 76.544 26.78 75.946 29.6952C75.341 32.7832 73.7839 35.6041 71.4935 37.7617C71.448 37.8072 71.4058 37.8592 71.3635 37.908C71.4317 37.9925 71.5325 38.038 71.6137 38.1062C73.4576 39.4517 74.9819 41.1873 76.0779 43.1895C77.1739 45.1917 77.8147 47.411 77.9545 49.6892C77.9577 49.7575 77.987 49.8257 78 49.894V52.4615C77.9837 52.5492 77.961 52.6337 77.9545 52.7215C77.9415 52.871 77.948 53.0237 77.9317 53.1765C77.8151 54.3302 77.5866 55.4698 77.2492 56.5792C75.9557 60.7327 73.4565 63.9307 69.6572 66.0822C66.9403 67.6227 63.9893 68.3117 60.8822 68.315C40.6022 68.328 20.3222 68.3215 0.04225 68.3215V52.9165H9.75325L9.7565 58.565C10.192 58.617 33.241 58.5975 33.436 58.5455V43.3745H23.491V48.0057C23.1595 48.0675 13.975 48.0512 13.7865 47.9927V28.964H23.491V33.592C23.8258 33.6537 33.2508 33.6375 33.436 33.5822V19.422H9.75V24.4075H0.026L0 9.67847ZM44.6973 58.591H60.1152C60.9408 58.591 61.7565 58.5162 62.5527 58.2985C65.0553 57.616 66.7777 56.0787 67.5772 53.5957C68.1408 51.8669 68.1329 50.0026 67.5545 48.2787C67.275 47.3705 66.806 46.5318 66.1786 45.8181C65.5511 45.1044 64.7795 44.5318 63.9145 44.1382C62.8034 43.6203 61.5914 43.355 60.3655 43.3615H44.7005L44.6973 58.591ZM44.707 19.4025V33.6277H58.9972C59.7927 33.6318 60.5844 33.519 61.347 33.293C63.5505 32.6332 65.0748 31.2455 65.819 29.055C66.2903 27.664 66.3487 26.234 66.04 24.804C65.5167 22.3925 64.0965 20.7382 61.7728 19.8802C60.7833 19.5395 59.7411 19.3777 58.695 19.4025H44.707Z" fill="#CFCFCF"/>
</svg>
