<svg width="103" height="103" viewBox="0 0 103 103" fill="none" xmlns="http://www.w3.org/2000/svg">
<path d="M11.9609 40.4018H20.9905L19.2825 37.3161H49.9207V40.3932H50.9421V36.2518H9.16271L11.9609 40.4018ZM12.8278 44.4703H50.9335V41.3846H12.3342L12.8278 44.4703ZM22.5055 49.6375H13.6647L12.978 45.4274H50.9421V49.6375H49.9164V46.4144H22.1836L22.5055 49.6375ZM36.6637 52.6073H50.9378V54.8175H36.6637V52.6073ZM52.0665 36.2518H66.4736V42.4489H52.0665V36.2518ZM15.7204 60.1521C15.9521 60.5211 16.3856 60.9503 17.8233 61.358C18.4499 61.5168 19.1322 61.6756 20.0335 61.8816L20.3768 61.9631H35.6637V59.7744H15.5187C15.5745 59.9031 15.6388 60.0319 15.7161 60.1521H15.7204ZM35.6637 56.8089H14.8449L13.8235 50.6289H35.6637V56.8089ZM36.6594 65.4823C41.994 66.5681 47.204 67.5766 50.9464 68.1861V57.8088H36.6594V65.4823ZM89.3439 49.6375H67.4564V43.436H90.3439L89.3439 49.6375ZM67.4564 38.2216V40.4233L90.9962 40.4147L92.4725 38.2216H67.4564ZM0 31.355L6.93533 41.5219C7.69496 45.8394 9.682 56.9676 9.90946 58.0449L9.93521 58.1822C10.5704 61.2121 10.9609 63.0704 16.759 64.5038C24.5912 66.4351 42.4961 70.1817 51.4957 71.6451C60.4953 70.1817 78.4088 66.4308 86.2453 64.5038C92.0391 63.0704 92.4253 61.2121 93.0648 58.1822L93.0905 58.0449C93.318 56.9591 95.305 45.8394 96.0647 41.5219L103 31.355H0ZM92.0734 41.376L90.8846 48.7448C90.198 53.0107 89.7387 55.8561 89.5113 57.1179L89.4812 57.2681L89.4297 57.5685C88.8847 60.5383 88.6444 61.8687 85.5243 62.7399C79.0182 64.3407 60.1692 68.362 51.5043 69.7182C42.8437 68.362 23.9947 64.3364 17.4928 62.7399C14.3728 61.8687 14.1325 60.5383 13.5874 57.5642L13.5059 57.1179C13.2784 55.8819 12.8364 53.1266 12.1755 49.0066L10.9437 41.3717L5.47617 33.2605H97.5324L92.0734 41.376ZM53.0879 54.8175H52.0665V50.6289H89.1894L88.5027 54.8261H79.9022C80.0353 54.0922 80.2885 51.9979 80.3271 51.6932H53.0879V54.8175ZM52.0665 58.8603H87.7817L88.3568 55.7874H52.0665V58.8603ZM52.0665 45.4316H66.4779V47.6461H52.0665V45.4316ZM52.0665 59.7744V68.1818C61.1434 66.6368 78.7735 63.0103 85.1896 61.3494C86.6402 60.9761 87.0693 60.5211 87.3011 60.1521C87.3792 60.0337 87.444 59.907 87.4942 59.7744H52.0665ZM61.9202 65.2763L60.1391 65.6282C59.2379 65.8085 57.2852 66.1647 55.5685 66.4823L53.0922 66.9372V60.8344H78.3272C77.1684 62.2507 74.8424 62.7099 61.9202 65.2763Z" fill="#CFCFCF"/>
</svg>
