<svg width="146" height="146" viewBox="0 0 146 146" fill="none" xmlns="http://www.w3.org/2000/svg">
<g clip-path="url(#clip0_66_110)">
<path fill-rule="evenodd" clip-rule="evenodd" d="M73.106 37.4036C86.1703 37.4036 97.7613 42.5927 104.989 50.5935L98.6089 52.1591C92.6751 45.4316 83.4587 41.1104 73.106 41.1104C62.7337 41.1104 53.4991 45.4505 47.5661 52.2038L41.1847 50.639C48.4076 42.6094 60.0183 37.4036 73.106 37.4036Z" fill="#CFCFCF"/>
<path fill-rule="evenodd" clip-rule="evenodd" d="M21.4263 65.9369L6.48212 38.8646C6.38063 38.6563 6.45864 38.4109 6.81388 38.4799L31.1078 44.3909C32.0516 44.6158 32.6204 44.9385 33.034 45.8277L34.714 49.3915L61.9733 56.0781C62.664 56.2531 63.2571 56.4068 63.8517 56.8726C64.541 57.4536 64.9606 58.236 65.309 59.0783L72.7599 77.1151C72.8144 77.2431 72.8129 77.3582 72.7781 77.4415L70.5345 82.8716C70.4989 82.9435 70.4558 82.9647 70.3732 82.9481L46.2164 77.0681C45.6437 76.9378 45.0439 76.5826 44.6454 75.7971L43.0223 72.4106C42.9215 72.1955 42.8041 72.116 42.5375 72.0531C42.4572 72.0319 23.26 67.3275 23.26 67.3275C22.7503 67.1844 22.1141 67.0715 21.4263 65.9369Z" fill="#CFCFCF"/>
<path fill-rule="evenodd" clip-rule="evenodd" d="M33.4377 70.1618L40.7689 71.9599C41.7089 84.3296 51.3934 94.5572 64.3599 97.7869L62.8428 101.458C45.977 97.7574 33.5362 85.159 33.4377 70.1618ZM73.106 102.558C71.042 102.558 69.0144 102.427 67.0367 102.18L68.5334 98.5663C71.5003 98.9422 74.5023 98.9501 77.4711 98.5898L78.9671 102.206C77.0223 102.442 75.065 102.559 73.106 102.558ZM86.4558 111.586L83.4708 111.065C83.1648 111.009 82.8822 110.912 82.6883 110.448L73.3143 87.7638C73.2098 87.5161 73.1719 87.3283 73.2795 87.0617C73.4378 86.6701 73.793 85.8073 73.9741 85.365C74.3028 84.5561 74.7845 83.9554 75.1988 83.6328C75.2996 83.5502 75.4117 83.5214 75.498 83.7289L86.8035 111.028C86.9292 111.373 86.7648 111.645 86.4558 111.586ZM83.1746 101.501L81.6582 97.8339C94.7414 94.6557 104.526 84.3622 105.448 71.9077L112.775 70.1125C112.704 85.19 100.186 97.8566 83.1746 101.501Z" fill="#CFCFCF"/>
<path fill-rule="evenodd" clip-rule="evenodd" d="M139.519 38.8647L124.571 65.9369C123.884 67.0723 123.247 67.1844 122.74 67.3268C122.74 67.3268 103.541 72.0312 103.462 72.0524C103.192 72.1153 103.079 72.1948 102.978 72.4099C102.946 72.4735 101.354 75.7964 101.354 75.7964C100.958 76.5819 100.354 76.9371 99.7814 77.0674C99.7814 77.0674 76.4683 82.7337 76.1456 82.8095C75.0496 83.0632 74.2331 84.0221 73.7309 85.1977C73.5832 85.5476 63.3094 110.448 63.3094 110.448C63.1185 110.912 62.8345 111.01 62.5277 111.065L59.5419 111.586C59.2329 111.645 59.0723 111.373 59.1965 111.027L80.6902 59.0776C81.0364 58.2361 81.4568 57.4529 82.149 56.8719C82.7406 56.4053 83.3352 56.2523 84.0267 56.0774L111.285 49.3907L112.965 45.827C113.377 44.9378 113.948 44.6143 114.894 44.3901L139.185 38.4791C139.54 38.4102 139.619 38.6556 139.519 38.8647Z" fill="#CFCFCF"/>
<path fill-rule="evenodd" clip-rule="evenodd" d="M70.7027 80.4712L62.1793 59.8485C61.5999 58.4321 60.422 57.8224 59.5555 57.6096L36.4644 51.9083C36.3818 51.8879 36.322 51.9349 36.3599 52.0144L46.5209 73.5596C46.9253 74.3905 47.7115 75.1086 48.6871 75.3646C56.3205 77.2218 62.9079 78.9306 70.5474 80.6825C70.7057 80.7174 70.7875 80.6681 70.7027 80.4712Z" fill="#1E1E1E"/>
<path fill-rule="evenodd" clip-rule="evenodd" d="M62.6534 78.4497L55.1162 76.6152L51.9327 69.2241L43.8547 67.2222L40.3069 59.7017L48.7295 61.7907L45.5877 54.5042L53.571 56.475L56.5667 63.7244L64.2335 65.5839L67.3041 73.0113L59.6275 71.1291L62.6534 78.4497Z" fill="#CFCFCF"/>
<path fill-rule="evenodd" clip-rule="evenodd" d="M41.215 69.0234L31.5752 48.5499C31.3275 48.0288 31.1298 47.535 30.8086 47.0994C30.2163 46.3572 29.7134 46.0716 29.0226 45.8929L11.7819 41.6702C11.6357 41.6376 11.5797 41.6777 11.6539 41.8345L23.6615 63.5964C24.4969 65.0946 25.8081 65.4104 26.4208 65.5612L41.1113 69.1567C41.2188 69.1847 41.2574 69.1196 41.215 69.0234Z" fill="#1E1E1E"/>
<path fill-rule="evenodd" clip-rule="evenodd" d="M32.4742 66.7011L28.9461 59.2737L20.4704 57.1945L16.2235 49.499L25.3687 51.7402L21.9323 44.5022C21.9323 44.5022 28.1031 46.0193 28.7075 46.1595C29.7982 46.417 30.6056 47.0714 31.02 48.0561C31.1972 48.4765 33.7157 53.7853 33.7157 53.7853L25.3687 51.7402L28.9461 59.2737L37.2597 61.3097L40.753 68.7265L32.4742 66.7011Z" fill="#CFCFCF"/>
<path fill-rule="evenodd" clip-rule="evenodd" d="M134.178 41.8597L116.934 46.0832C116.253 46.2574 115.7 46.5323 115.035 47.3602C115.029 47.3693 114.375 48.5691 114.375 48.5691L104.534 69.4727L104.613 69.7113C104.647 69.7613 104.742 69.8704 104.933 69.8227L119.623 66.2271C120.281 66.0628 121.638 65.7302 122.515 64.1578C122.515 64.1555 134.601 42.2543 134.601 42.2543L134.541 41.9703C134.47 41.8574 134.347 41.8203 134.178 41.8597Z" fill="#1E1E1E"/>
<path fill-rule="evenodd" clip-rule="evenodd" d="M118.763 64.2017L111.778 65.9113L112.29 64.8584L119.278 63.1497L118.763 64.2017Z" fill="#CFCFCF"/>
<path fill-rule="evenodd" clip-rule="evenodd" d="M124.697 52.3168C123.891 53.0394 123.457 53.2712 122.976 54.0248C122.86 54.1988 122.763 54.3838 122.684 54.577C122.645 54.677 122.502 54.7308 122.462 54.5414C122.438 54.4255 122.488 54.2793 122.523 54.1832C122.755 53.4893 123.077 53.2045 123.24 52.6213C123.296 52.4259 123.194 52.3024 122.976 52.4047C122.911 52.4395 122.757 52.4994 122.532 52.7016C121.658 53.506 120.738 54.6043 120.044 55.6526L120.58 55.5177L119.122 58.4854L118.507 58.6384C118.411 58.8027 118.323 58.9792 118.273 59.1822C118.176 59.6087 118.578 59.5155 118.692 59.414C118.892 59.2367 119.122 58.933 119.281 58.7399C119.447 58.5384 119.691 58.2665 119.942 58.1529C120.192 58.0362 120.406 58.2695 120.167 58.4066C120.002 58.5067 119.865 58.6449 119.765 58.8096C119.516 59.1875 119.344 59.5602 119.093 59.9071C118.788 60.3282 118.466 60.6713 118.073 60.8766C117.788 61.0258 117.402 61.0281 117.513 60.3638C117.633 59.667 117.883 59.3049 118.098 58.7406L117.906 58.7899C117.56 59.5018 117.33 60.1631 117.304 60.4903C117.259 61.0288 117.177 61.3538 116.981 61.7007C116.631 62.3023 116.161 62.8254 115.6 63.2375C115.525 63.2928 115.446 63.2731 115.425 63.1497C115.298 62.3915 115.653 61.6923 116.1 61.1114C116.637 60.4168 117.143 59.8382 117.547 58.8792L117.345 58.9285C116.943 59.698 116.665 60.1358 116.125 60.7592C115.737 61.2068 115.403 61.4689 115.109 61.6075C114.865 61.7181 114.498 61.7575 114.643 61.1667C114.75 60.7387 114.977 60.4365 115.199 60.0139C115.306 59.8048 115.418 59.6193 115.407 59.4337C115.388 59.1656 115.75 59.1746 115.778 59.47C115.794 59.6155 115.805 59.8268 115.825 59.9699C115.868 60.2608 116.072 60.1941 116.228 60.0487C116.523 59.7471 116.77 59.4016 116.96 59.0247L116.355 59.1784L117.803 56.2191L118.426 56.0631C118.644 55.3981 118.691 54.5672 118.538 53.9052C118.455 53.5295 118.176 53.3333 117.81 53.7476C117.372 54.2392 117.076 55.0277 116.602 55.873C116.517 56.0148 116.417 56.1482 116.306 56.2714C116.229 56.3411 116.123 56.3146 116.168 56.1146C116.203 55.9692 116.29 55.6745 116.322 55.4193C116.384 54.9542 116.39 54.5035 116.538 53.9006C116.805 52.8258 117.381 51.8616 118.245 51.3655C118.738 51.1042 119.577 50.8292 119.911 51.211C120.26 51.6117 120.031 52.5304 119.853 53.1212C119.577 54.0551 119.161 55.0171 118.81 55.9639L119.013 55.9146C119.743 54.2756 120.34 52.4941 120.952 50.7595C121.215 50.0544 121.595 49.1659 122.103 48.4388C122.483 47.8972 123.057 47.4049 123.45 47.2049C123.595 47.142 123.622 47.1496 123.632 47.2784C123.761 48.5918 123.277 49.8324 122.575 50.8876C121.64 52.2888 120.523 53.4492 119.452 55.8048L119.677 55.7457C120.625 54.0617 121.741 52.4773 123.006 51.0163C123.485 50.4323 124.25 49.6295 125.003 49.6264C125.311 49.6264 125.475 49.843 125.52 50.2475C125.595 50.93 125.185 51.876 124.697 52.3168Z" stroke="#CFCFCF" stroke-miterlimit="2.613"/>
<path fill-rule="evenodd" clip-rule="evenodd" d="M110.613 51.782C110.579 51.7317 110.529 51.6938 110.472 51.674C110.414 51.6542 110.352 51.6536 110.294 51.6722L87.2057 57.3704C86.605 57.5196 85.1303 58.049 84.4365 59.7442V59.7426L75.9154 80.3668C75.8222 80.5842 75.8654 80.7243 75.9169 80.8039C75.9956 80.9213 76.1237 80.9614 76.2986 80.9213L90.73 77.434L98.165 75.6033C99.1474 75.3458 100.009 74.6255 100.468 73.6787C100.468 73.6764 110.7 51.9903 110.7 51.9903L110.613 51.782Z" fill="#1E1E1E"/>
<path fill-rule="evenodd" clip-rule="evenodd" d="M101.141 65.9657L95.9798 67.2291L95.1125 69.1773L87.3981 71.0989L88.2222 69.1295L81.5734 70.7588L84.6607 66.8709L89.6878 65.6355L90.4914 63.7169L98.415 61.7544L97.5462 63.7101L104.237 62.0665L101.141 65.9657Z" stroke="#CFCFCF" stroke-miterlimit="2.613"/>
<path fill-rule="evenodd" clip-rule="evenodd" d="M48.7295 61.7908L51.9327 69.2242L59.6275 71.1292L56.5667 63.7245L48.7295 61.7908Z" fill="#1E1E1E"/>
</g>
<defs>
<clipPath id="clip0_66_110">
<rect width="146" height="146" fill="white"/>
</clipPath>
</defs>
</svg>
