<svg width="150" height="150" viewBox="0 0 150 150" fill="none" xmlns="http://www.w3.org/2000/svg">
<g clip-path="url(#clip0_90_18)">
<path fill-rule="evenodd" clip-rule="evenodd" d="M145.454 77.0069H129.712L130.19 75.0933H145.879L146.623 72.4342H127.054L125.777 77.1135C125.511 78.2839 125.724 79.6667 127.107 79.6667H144.709L145.454 77.0069ZM127.531 70.4662C127.85 69.2429 128.223 67.8072 130.51 67.8072H147.795L147.103 70.4662H127.531ZM80.2006 67.8072L79.5088 70.4662H94.3473C96.7394 70.5191 96.4997 72.3751 96.3674 73.0724C96.155 74.1891 94.7184 76.5828 92.6983 77.0069H81.6901L82.7538 72.8062H78.8707L77.1167 79.6667H94.1348C98.123 79.6667 100.515 74.7213 100.622 72.8591C100.728 70.9969 100.675 67.8072 95.0375 67.8072H80.2006ZM72.6483 67.8072C76.6373 67.8072 77.9672 70.5191 77.5945 73.1253C76.6902 78.3897 72.116 79.6667 70.4141 79.6667H59.3001C55.3119 79.6667 53.982 76.9555 54.3539 74.3486C55.2582 69.0834 60.9491 67.8072 62.651 67.8072L64.5653 70.1472C62.2782 70.1472 58.4495 71.2646 58.1297 74.0824C57.8106 76.9018 59.4588 77.3275 61.6401 77.3275H68.4998C70.7861 77.3275 73.4989 76.21 73.8179 73.3914C74.137 70.5728 72.4888 70.1472 70.3083 70.1472H64.5653L62.651 67.8072H72.6483ZM125.564 70.4662H110.514C108.227 70.4662 105.461 71.9549 105.303 74.0824C105.09 76.9111 106.631 77.0069 108.812 77.0069H116.098C117.813 77.0069 118.84 76.5586 119.381 75.0917H110.992L111.684 72.4335H124.984C124.978 72.6638 124.854 72.8949 124.82 73.1253C123.916 78.3897 119.29 79.6667 117.587 79.6667H106.471C102.483 79.6667 101.153 76.9555 101.526 74.3486C102.43 69.0834 108.121 67.8072 109.823 67.8072H122.851C124.447 67.8072 125.618 68.4982 125.564 70.4662ZM32.7624 67.8072L32.0714 70.4662H46.909C49.302 70.5191 49.0631 72.3751 48.93 73.0724C48.7175 74.1891 47.2818 76.5828 45.2608 77.0069H34.2518L35.3149 72.8062H31.4333L29.6777 79.6667H46.6958C50.684 79.6667 53.0777 74.7213 53.1843 72.8591C53.2909 70.9969 53.2372 67.8072 47.6001 67.8072H32.7624ZM13.2984 63.4727C17.3932 63.4727 20.5044 63.7388 22.2063 63.8983C23.1635 64.0042 24.4132 64.5894 24.3868 66.2383C24.414 67.4079 24.3074 74.9602 24.095 77.3002C24.0421 78.9492 23.8288 80.4114 22.2071 81.5289C20.1651 82.9351 17.8461 84.5872 13.2992 86.528C8.75226 84.5872 6.43326 82.9351 4.3913 81.5289C2.76956 80.4114 2.55634 78.95 2.50342 77.3002C2.2902 74.9602 2.18437 67.4087 2.21083 66.2383C2.18359 64.5894 3.43336 64.0049 4.39053 63.8983C6.09242 63.7388 9.20361 63.4727 13.2984 63.4727Z" fill="#AEAEAE"/>
<path fill-rule="evenodd" clip-rule="evenodd" d="M4.84266 72.9922C4.57729 72.9121 4.31115 72.9393 4.20454 73.4708C4.09793 74.0023 4.12439 74.3213 4.25746 74.6404C4.12439 74.8521 4.23022 75.7571 4.44345 75.9166C4.36407 76.1828 4.57652 76.9804 4.84266 77.1127C4.78974 77.4318 5.26755 78.0979 5.56092 78.2302C5.3477 78.3368 6.07764 78.8029 6.41148 78.922C6.8636 79.0815 7.66125 79.0815 7.9803 79.0286C8.24644 79.0286 8.32582 78.6029 8.08691 78.4177C7.84801 78.231 5.32202 76.1836 5.24187 73.5782C5.26755 73.3385 5.10802 73.0459 4.84266 72.9922ZM12.8463 69.0305C12.6339 68.818 12.4479 68.6048 12.0751 68.6048C11.9156 68.3122 11.437 67.9667 11.1444 67.9402C10.9849 67.6749 10.3997 67.3021 10.0542 67.3286C9.9211 67.0889 8.67133 67.036 8.40519 67.1955C8.16551 67.0624 7.15542 67.2757 7.04881 67.5947C6.7033 67.6749 6.01149 68.2328 5.66598 69.0569C5.53291 69.2958 5.79905 69.376 5.93212 69.2164C6.06519 69.0569 7.04881 68.6048 7.60677 68.7916C8.16551 68.9775 9.60126 69.6686 11.3032 72.035C11.5958 72.4607 12.5794 72.7533 12.7654 71.8491C12.9965 70.73 13.2183 69.4561 12.8463 69.0305ZM21.7542 72.9922C22.0203 72.9121 22.2865 72.9393 22.3923 73.4708C22.4989 74.0023 22.4725 74.3213 22.3394 74.6404C22.4725 74.8521 22.3658 75.7571 22.1534 75.9166C22.2336 76.1828 22.0203 76.9804 21.7542 77.1127C21.8079 77.4318 21.3285 78.0979 21.0367 78.2302C21.2491 78.3368 20.52 78.8029 20.1861 78.922C19.734 79.0815 18.9364 79.0815 18.6173 79.0286C18.3512 79.0286 18.271 78.6029 18.5107 78.4177C18.7504 78.231 21.2764 76.1836 21.3558 73.5782C21.3285 73.3385 21.4881 73.0459 21.7542 72.9922Z" fill="#1E1E1E"/>
<path fill-rule="evenodd" clip-rule="evenodd" d="M13.2984 81.129C13.5646 81.2356 13.8035 81.1562 13.9894 81.0223C13.6704 81.0223 13.4579 80.8099 13.4579 80.4644C13.4579 80.1181 13.5646 79.9049 13.9101 79.9601C14.2556 80.0115 14.4688 79.9056 14.3622 79.3477C14.2556 78.7897 14.2027 78.5236 14.2556 78.2582L14.7606 76.5836C15.1591 76.5307 15.6112 76.3968 15.5583 75.8645C15.3186 75.8116 14.9202 76.0241 14.84 76.2373C14.7599 76.3711 14.5209 76.2373 14.6003 76.0778L14.7334 75.705C14.7863 75.5455 14.9723 75.4661 15.0789 75.4132C15.1855 75.3603 15.345 75.2537 15.7972 75.2007C15.9302 74.8008 16.1162 73.8444 15.7443 73.5518C15.6112 73.4724 15.717 73.3922 15.8509 73.3922C15.9839 73.3922 16.1699 73.3121 16.303 73.0732C16.4353 72.8335 17.5263 70.4406 18.4306 69.6429C19.334 68.8453 20.9301 69.3511 21.3285 70.0421C21.7277 70.734 21.9402 71.7705 21.8608 72.5152C21.8608 72.7277 21.7542 72.7814 21.6219 72.8078C21.4858 72.8426 21.3588 72.906 21.2491 72.9938C21.1161 73.1004 21.1161 73.2335 21.1161 73.3393C21.1161 73.4452 20.797 75.7587 19.1216 77.0614C18.8025 77.2754 18.4835 77.0886 18.4835 76.8225C18.4835 76.5563 18.4835 76.0521 18.7496 75.9182C18.5893 75.7859 18.6695 74.9618 18.8562 74.8008C18.7232 74.6148 18.8033 73.7113 19.0687 73.5782C18.9356 73.4981 18.8461 73.0989 18.8562 72.993C18.9091 72.4078 18.2983 72.0623 18.0586 72.6475C18.2446 72.7277 18.4843 72.9401 18.3512 73.9767L16.9154 74.8537C16.9956 75.1198 16.8353 75.9711 16.6757 76.477C16.5162 76.9812 16.3567 77.7796 15.9575 78.231C15.5591 78.6839 15.2929 79.1882 15.054 80.4379C15.0011 80.8908 14.6283 80.9702 14.3894 81.0231C14.7622 81.157 14.5754 81.4488 14.3365 81.5826C14.0968 81.7149 13.7521 81.9274 13.2992 81.9274C12.8463 81.9274 12.5016 81.7149 12.2619 81.5826C12.023 81.4488 11.837 81.157 12.209 81.0231C11.9693 80.9702 11.5973 80.8908 11.5444 80.4379C11.3047 79.1889 11.0393 78.6839 10.6401 78.231C10.2409 77.7796 10.0814 76.982 9.92187 76.477C9.76234 75.9711 9.60281 75.1198 9.68297 74.8537L8.24644 73.9767C8.11415 72.9393 8.35305 72.7269 8.53903 72.6475C8.29935 72.0623 7.68848 72.4078 7.74139 72.993C7.75073 73.0989 7.66124 73.4981 7.52895 73.5782C7.79431 73.7113 7.87446 74.6148 7.74139 74.8008C7.92738 74.9611 8.00676 75.7859 7.84801 75.9182C8.11415 76.0521 8.11415 76.5563 8.11415 76.8225C8.11415 77.0886 7.79431 77.2754 7.47603 77.0614C5.8006 75.7587 5.48154 73.4459 5.48154 73.3393C5.48154 73.2327 5.48154 73.0996 5.34847 72.9938C5.23922 72.9055 5.11201 72.842 4.97572 72.8078C4.84343 72.7814 4.73682 72.7277 4.73682 72.5152C4.65667 71.7705 4.86989 70.734 5.26832 70.0421C5.66753 69.3511 7.26281 68.8453 8.16706 69.6429C9.07131 70.4406 10.1616 72.8343 10.2946 73.0732C10.4277 73.3121 10.6137 73.3922 10.7467 73.3922C10.879 73.3922 10.9857 73.4724 10.8526 73.5518C10.4806 73.8444 10.6666 74.8008 10.7997 75.2007C11.2518 75.2537 11.4113 75.3603 11.5172 75.4132C11.623 75.4661 11.8098 75.5455 11.8627 75.705L11.9957 76.0778C12.0759 76.2373 11.8362 76.3711 11.7561 76.2373C11.6759 76.0248 11.2775 75.8116 11.0378 75.8645C10.9849 76.3968 11.437 76.5299 11.8354 76.5836L12.3405 78.2582C12.3942 78.5244 12.3405 78.7905 12.2346 79.3477C12.128 79.9056 12.3405 80.0123 12.6868 79.9601C13.0323 79.9056 13.1389 80.1181 13.1389 80.4644C13.1389 80.8091 12.9264 81.0223 12.6066 81.0223C12.7926 81.1562 13.0323 81.2356 13.2984 81.129Z" fill="#1E1E1E"/>
<path fill-rule="evenodd" clip-rule="evenodd" d="M13.7505 69.0305C13.963 68.818 14.149 68.6048 14.5217 68.6048C14.6813 68.3122 15.1598 67.9667 15.4524 67.9402C15.612 67.6749 16.1972 67.3021 16.5427 67.3286C16.6757 67.0889 17.9255 67.036 18.1917 67.1955C18.4313 67.0624 19.4406 67.2757 19.5473 67.5947C19.8928 67.6749 20.5846 68.2328 20.9301 69.0569C21.0624 69.2958 20.797 69.376 20.664 69.2164C20.5309 69.0569 19.5465 68.6048 18.9885 68.7916C18.4306 68.9783 16.994 69.6686 15.2921 72.035C14.9995 72.4607 14.0151 72.7533 13.8291 71.8491C13.5996 70.73 13.3778 69.4561 13.7505 69.0305Z" fill="#1E1E1E"/>
</g>
<defs>
<clipPath id="clip0_90_18">
<rect width="150" height="150" fill="white"/>
</clipPath>
</defs>
</svg>
