<svg width="96" height="96" viewBox="0 0 96 96" fill="none" xmlns="http://www.w3.org/2000/svg">
<path d="M46.172 0C46.172 0 46.132 0.564 45.96 0.908C45.832 1.208 45.488 1.42 45.532 1.636C45.572 1.852 45.788 2.112 46.132 2.284C46.476 2.456 46.6 2.58 46.944 2.668C47.244 2.752 47.68 2.972 47.764 2.712C47.896 2.456 47.724 2.108 47.508 1.808C47.164 1.248 46.988 1.12 46.516 0.348C46.428 0.176 46.344 0 46.172 0ZM48.884 0C48.796 0.044 48.668 0.696 48.452 1.252C48.196 1.896 48.364 2.196 48.492 2.452C48.664 2.712 48.884 2.884 48.452 3.144C48.024 3.4 47.46 3.316 47.46 3.316C47.46 3.316 46.988 3.224 46.6 3.012C46.2012 2.83592 45.8012 2.66259 45.4 2.492C45.4 2.492 44.624 2.28 44.108 2.324C43.592 2.364 43.548 2.412 43.164 2.456C42.948 2.456 42.864 2.452 42.648 2.496C42.476 2.536 42.264 2.416 42.264 2.628C42.264 2.84 42.692 2.844 42.992 2.972C43.292 3.1 43.98 3.096 43.852 3.268C43.68 3.44 43.036 3.484 42.992 3.44C42.952 3.44 42.524 3.356 42.18 3.356C41.62 3.396 41.58 3.396 40.768 3.784C40.636 3.824 40.68 4.128 40.936 4.04C41.3277 3.9282 41.7327 3.87034 42.14 3.868C42.66 3.868 42.952 4.044 43.468 4.176C43.9 4.304 43.94 4.384 44.588 4.472C44.716 4.472 44.968 4.384 44.968 4.556C44.968 4.644 44.796 4.776 44.796 4.776C44.796 4.776 44.412 4.856 44.452 4.988C44.54 5.16 44.884 4.988 45.052 4.988C45.228 4.988 45.492 5.036 45.444 5.204L45.36 5.332C44.9638 5.43542 44.575 5.56504 44.196 5.72C43.12 6.152 42.696 6.668 41.664 7.184C40.676 7.656 39.088 8.252 39.088 8.252C39.088 8.252 38.616 8.512 37.928 8.68C37.244 8.856 37.2 8.816 36.728 8.9C36.3448 8.9221 35.9734 9.04041 35.648 9.244C35.4209 9.36178 35.2175 9.52043 35.048 9.712L34.448 10.62L34.1 11.128C34.016 11.3 33.932 11.384 33.892 11.556C33.804 11.772 33.76 11.86 33.72 12.076C33.592 12.588 33.72 12.892 33.804 13.408C33.848 13.536 33.848 13.624 33.892 13.752C33.932 13.88 34.1 14.012 34.1 14.012L34.272 14.052C34.272 14.052 34.88 14.012 35.264 13.924C35.652 13.84 36.212 13.704 36.212 13.704L36.936 13.496L37.416 13.324C37.416 13.324 37.716 13.324 37.76 13.496C37.8 13.624 37.672 13.84 37.672 13.84C37.672 13.84 37.412 13.96 37.196 14.048C36.98 14.136 36.464 14.264 36.424 14.308L35.864 14.48L35.392 14.524C35.392 14.524 35.304 14.568 35.22 14.696C35.132 14.828 35.132 14.824 35.132 14.908C35.22 14.996 35.264 15.08 35.352 15.168C35.524 15.296 35.608 15.38 35.82 15.424C36.12 15.552 36.292 15.512 36.592 15.512C36.9676 15.513 37.338 15.4238 37.672 15.252C38.016 15.036 38.144 15.04 38.616 14.868C38.7698 14.8227 38.9281 14.7945 39.088 14.784C39.904 14.696 40.368 14.824 41.188 14.956C42.004 15.084 42.396 15.344 43.212 15.472C44.072 15.6 44.584 15.856 45.484 15.644C45.916 15.556 46.176 15.34 46.392 15.768C46.604 16.156 46.564 16.368 46.564 16.368C46.564 16.368 46.56 16.632 46.26 17.448C45.956 18.264 45.016 20.284 45.016 20.284L44.368 21.572C44.368 21.572 43.848 22.6 42.648 23.932C42.2234 24.4045 41.7967 24.8752 41.368 25.344C41.368 25.344 40.724 25.82 40.08 26.636C39.436 27.452 39.428 27.752 38.828 28.356C38.44 28.74 38.228 28.956 37.756 29.26C37.284 29.56 36.724 29.472 35.22 30.5C33.932 31.404 33.244 32.14 33.156 32.096C33.072 32.056 32.64 31.704 32.468 31.616C32.34 31.536 29.852 29.86 29.852 29.86L28.82 29.172L28.344 28.868L28.26 28.696L28.008 28.352C28.008 28.352 27.62 27.88 27.148 27.496C26.6589 27.023 26.0483 26.6949 25.384 26.548C24.652 26.336 24.184 26.204 23.456 26.464C23.044 26.5991 22.6726 26.8357 22.376 27.152C21.948 27.58 21.86 27.924 21.516 28.44C21.172 28.956 20.828 29.432 20.656 29.688C20.484 29.948 20.14 30.636 20.14 30.636C20.14 30.636 19.284 32.008 18.812 32.908C18.252 33.896 18.04 34.504 17.524 35.448C16.708 36.952 15.544 38.496 15.244 39.18L14.908 39.956C14.908 39.956 14.816 40.336 14.776 40.596C14.732 40.852 14.732 41.284 14.688 41.456C14.6516 41.6278 14.5794 41.79 14.476 41.932C14.436 41.972 13.96 42.96 13.788 43.604C13.616 44.244 13.228 46.268 13.704 46.524C14.176 46.784 17.652 45.284 18.124 43.82C18.428 42.876 17.18 42.4 17.524 41.54C17.652 41.24 17.74 41.2 17.952 40.9C18.296 40.34 18.168 39.184 18.812 38.112C19.284 37.34 20.228 36.344 21.516 34.884C22.332 33.984 23.108 32.524 23.108 32.524C23.108 32.524 23.28 32.008 23.628 32.096C24.012 32.18 24.352 32.136 24.352 32.136L24.524 32.268L24.868 32.612L25.384 33.384C25.384 33.384 26.248 34.624 26.544 34.972C26.848 35.316 27.148 35.572 27.58 35.916C28.052 36.344 28.22 36.56 28.82 37.036C29.68 37.72 29.376 37.98 28.26 37.376C27.7958 37.1405 27.3077 36.9554 26.804 36.824C26.292 36.692 24.356 36.176 23.368 36.048C22.424 35.92 22.248 35.964 22.248 35.964C22.248 35.964 21.776 35.916 21.22 36.26C20.66 36.604 20.36 36.86 20.36 36.86C20.36 36.86 19.716 37.592 19.672 37.72C19.632 37.848 19.328 38.36 19.328 38.36C19.328 38.36 19.152 38.624 19.112 38.92C19.024 39.224 19.072 39.524 19.072 39.524L19.112 40.164L19.156 40.764C19.156 40.764 19.288 42.272 19.588 43.776C19.672 44.204 19.76 44.892 19.76 44.892L19.968 46.44C19.968 46.44 20.1 48.076 20.228 48.632C20.356 49.152 20.444 49.192 20.532 49.532C20.704 50.176 20.404 50.476 20.704 51.252C21.004 52.024 21.264 51.932 21.564 52.408C21.78 52.752 21.86 52.836 22.032 53.268C22.204 53.696 22.764 55.12 23.408 56.148C24.096 57.224 25 58.552 25.604 58.424C26.204 58.292 26.632 57.352 26.632 57.352C26.632 57.352 27.32 55.5 26.892 53.696C26.46 51.848 24.484 52.716 24.228 51.384C24.188 51.084 24.228 50.612 24.228 50.612C24.228 50.612 24.18 50.048 24.096 49.876C24.008 49.704 23.32 48.42 23.064 47.344C22.848 46.528 22.892 43.904 22.72 43.172C22.248 41.284 22.204 41.452 22.46 41.112C22.764 40.768 23.024 40.852 23.024 40.852L23.408 40.9L23.712 41.024L24.268 41.368C24.44 41.496 25.04 41.968 25.04 41.968L26.5 42.916C26.5 42.916 27.32 43.392 27.664 43.564C28.008 43.736 28.304 43.948 28.304 43.948L28.688 44.204L29.336 44.684L29.46 44.804L29.548 44.976C29.548 44.976 29.852 45.668 31.14 46.4C32.172 47 33.076 46.824 33.46 47.3C33.548 47.384 34.272 48.38 34.62 48.98C35.048 49.664 35.564 50.476 35.736 50.736C35.908 50.992 36.984 52.32 36.984 52.32L38.4 53.868L40.252 55.588L41.924 57.008L42.992 57.868C42.992 57.868 43.94 58.772 45.016 59.5C46.048 60.188 46.088 60.272 46.776 60.74C47.288 61.088 47.976 61.564 48.664 62.08C49.352 62.64 50.128 63.664 49.828 64.008C49.612 64.136 49.224 63.584 48.492 62.94C48.0149 62.511 47.5141 62.109 46.992 61.736C46.22 61.136 45.828 60.828 44.968 60.312C44.54 60.056 43.768 59.588 43.728 59.672C43.428 60.576 43.464 61.432 43.508 62.548C43.548 63.32 43.68 64.092 43.936 65.08C44.152 66.024 44.368 66.544 44.712 67.444C45.056 68.348 45.704 69.764 45.704 69.764L46.688 71.744L47.592 73.244L48.064 74.016L48.236 74.272C48.236 74.272 48.448 74.792 48.236 75.132C48.024 75.472 47.76 76.208 47.376 76.252C46.988 76.336 46.088 76.384 46.088 76.384L40.976 76.296L38.312 76.08C38.312 76.08 38.016 75.908 36.472 75.908C35.568 75.908 34.836 76.292 34.32 76.336C33.892 76.376 31.784 76.208 30.368 76.764C29.036 77.324 28.432 77.452 27.96 78.312C27.616 78.956 29.64 79.992 31.312 80.376C34.02 80.976 33.244 79.816 34.272 79.088C34.404 79 34.448 78.92 34.58 78.876C35.264 78.66 35.648 79.212 36.34 79.212C37.108 79.212 37.54 78.956 38.312 78.828C42.22 78.312 48.32 80.156 48.32 80.156C48.32 80.156 49.828 80.628 50.516 80.5C51.332 80.328 51.156 80.028 51.412 79.556C51.628 79.168 51.544 79.088 51.584 78.656C51.584 78.4 51.544 78.272 51.5 78.016C51.328 77.284 50.86 76.252 50.86 76.252C50.86 76.252 50.512 75.48 50.38 75.092C50.212 74.536 50.04 74.188 49.952 73.588C49.696 71.996 49.74 72.128 49.74 71.228C49.74 69.596 49.912 68.692 50.34 67.104C50.988 64.784 52.192 63.796 53.092 61.564C53.352 60.964 53.348 60.104 53.652 60.016C53.992 59.976 53.952 61.092 53.78 61.736C53.22 63.968 51.848 64.912 51.204 67.188C50.732 68.948 50.472 69.976 50.604 71.78C50.644 72.768 51.032 74.32 51.032 74.32C51.032 74.32 51.548 76.036 51.804 76.68C52.064 77.324 52.576 78.4 52.576 78.4L53.736 80.46L54.336 81.444C54.336 81.444 54.76 81.832 54.548 82.476C54.332 83.12 53.908 83.516 53.388 84.072C51.932 85.792 48.54 88.32 47.68 88.92C46.48 89.824 46.516 90.084 46.428 90.344C45.956 91.72 44.58 91.76 43.08 93.392C42.736 93.736 41.836 94.676 42.008 95.492C42.092 95.792 45.788 96.44 47.936 95.54C49.616 94.808 48.152 93.988 48.624 93.172C48.968 92.572 49.824 92.572 50.212 92.052C50.852 91.196 50.424 91.24 50.984 90.556C52.832 88.32 54.036 87.036 57.344 85.016C57.644 84.844 58.204 84.588 58.204 84.588C58.204 84.588 58.672 84.368 58.844 84.108C59.06 83.764 59.016 83.468 59.016 83.08C59.016 82.82 58.976 82.696 58.976 82.44C58.976 82.136 59.016 81.964 58.928 81.664C58.844 81.192 58.548 80.804 58.376 80.544C58.042 80.134 57.8188 79.645 57.728 79.124C57.4938 78.3327 57.5404 77.4848 57.86 76.724C58.204 75.824 58.976 75.096 58.976 75.096L60.904 73.804C60.904 73.804 62.584 72.6 63.104 72.124C63.66 71.652 64.732 70.664 65.504 69.548C66.408 68.304 66.88 67.528 67.264 66.028C67.392 65.468 67.524 64.612 67.524 64.612C67.524 64.612 67.524 64.012 67.868 63.972C68.208 63.928 68.296 64.052 68.296 64.052C68.296 64.052 68.592 64.22 68.68 65.08C68.72 65.94 68.468 66.932 68.468 66.932C68.468 66.932 68.208 67.916 68.124 68.516C68.084 68.904 68.076 69.116 68.076 69.548C68.076 70.28 68.38 70.884 68.38 70.884C68.38 70.884 68.552 71.012 68.552 70.712C68.575 70.2467 68.6488 69.7853 68.772 69.336C68.9 68.908 68.984 68.988 69.24 68.256C69.584 67.312 69.28 67.404 69.452 66.844C69.54 66.588 69.756 66.328 70.012 66.328C70.272 66.328 70.312 66.672 70.312 66.672C70.312 66.672 70.572 67.792 70.36 68.82C70.144 69.852 69.368 71.268 69.368 71.268L68.772 72.296C68.772 72.296 68.344 73.028 68.172 73.5C68 74.016 67.952 74.232 68.04 74.7C68.168 75.22 68.56 75.912 68.772 75.78C68.944 75.652 68.516 75.22 69.032 74.188C69.548 73.156 70.224 72.516 70.224 72.516C70.224 72.516 71.172 71.396 71.6 70.54C71.988 69.768 72.376 68.516 72.376 68.516C72.376 68.516 72.68 67.396 72.592 66.452C72.552 65.552 72.376 65.08 72.376 65.08L71.992 64.392L71.772 63.884L71.86 63.58C71.944 63.536 72.248 63.752 72.508 64.096C72.8213 64.4997 73.04 64.9686 73.148 65.468C73.2653 65.8585 73.3233 66.2643 73.32 66.672C73.32 67.016 73.196 68.432 73.708 69.336C73.924 69.768 74.44 70.752 74.484 70.32C74.568 69.332 74.136 68.864 74.18 67.96C74.22 66.932 74.484 67.188 74.568 66.672C74.656 66.112 74.78 65.98 74.696 65.252C74.6093 64.7135 74.4809 64.1826 74.312 63.664L74.008 62.976L73.88 62.72C73.88 62.72 73.964 62.596 74.092 62.596L75.124 62.252C75.124 62.252 76.46 61.652 76.976 61.22C77.536 60.832 78.176 60.14 78.176 60.14C78.176 60.14 79.036 59.072 79.468 58.3C80.5 56.364 80.496 53.916 80.452 52.796C80.412 51.724 80.108 50.304 80.108 50.304C80.108 50.304 79.764 48.584 79.852 47.468C79.936 46.352 80.024 45.836 80.024 45.836C80.024 45.836 79.984 44.72 80.928 43.516C81.872 42.316 82.296 41.544 82.468 40.64C82.64 39.868 82.38 38.624 82.036 39.096C81.652 39.612 81.488 40.644 80.928 41.5C80.156 42.704 79.032 44.164 78.476 44.164C78.176 44.164 78.092 43.476 78.092 43.476C78.092 43.476 77.708 42.316 78.352 40.852C78.824 39.82 79.076 39.524 79.68 38.752C80.24 38.02 80.58 37.632 80.968 36.86C81.312 36.172 81.392 36.044 81.608 34.972C81.648 34.712 81.568 34.156 81.312 34.196C80.968 34.196 80.024 36.264 79.036 37.424C78.092 38.496 76.328 39.868 76.328 39.868C76.328 39.868 76.156 39.992 76.156 39.648C76.116 39.348 76.068 38.448 76.24 37.636C76.4558 36.6151 76.8498 35.6402 77.404 34.756C78.22 33.34 79.248 32.356 79.764 31.836C79.98 31.624 80.624 31.232 80.284 31.016C79.98 30.844 79.076 31.616 78.388 32.136C77.532 32.776 77.232 32.956 76.376 33.988C75.516 35.016 75.296 35.448 75.296 35.448C75.296 35.448 74.48 36.776 74.264 38.064C74.048 39.352 74.052 40.08 74.052 40.08C74.052 40.08 74.052 41.244 74.18 41.932C74.264 42.66 74.568 43.772 74.568 43.772C74.568 43.772 75 45.024 75.168 45.8C75.344 46.572 75.64 48.844 75.64 48.844C75.64 48.844 75.856 50.48 75.724 52.024C75.596 53.572 75.468 54.472 75.296 54.944C75.124 55.42 74.656 56.664 73.88 57.524C73.152 58.34 72.976 58.468 72.976 58.468C72.976 58.468 72.204 59.108 71.56 59.452C70.91 59.8041 70.2348 60.1076 69.54 60.36C69.1855 60.4231 68.8275 60.4645 68.468 60.484H67.912L67.74 60.364L67.648 60.016C67.648 60.016 67.224 58.34 66.712 57.268C66.28 56.364 65.376 55.12 65.376 55.12C65.376 55.12 63.828 53.012 62.624 51.852C61.248 50.48 59.704 49.452 58.756 48.72C58.412 48.464 57.64 47.984 57.64 47.984C57.64 47.984 54.508 44.852 53.392 42.36C52.616 40.64 52.104 39.4 52.32 37.508C52.36 37.08 52.532 36.26 52.616 36.26L53.176 36.432C53.224 36.472 53.736 36.948 54.212 37.12C54.468 37.204 54.936 37.292 54.936 37.292C54.936 37.292 55.324 37.332 55.536 37.376C55.752 37.464 56.14 37.592 56.396 37.72C56.656 37.848 57.036 38.112 57.036 38.112L57.772 38.664L58.548 39.264C58.548 39.264 58.972 39.568 59.1 39.612C59.228 39.652 59.316 39.696 59.36 39.696H59.532C59.532 39.696 59.708 39.648 59.748 39.476C59.792 39.264 59.536 39.436 59.148 39.008C58.9085 38.8023 58.7056 38.5575 58.548 38.284C58.548 38.284 58.46 37.936 58.116 37.548C57.772 37.16 57.344 36.82 57.344 36.82C57.344 36.82 57.04 36.608 56.608 36.476C56.18 36.348 56.048 36.344 56.008 36.172C55.968 36 56.524 36.088 56.524 36.088C56.524 36.088 57.172 36.172 57.684 36.432C58.204 36.688 58.5 36.992 58.5 36.992L58.844 37.292L59.064 37.508L59.272 37.636C59.272 37.636 59.488 37.848 59.532 37.548C59.572 37.292 59.488 37.076 59.444 37.032L59.232 36.82L58.376 36.088C58.1686 35.8642 57.938 35.663 57.688 35.488C57.3405 35.2431 56.9644 35.0416 56.568 34.888C56.14 34.712 55.884 34.756 55.452 34.54C55.152 34.412 54.892 34.328 54.72 34.072C54.676 34.032 54.464 33.852 54.852 33.94C55.236 34.024 55.492 34.156 55.92 34.244C56.608 34.416 57.04 34.412 57.688 34.628C57.944 34.712 58.288 34.884 58.288 34.884L59.1 35.228C59.1 35.228 60.22 35.832 60.992 35.876C61.5642 35.9203 62.139 35.8327 62.672 35.62C62.9839 35.4922 63.274 35.3168 63.532 35.1C63.6109 35.0229 63.6807 34.937 63.74 34.844L63.828 34.628V34.456C63.612 34.196 63.188 34.888 62.5 35.016C61.768 35.148 61.808 35.228 61.336 35.144C60.8766 35.0959 60.4502 34.8827 60.136 34.544C59.444 33.896 59.192 33.296 58.288 32.908C57.904 32.736 57.208 32.564 57.208 32.564C57.208 32.564 56.264 32.264 55.748 31.964C55.364 31.748 54.556 31.62 54.812 31.276C54.94 31.104 55.972 31.704 56.74 31.792C57.3 31.876 57.688 31.836 58.116 31.836C58.544 31.836 59.148 31.704 59.236 31.704C59.32 31.664 59.66 31.704 59.96 31.792C60.26 31.876 60.432 32.004 60.732 32.136C61.036 32.264 61.384 32.48 61.468 32.48L61.64 32.524L61.728 32.44L61.768 32.352L61.728 32.268L61.592 32.18L61.336 32.008C61.336 32.008 60.952 31.792 60.608 31.448C60.264 31.104 59.96 30.72 59.448 30.548C58.928 30.376 58.328 30.292 58.328 30.292L57.728 30.244L57.468 30.204C57.468 30.204 57.04 30.072 57.384 29.988C57.5799 29.9281 57.7807 29.8853 57.984 29.86C58.3127 29.7889 58.6541 29.8026 58.976 29.9C59.32 30.028 59.88 30.328 59.92 30.328C59.964 30.372 60.48 30.764 61.04 30.892C61.6 31.02 62.328 31.064 62.328 31.064L62.672 30.98L62.844 30.932L62.968 30.844L62.928 30.636C62.928 30.636 62.928 30.46 62.672 30.416C62.2229 30.3638 61.7932 30.2032 61.42 29.948C60.948 29.604 60.608 29.26 60.608 29.26C60.608 29.26 60.264 28.956 59.576 28.78C58.936 28.612 58.72 28.612 58.72 28.612L58.5 28.524L58.032 28.316C58.032 28.316 57.812 28.184 57.64 27.972C57.468 27.756 57.216 27.364 57.944 27.58C58.676 27.796 58.844 27.924 58.844 27.924C58.844 27.924 59.232 28.312 59.576 28.352C59.792 28.396 59.964 28.44 60.096 28.268C60.308 28.052 59.704 27.796 59.272 27.492C58.9983 27.278 58.7652 27.0165 58.584 26.72C58.584 26.72 58.332 26.508 58.72 26.596C59.104 26.68 59.788 27.112 59.788 27.112C59.788 27.112 60.132 27.28 60.308 27.324C60.432 27.364 60.78 27.58 60.952 27.664C61.08 27.708 61.472 27.796 61.724 27.924C62.068 28.14 62.244 28.484 62.412 28.612C62.584 28.74 62.716 28.96 62.932 29C63.144 29.044 63.184 29.128 63.312 29.04C63.3719 29.0023 63.4294 28.9609 63.484 28.916C63.484 28.916 63.524 28.824 63.312 28.696C63.1 28.568 62.844 28.228 62.844 28.228L62.756 28.056L62.712 27.884L62.5 27.54L62.108 26.98C62.108 26.98 61.508 26.164 60.952 25.86C60.436 25.56 60.048 25.392 60.048 25.392C60.048 25.392 59.792 25.268 59.664 25.18C59.448 25.008 59.36 24.872 59.184 24.66C58.972 24.4 58.892 24.236 58.632 23.98C58.16 23.508 56.7 23.244 57.256 22.9C57.56 22.728 57.944 22.82 58.116 22.86C58.288 22.904 58.676 23.068 59.064 23.196C59.32 23.284 59.492 23.292 59.748 23.376C60.008 23.464 60.308 23.5 60.436 23.588C60.564 23.672 60.696 23.848 60.78 23.892C60.824 23.932 61.164 24.492 61.764 24.792C62.364 25.092 62.672 25.304 63.272 25.344C63.744 25.388 64.512 25.224 64.512 25.224C64.512 25.224 64.732 25.132 64.56 24.916C64.348 24.7 64.344 24.66 64.172 24.62C63.484 24.36 62.932 24.448 62.412 23.932C62.2 23.716 62.108 23.672 61.936 23.332C61.764 22.988 61.856 22.904 61.728 22.692C61.64 22.476 61.42 22.172 61.42 22.172C61.42 22.172 60.78 21.396 60.092 21.012C59.6186 20.7714 59.171 20.4833 58.756 20.152C58.628 20.064 58.376 19.72 58.376 19.72L58.156 19.376L58.032 19.12C57.944 18.648 58.8 19.252 59.272 19.424C60.048 19.68 60.436 20.024 61.212 20.284C61.64 20.412 61.9 20.408 62.328 20.58C63.056 20.88 63.272 21.612 64.048 21.7C64.476 21.74 65.336 21.912 65.164 21.524C64.992 21.096 64.132 21.096 63.704 20.58C63.488 20.364 63.488 20.156 63.272 19.94C62.928 19.508 62.112 19.12 62.112 19.12C62.112 19.12 61.856 18.908 61.552 18.308C61.296 17.708 60.652 17.268 59.492 16.712C58.72 16.328 57.172 16.24 57.772 15.852C58.116 15.596 58.416 15.64 58.892 15.768C59.364 15.94 59.532 16.16 59.92 16.328C60.308 16.504 60.48 16.544 60.56 16.588C60.648 16.628 60.948 16.76 61.08 16.76C61.16 16.8 61.812 16.888 61.984 16.932L62.844 17.144L63.532 17.4C63.532 17.4 63.872 17.532 64.084 17.532C64.296 17.532 64.648 17.448 64.648 17.448L64.904 17.276L64.944 17.188C64.944 17.188 65.076 16.976 64.732 16.932C64.5626 16.9049 64.3915 16.8888 64.22 16.884L63.912 16.8L63.792 16.76C63.792 16.76 63.188 16.288 62.672 16.072C62.4545 15.9906 62.2385 15.9052 62.024 15.816L61.812 15.768L61.556 15.728C61.556 15.728 61.336 15.728 60.992 15.424C60.648 15.124 60.52 14.952 60.22 14.652L59.836 14.268C59.836 14.268 59.492 14.004 59.492 13.788C59.532 13.448 60.264 14.18 60.264 14.18L60.784 14.524C60.784 14.524 61.212 14.828 61.984 14.868C62.756 14.912 63.704 14.652 63.704 14.652C63.704 14.652 63.828 14.572 64.256 14.696C64.684 14.82 65.032 15.08 65.032 15.08L65.376 15.384L65.892 15.94L65.976 15.9C66.016 15.86 66.236 15.64 65.852 15.168C65.464 14.692 64.82 14.268 64.82 14.268C64.82 14.268 63.96 13.752 63.1 13.58C62.244 13.408 61.852 13.408 61.852 13.408C61.852 13.408 61.208 13.408 60.82 12.98C60.432 12.548 60.18 12.12 60.18 12.12L60.048 11.52C60.048 11.52 59.836 11.26 59.408 11.088C59.02 10.916 58.584 10.66 58.584 10.66C58.584 10.66 57.944 10.444 57.896 10.14C57.768 9.584 58.976 10.14 59.616 10.268C60.216 10.396 60.476 10.616 61.076 10.748C61.5229 10.875 61.9899 10.9157 62.452 10.868C62.752 10.868 62.924 10.836 63.224 10.788C63.528 10.788 63.744 10.748 64.048 10.788C64.476 10.876 64.648 11.088 65.076 11.26C65.336 11.388 65.464 11.512 65.764 11.556C66.024 11.6 66.54 11.776 66.452 11.516L66.32 11.344C66.104 11.044 65.852 11.044 65.592 10.832C65.032 10.4 64.776 10.06 64.132 9.76C63.7696 9.56629 63.3776 9.43384 62.972 9.368C62.624 9.328 62.368 9.416 62.024 9.328C61.636 9.2 61.512 9.028 61.124 8.816C60.524 8.472 60.176 8.168 59.532 7.908C59.1522 7.77145 58.7649 7.6566 58.372 7.564L58.068 7.524L57.948 7.48C57.344 7.264 59.016 6.796 59.788 6.58C60.176 6.496 60.348 6.404 60.732 6.448C61.076 6.488 61.464 6.968 61.852 6.752C62.412 6.452 61.208 5.632 60.82 5.504C60.304 5.288 59.404 5.464 59.404 5.464L57.428 5.416L56.868 5.332C56.868 5.332 56.524 5.332 56.268 5.032C56.008 4.732 55.024 3.524 53.908 3.352C52.748 3.18 52.404 3.352 52.32 3.272C51.332 1.72 50.296 1.38 49.52 0.652C49.308 0.436 48.968 -0.04 48.88 0.004L48.884 0ZM53.576 4.56C53.644 4.55673 53.712 4.55673 53.78 4.56L53.992 4.692C54.168 4.866 54.3128 5.06896 54.42 5.292C54.464 5.464 53.908 5.252 53.696 5.204C53.4779 5.14314 53.2741 5.03983 53.096 4.9C53.096 4.9 53.004 4.772 53.216 4.644C53.3273 4.58646 53.4507 4.5603 53.576 4.56ZM54.584 6.68C54.688 6.68 54.764 6.704 54.764 6.704L54.976 6.84C55.1521 7.0139 55.2969 7.21688 55.404 7.44C55.448 7.612 54.892 7.4 54.68 7.352C54.4619 7.29114 54.2581 7.18783 54.08 7.048C54.08 7.048 53.992 6.92 54.252 6.792C54.3474 6.71968 54.4643 6.68163 54.584 6.684V6.68ZM47.056 6.736C47.1629 6.73056 47.2701 6.73592 47.376 6.752C47.376 6.752 47.548 6.752 47.804 6.876C48.064 7.048 48.236 7.564 48.236 7.564C48.236 7.564 48.276 7.652 48.064 7.652C47.932 7.652 47.932 7.44 47.804 7.352C47.632 7.224 47.504 7.18 47.288 7.096C47.076 7.012 46.776 7.136 46.736 6.924C46.736 6.796 46.896 6.748 47.056 6.736ZM43.68 7.236C43.848 7.188 43.68 7.524 43.68 7.524C43.68 7.524 43.124 8.424 42.352 8.768C41.58 9.112 41.064 9.288 39.6 9.416C39.388 9.416 39.48 9.284 39.48 9.284C39.48 9.284 41.148 8.816 42.096 8.3C42.5482 8.0491 42.979 7.76146 43.384 7.44C43.4699 7.35611 43.5701 7.28436 43.68 7.236ZM46.688 7.476C46.688 7.476 46.948 7.484 47.248 7.696C47.552 7.912 47.808 8.644 47.808 8.644C47.808 8.644 47.896 9.112 47.68 9.284C47.464 9.456 47.12 9.16 46.944 8.9C46.7908 8.68328 46.5628 8.53085 46.304 8.472C45.96 8.344 45.444 8.728 45.36 8.472C45.36 8.384 45.4 8.168 45.4 8.168C45.4 8.168 45.488 7.912 45.876 7.7C46.22 7.484 46.688 7.48 46.688 7.48V7.476ZM54.68 9.136C54.852 9.152 55.092 9.284 55.28 9.284C55.84 9.284 56.308 9.284 56.696 9.368C57.04 9.456 57.124 9.668 56.952 9.668C56.8269 9.70143 56.6975 9.71625 56.568 9.712C56.184 9.712 56.224 9.54 55.712 9.8C55.192 10.056 55.58 9.932 54.852 10.188C54.164 10.448 54.332 9.76 54.332 9.76C54.332 9.76 54.384 9.628 54.468 9.28C54.5 9.156 54.576 9.124 54.68 9.136ZM35.304 11.128C35.564 11.128 36.04 11.304 36.04 11.688C36.08 12.076 35.776 11.904 35.56 12.032C35.436 12.12 35.352 12.164 35.18 12.292C34.964 12.464 34.748 12.892 34.62 12.76C34.444 12.632 34.532 12.16 34.532 12.16C34.532 12.16 34.664 11.816 34.836 11.472C35.052 11.128 35.304 11.128 35.304 11.128ZM55.852 11.572C55.9197 11.5752 55.9867 11.5859 56.052 11.604C56.052 11.604 56.18 11.644 56.264 11.728C56.352 11.816 56.696 12.12 56.696 12.288C56.696 12.42 56.14 12.2 55.884 12.16C55.624 12.116 55.284 11.86 55.284 11.86C55.284 11.86 55.196 11.78 55.452 11.652C55.5767 11.5929 55.7141 11.5654 55.852 11.572ZM48.272 11.924C48.312 11.924 48.308 11.984 48.232 12.12C48.064 12.464 47.548 12.892 47.548 12.892C47.548 12.892 46.948 13.748 46.82 13.876C46.26 14.308 45.572 14.052 45.272 14.096C45.016 14.136 45.188 13.876 45.188 13.876C45.188 13.876 45.92 13.58 46.388 13.324C47.02 13.008 48.096 11.924 48.272 11.924ZM39.44 12.68C39.532 12.68 39.604 12.72 39.604 12.852C39.648 13.152 39.092 13.364 39.092 13.364C39.092 13.364 38.924 13.408 38.88 13.108C38.84 12.808 39.092 12.764 39.092 12.764C39.092 12.764 39.292 12.668 39.44 12.68ZM50.08 13.148C50.152 13.108 50.092 13.536 50.092 13.536C50.092 13.536 49.96 14.1 49.66 14.272C49.276 14.488 48.324 14.744 48.24 14.616C48.24 14.528 49.484 14.136 50.04 13.196C50.0494 13.1771 50.0631 13.1607 50.08 13.148ZM55.896 13.304C55.966 13.3044 56.0358 13.3124 56.104 13.328C56.104 13.328 56.224 13.368 56.356 13.448C56.484 13.58 56.788 13.928 56.832 14.1C56.872 14.272 56.272 14.06 55.972 14.016C55.716 13.972 55.324 13.672 55.324 13.672C55.324 13.672 55.244 13.54 55.504 13.412C55.6211 13.338 55.7575 13.3004 55.896 13.304ZM50.692 14.28C50.772 14.256 50.644 14.616 50.644 14.616C50.644 14.616 50.472 15.176 50.128 15.304C49.7 15.432 48.072 15.472 48.028 15.344C47.988 15.212 49.916 15.04 50.644 14.312C50.6567 14.297 50.6733 14.2859 50.692 14.28ZM56.028 15.02C56.1086 15.0199 56.189 15.028 56.268 15.044C56.268 15.044 56.4 15.084 56.528 15.172C56.656 15.3 57 15.692 57.044 15.904C57.084 16.164 56.444 15.904 56.144 15.82C55.8753 15.7389 55.6253 15.6057 55.408 15.428C55.408 15.428 55.324 15.304 55.58 15.132C55.7157 15.0529 55.8711 15.0141 56.028 15.02ZM56.028 17.168C56.1086 17.1679 56.189 17.176 56.268 17.192C56.268 17.192 56.4 17.232 56.528 17.32C56.656 17.448 57 17.84 57.044 18.052C57.084 18.268 56.444 18.008 56.144 17.92C55.8756 17.8422 55.6253 17.7117 55.408 17.536C55.408 17.536 55.324 17.452 55.58 17.28C55.7161 17.2023 55.8715 17.1649 56.028 17.172V17.168ZM49.756 19.224C50.088 19.32 49.784 21.74 49.144 22.864C48.3195 24.2439 47.3221 25.5129 46.176 26.64C45.576 27.068 45.964 26.296 45.964 26.296C45.964 26.296 47.636 23.98 48.412 22.348C48.972 21.188 49.316 19.644 49.572 19.34C49.652 19.252 49.708 19.212 49.756 19.224ZM55.956 19.256C56.0492 19.259 56.1418 19.2725 56.232 19.296C56.232 19.296 56.4 19.336 56.528 19.468C56.656 19.596 57.088 20.072 57.128 20.288C57.128 20.544 56.4 20.196 56.06 20.156C55.7615 20.072 55.4845 19.9246 55.248 19.724C55.248 19.724 55.156 19.552 55.456 19.38C55.6051 19.2863 55.7804 19.2428 55.956 19.256ZM55.684 21.336C55.7645 21.3346 55.8449 21.3413 55.924 21.356C55.924 21.356 56.056 21.404 56.184 21.492C56.312 21.62 56.656 22.004 56.7 22.216C56.74 22.432 56.1 22.176 55.8 22.132C55.5344 22.0532 55.287 21.9227 55.072 21.748C55.072 21.748 54.992 21.616 55.244 21.444C55.3773 21.3666 55.53 21.3291 55.684 21.336ZM55.56 23.2C55.624 23.1968 55.688 23.1968 55.752 23.2L55.972 23.332C56.1493 23.5058 56.2954 23.7087 56.404 23.932C56.404 24.108 55.884 23.892 55.628 23.852C55.372 23.808 55.028 23.552 55.028 23.552C55.028 23.552 54.94 23.424 55.2 23.296C55.3108 23.2361 55.4341 23.2032 55.56 23.2ZM55.324 25.028C55.3845 25.0317 55.4447 25.0397 55.504 25.052L55.676 25.14C55.76 25.224 56.012 25.48 56.012 25.608C56.012 25.78 55.544 25.568 55.372 25.568C55.1998 25.5165 55.0403 25.4293 54.904 25.312C54.904 25.312 54.856 25.22 55.024 25.092C55.112 25.028 55.224 25.024 55.324 25.028ZM54.964 26.716C55.0135 26.7157 55.0629 26.7184 55.112 26.724L55.284 26.812C55.372 26.896 55.58 27.112 55.58 27.24C55.54 27.328 55.152 27.156 54.98 27.156C54.829 27.1036 54.6852 27.0324 54.552 26.944C54.552 26.944 54.512 26.856 54.684 26.772C54.7721 26.7331 54.8677 26.714 54.964 26.716ZM24.528 27.544C25 27.632 25.088 27.672 25.044 27.888C25.084 28.104 24.488 28.1 24.488 28.1C24.488 28.1 23.624 28.276 23.756 27.976C23.928 27.672 24.528 27.544 24.528 27.544ZM54.572 28.044C54.66 28.044 54.732 28.06 54.732 28.06L54.904 28.148C54.988 28.232 55.2 28.448 55.2 28.576C55.156 28.704 54.768 28.536 54.6 28.492C54.424 28.448 54.168 28.272 54.168 28.272C54.168 28.272 54.128 28.184 54.3 28.1C54.3853 28.0611 54.4783 28.042 54.572 28.044ZM54.092 29.552C54.1321 29.5519 54.1722 29.5546 54.212 29.56L54.34 29.648C54.38 29.688 54.596 29.904 54.596 29.992C54.596 30.12 54.292 29.992 54.12 29.952C53.992 29.912 53.784 29.78 53.784 29.78C53.784 29.78 53.744 29.692 53.872 29.608C53.9372 29.5692 54.0162 29.5498 54.092 29.552ZM41.848 30.032C42.0913 30.0319 42.3345 30.0466 42.576 30.076C43.776 30.248 44.936 31.324 44.76 31.452C44.588 31.58 44.332 31.452 44.244 31.452L43.816 31.24L43.168 31.068C43.168 31.068 42.008 30.808 41.152 30.848C40.292 30.892 39.52 31.192 39.52 31.192C39.52 31.192 39.176 31.368 39.092 31.152C39.048 30.896 39.224 30.764 39.224 30.764L39.264 30.676C39.264 30.676 40.248 30.024 41.848 30.032ZM21.396 30.544C21.424 30.544 21.436 30.552 21.436 30.552L21.52 30.64C21.48 30.64 21.648 31.068 21.264 31.496C20.876 31.928 19.676 34.204 19.42 33.816C19.16 33.516 20.58 31.364 20.88 30.936C21.104 30.58 21.308 30.544 21.396 30.544ZM53.596 31.012C53.656 31.012 53.7 31.02 53.7 31.02L53.824 31.068L54.044 31.364C54 31.492 53.74 31.408 53.612 31.364C53.484 31.364 53.308 31.192 53.308 31.192C53.308 31.192 53.268 31.152 53.396 31.072C53.4557 31.0335 53.525 31.0127 53.596 31.012ZM26.464 32.224C26.532 32.2 26.58 32.256 26.636 32.272L26.848 32.356L26.98 32.484L27.412 32.912C27.584 33.168 28.052 34.032 27.964 34.112C27.58 34.5 27.452 33.984 26.896 33.34C26.336 32.74 26.464 32.224 26.464 32.224ZM52.996 32.424C53.0302 32.4252 53.064 32.432 53.096 32.444L53.224 32.484L53.44 32.788C53.44 32.872 53.18 32.74 53.052 32.74C52.92 32.74 52.752 32.568 52.752 32.568C52.752 32.568 52.664 32.528 52.792 32.484C52.8532 32.4462 52.924 32.4268 52.996 32.428V32.424ZM33.6 33.988C33.74 34 33.548 34.248 33.548 34.248C33.548 34.248 32.812 35.232 32.384 35.836C31.824 36.648 31.136 37.892 31.008 37.764C30.88 37.636 31.612 36.268 32 35.536C32.428 34.636 33.072 34.164 33.328 34.076C33.4119 34.0295 33.5045 34.0008 33.6 33.992V33.988ZM21.392 37.208L21.476 37.296C21.476 37.296 21.52 37.464 21.22 37.936C20.92 38.408 20.7 38.412 20.7 38.412C20.7 38.372 20.62 38.2 20.876 37.684C21.132 37.168 21.392 37.208 21.392 37.208ZM16.124 38.888C16.1489 38.8946 16.1712 38.9085 16.188 38.928C16.316 39.1 15.932 39.872 15.932 39.872C15.932 39.872 15.544 40.684 15.412 40.34C15.284 40.04 15.548 39.484 15.548 39.484C15.848 39.22 15.98 38.86 16.124 38.888ZM50.384 39.996C50.768 40.04 50.728 40.772 50.728 40.944C50.856 42.188 51.376 43.44 52.32 44.944C53.652 47.048 55.8 48.68 55.712 48.812C55.496 49.024 53.352 47.348 52.576 46.404C51.288 44.856 50.336 43.18 50.04 41.076C49.952 40.604 49.952 39.912 50.384 39.996ZM25.088 40.596C25.172 40.596 25.556 40.732 25.556 40.732L26.5 41.116C26.54 41.116 27.02 41.332 27.408 41.544L28.344 42.144L28.608 42.364C28.608 42.452 28.908 42.924 28.304 42.796C27.704 42.664 26.416 41.676 25.9 41.42C25.38 41.164 24.528 41.076 24.916 40.732C24.956 40.692 25 40.596 25.088 40.596ZM20.528 42.968C20.5571 42.9624 20.5869 42.9624 20.616 42.968C20.876 42.968 20.876 43.176 20.876 43.176V43.308C20.876 43.308 20.872 44.084 20.916 44.684C20.916 44.856 21.392 46.788 21.392 46.788C21.392 46.788 21.476 46.96 21.304 46.96C21.176 46.96 21.048 46.7 21.048 46.7C21.048 46.7 20.7 46.188 20.568 45.804C20.444 45.46 20.4 44.896 20.4 44.896C20.4 44.896 20.312 44.168 20.312 43.912C20.356 43.568 20.356 43.264 20.4 43.092C20.4059 43.0613 20.4208 43.033 20.4429 43.0109C20.465 42.9888 20.4973 42.9739 20.528 42.968ZM14.568 43.996C14.6074 43.9858 14.6487 43.9858 14.688 43.996C14.944 44.04 14.812 44.508 14.812 44.724C14.812 44.94 14.564 45.324 14.476 45.324C14.392 45.324 14.216 44.94 14.26 44.724C14.3 44.536 14.328 44.056 14.568 43.996ZM36.336 47.568C36.824 47.528 38.236 49.556 40.288 51.768C42.608 54.264 45.312 56.628 45.4 56.928C45.572 57.444 43.508 55.808 42.392 54.952C39.428 52.672 35.82 48.036 36.252 47.608C36.2748 47.5857 36.3043 47.5717 36.336 47.568ZM77.428 49.66C77.508 49.652 77.576 49.756 77.576 49.756L77.664 49.88C77.664 49.968 78.176 51.984 78.132 53.272C78.044 55.072 77.964 56.364 76.892 57.74C75.6 59.416 73.364 61.14 73.836 59.764C74.136 58.948 76.116 57.916 76.888 55.64C77.32 54.264 77.408 52.972 77.408 52.972L77.32 50.356C77.32 50.356 77.272 50.144 77.272 49.84C77.32 49.712 77.376 49.668 77.428 49.66ZM55.516 54.14C55.916 54.184 56.096 54.436 55.624 54.78C55.064 55.164 54.852 55.12 54.504 55.504C54.12 55.976 53.996 57.572 53.608 56.928C53.224 56.284 53.48 55.38 54.128 54.692C54.3003 54.498 54.5155 54.3467 54.7564 54.2502C54.9973 54.1537 55.2574 54.1186 55.516 54.14ZM24.32 55.896C24.484 55.864 24.916 56.192 24.916 56.192C25.128 56.232 25.344 56.624 25.344 56.624C25.344 56.624 25.432 56.928 25.172 57.012C24.916 57.14 24.744 56.88 24.744 56.88C24.744 56.88 24.184 56.108 24.264 55.936C24.2695 55.9254 24.2775 55.9162 24.2872 55.9093C24.2969 55.9023 24.3082 55.8978 24.32 55.896ZM65.548 61.996C65.632 61.996 65.808 62.084 66.024 62.516C66.24 62.948 65.68 65.988 64.992 65.556C64.604 65.3 65.204 64.532 65.204 63.888C65.204 63.372 65.116 62.98 65.116 62.552C65.116 62.124 65.548 61.996 65.548 61.996ZM52.8 67.296C52.952 67.312 52.992 67.528 52.784 67.96C52.484 68.604 52.4 68.82 52.356 69.424C52.268 70.064 52.66 71.864 52.06 71.184C51.844 70.88 51.628 69.464 51.8 68.776C51.988 67.808 52.544 67.276 52.8 67.296ZM49.52 75.768C49.664 75.748 49.736 75.82 49.736 75.82C49.824 75.992 49.648 76.168 49.604 76.212C49.4421 76.296 49.268 76.3541 49.088 76.384C48.832 76.424 48.968 76.212 48.968 76.212C48.968 76.212 49.132 75.948 49.348 75.82C49.402 75.7931 49.4602 75.7755 49.52 75.768ZM38.012 76.68C38.356 76.68 38.356 76.852 38.356 76.852C38.356 76.98 38.224 77.028 37.876 76.984C37.58 76.944 37.54 76.856 37.584 76.812C37.584 76.772 37.668 76.68 38.012 76.68ZM40.62 76.804C40.6522 76.8005 40.6848 76.8032 40.716 76.812C40.716 76.812 42.176 77.068 43.12 77.108C43.808 77.152 44.152 77.2 44.84 77.156C45.228 77.156 45.012 77.108 45.612 77.108C45.828 77.068 45.7 77.372 45.528 77.416C44.884 77.588 44.624 77.496 44.068 77.54C43.592 77.58 43.376 77.624 42.904 77.624C42.088 77.624 42.008 77.672 40.848 77.328C40.632 77.244 40.368 76.984 40.456 76.9C40.4744 76.8728 40.4987 76.85 40.5271 76.8334C40.5555 76.8168 40.5872 76.8067 40.62 76.804ZM30.88 77.064C31.384 77.076 31.224 77.244 31.224 77.244C31.224 77.244 31.22 77.412 30.92 77.624C30.616 77.84 30.492 77.712 30.448 77.712C30.408 77.712 30.104 77.54 30.104 77.368C30.148 77.196 30.624 77.072 30.624 77.072C30.7091 77.0637 30.7946 77.0611 30.88 77.064ZM57.924 82.984C57.9589 82.9833 57.9937 82.9859 58.028 82.992L58.112 83.164C58.112 83.204 57.768 83.684 57.596 83.684C57.384 83.636 57.464 83.384 57.464 83.384C57.464 83.384 57.38 83.124 57.636 83.04C57.7284 83.0062 57.8256 82.9873 57.924 82.984ZM54.716 84.256C54.748 84.256 54.788 84.26 54.808 84.28V84.452C54.848 84.584 53.728 85.832 52.956 86.564C52.228 87.252 50.98 88.196 50.98 88.196H50.808V87.976L50.856 87.892L50.94 87.764L51.028 87.632L51.112 87.512L51.372 87.204L51.972 86.648L52.572 86.088L53.52 85.14C53.52 85.14 53.86 84.76 53.988 84.672C54.116 84.588 54.204 84.5 54.332 84.416C54.46 84.352 54.612 84.264 54.716 84.256ZM48.504 89.428C48.5394 89.4228 48.5755 89.4252 48.6099 89.4348C48.6444 89.4445 48.6764 89.4612 48.704 89.484C48.836 89.784 48.624 89.868 48.624 89.868L48.232 90.172C48.188 90.172 47.932 90.388 47.848 90.256C47.76 90.128 47.888 89.956 47.888 89.912C47.888 89.872 48.148 89.572 48.364 89.484C48.4064 89.456 48.454 89.4369 48.504 89.428ZM44.316 93.404C44.492 93.384 44.62 93.648 44.62 93.648C44.62 93.648 44.708 93.772 44.708 93.944C44.708 94.076 44.32 94.032 44.108 94.204C43.848 94.376 44.368 94.896 43.548 94.852C43.08 94.812 43.336 94.38 43.38 94.336L43.676 93.908C43.892 93.604 44.024 93.56 44.236 93.428C44.2605 93.414 44.2879 93.4058 44.316 93.404Z" fill="#CFCFCF"/>
</svg>
