<svg width="172" height="158" viewBox="0 0 172 158" fill="none" xmlns="http://www.w3.org/2000/svg">
<g clip-path="url(#clip0_65_33)">
<path d="M84.8417 51.7619C87.3031 51.7619 92.9135 52.816 105.944 57.7596C111.917 60.1223 117.418 62.3397 119.626 63.3938C119.12 67.8285 117.925 76.8795 115.464 86.1487C111.808 99.9979 103.628 119.736 84.8779 135.584C66.1282 119.627 57.9117 99.8889 54.292 86.0397C51.8307 76.7705 50.6362 67.7194 50.1295 63.2848C52.3374 62.2306 57.8031 60.0133 63.8117 57.6506C76.77 52.7797 82.3804 51.7619 84.8417 51.7619ZM84.8417 50.0535C81.0773 50.0535 73.7657 52.1617 63.2325 56.0512C57.1154 58.4139 51.5049 60.7403 49.4417 61.6854L48.2834 62.1943L48.4282 63.3575C48.935 67.9375 50.238 76.9522 52.7356 86.3668C56.3914 100.361 64.7166 120.499 83.8644 136.566L84.9141 137.474L85.9638 136.566C105.112 120.499 113.437 100.361 117.093 86.3668C119.554 76.9522 120.748 67.9375 121.255 63.3575L121.4 62.1943L120.242 61.6854C118.142 60.7766 112.568 58.4139 106.451 56.0512C95.9178 52.1254 88.6061 50.0535 84.8417 50.0535Z" fill="#CFCFCF"/>
<path d="M52.3012 64.5571C52.5546 66.2656 52.808 68.4829 53.2061 70.9547L64.0288 67.9376L52.3012 64.5571ZM84.8417 108.904L99.0307 103.16L84.8417 97.2719L70.6527 103.16L84.8417 108.904Z" fill="#CFCFCF"/>
<path d="M84.8417 73.7172L105.401 67.8286L116.333 70.9547C116.731 68.4829 116.984 66.2656 117.237 64.5571L105.401 67.8286L84.8417 61.9399L64.1374 67.8286L84.8417 73.7172ZM56.862 87.5665C57.5135 89.6748 58.165 92.0011 59.0699 94.3639L67.7933 91.3468L84.9865 97.2355L102.035 91.3468L110.758 94.3639C111.663 92.0011 112.315 89.7838 112.966 87.7119L102.035 91.3832L84.8417 85.4945L67.7933 91.3832L56.862 87.5665ZM84.8417 120.645L95.5196 114.756L84.8417 108.867L74.3086 114.756L84.8417 120.645Z" fill="#CFCFCF"/>
<path d="M84.8417 61.9398L99.4289 57.3597C93.1669 55.2514 87.7012 53.5793 84.8417 53.5793C81.9822 53.5793 76.5166 55.1424 70.2546 57.3597L84.8417 61.9398ZM54.1111 75.9344C54.5092 78.1517 55.016 80.3691 55.5589 82.7318L65.9835 79.6057L84.8779 85.4944L103.736 79.6057L114.016 82.8772C114.523 80.5145 115.066 78.1881 115.464 76.0798L103.736 79.6057L84.8417 73.7171L65.9473 79.6057L54.1111 75.9344ZM63.9927 105.741L70.6166 102.979L60.8436 98.9074C61.7847 101.161 62.8344 103.524 63.9927 105.741ZM108.804 98.9438L99.0307 103.015L105.655 105.778C106.849 103.524 107.899 101.161 108.804 98.9438ZM102.144 112.03L95.5196 114.792L99.2841 116.61C100.08 115.156 101.383 113.447 102.144 112.03ZM67.5399 112.03L74.1638 114.792L70.3994 116.61C69.6031 115.156 68.4448 113.447 67.5399 112.03ZM84.335 132.022L84.8417 132.276L85.3485 132.022C87.9546 129.659 90.3074 127.333 92.5154 124.825L84.8417 120.499L77.0233 124.825C79.2313 127.333 81.7288 129.805 84.335 132.022Z" fill="#CFCFCF"/>
<path d="M77.6749 42.711L76.5166 43.8742C77.5663 44.9283 78.9779 45.4372 80.281 45.4372C81.5841 45.4372 82.8871 44.9283 83.9368 43.9832V47.1093H85.638V43.9832C86.6877 45.0374 87.9908 45.4372 89.2939 45.4372C90.5969 45.4372 92.0448 44.9283 93.0583 43.8742L92.0086 42.711C90.5607 44.165 88.2442 44.165 86.7963 42.711C85.3485 41.257 85.3485 38.9306 86.7963 37.4767C88.2442 36.0227 90.5607 36.0227 92.0086 37.4767L93.1669 36.3135C91.0675 34.2052 87.846 34.2052 85.7466 36.1681V33.042H84.0454V36.1681C81.946 34.2052 78.7246 34.2052 76.6252 36.3135L77.7834 37.4767C79.2313 36.0227 81.5479 36.0227 82.9957 37.4767C84.4436 38.9306 84.4436 41.257 82.9957 42.711C81.4393 44.165 79.1227 44.165 77.6749 42.711Z" fill="#CFCFCF"/>
<path d="M84.9865 143.654H84.5883L84.4436 143.509C83.6472 143 82.8871 142.345 82.8871 142.345C61.1331 125.225 51.7583 103.124 47.7405 87.6754C42.673 68.192 42.673 53.543 42.673 53.434C42.673 52.5252 42.673 52.1254 42.673 52.1254V51.8709L42.8178 51.7255C42.8178 51.7255 46.5822 48.4541 48.0301 47.2909C64.8252 33.2963 83.7196 26.3535 83.8282 26.3535L84.8779 25.9536L85.9276 26.3535C86.0724 26.3535 104.931 33.2963 121.726 47.2909C123.174 48.4541 126.793 51.7255 126.793 51.7255L126.938 51.8709V52.1254C126.938 52.1254 126.938 52.5252 126.938 53.434C126.938 53.5794 126.938 68.192 121.871 87.6754C117.961 103.088 108.586 125.188 86.8325 142.345C86.8325 142.345 86.0362 143 85.2761 143.509L84.9865 143.654ZM43.9399 52.4162C43.9399 52.5616 43.9399 52.9251 43.9399 53.4703C43.9399 53.6157 43.9399 68.1193 49.0074 87.3482C52.9166 102.761 62.1466 124.498 83.6472 141.473C83.6472 141.473 84.154 141.873 84.8055 142.382C85.4571 141.982 85.9638 141.473 85.9638 141.473C107.464 124.461 116.694 102.761 120.712 87.4573C125.671 68.1193 125.78 53.5794 125.78 53.4703C125.78 52.9614 125.78 52.6706 125.78 52.4162C124.983 51.7619 122.015 49.1447 120.821 48.0906C104.279 34.4958 85.5294 27.553 85.4209 27.553L84.7693 27.2986L84.1178 27.553C83.973 27.553 65.2233 34.4958 48.7178 48.1996C47.5957 49.1447 44.7362 51.7619 43.9399 52.4162Z" fill="#CFCFCF"/>
</g>
<defs>
<clipPath id="clip0_65_33">
<rect width="236" height="158" fill="white" transform="translate(-32)"/>
</clipPath>
</defs>
</svg>
