<svg width="103" height="103" viewBox="0 0 103 103" fill="none" xmlns="http://www.w3.org/2000/svg">
<g clip-path="url(#clip0_21_118)">
<path d="M50.9206 -5.06644e-06C45.5943 0.0370372 40.2749 0.388133 34.99 1.05145L33.8226 1.21024L32.372 1.40766C32.0587 1.44629 31.5995 1.51924 31.3592 1.57074C31.066 1.63056 30.7712 1.68208 30.4751 1.72524C30.095 1.78017 29.7158 1.84169 29.3378 1.90979L28.2005 2.11579C27.3722 2.2617 24.926 2.75954 23.69 3.03849C19.1237 4.05991 14.0552 5.58774 11.9737 6.57483C10.5017 7.27437 8.66057 8.74641 7.98249 9.76354C7.36035 10.7851 6.94207 11.9175 6.75078 13.0982C6.62632 13.7762 6.61345 14.0852 6.60486 16.6688C6.59199 19.7932 6.64349 21.9175 6.7937 24.6728C7.50611 37.6293 9.7807 48.4486 14.0294 59.0061C16.8712 66.3561 20.6737 73.2974 25.338 79.649C29.6297 85.4986 34.4363 90.6872 39.9082 95.3995C43.2085 98.2319 47.3628 101.429 48.8177 102.245C50.4743 103.176 52.3369 103.249 53.9248 102.446C55.2123 101.79 59.8559 98.2663 62.9931 95.5625C67.8802 91.3095 72.3613 86.6113 76.3788 81.5288C78.5675 78.7607 82.9922 71.8554 84.8634 68.289C91.8245 55.0277 95.8029 38.7495 96.2406 21.8875C96.3694 19.1322 96.4337 16.6345 96.3694 15.3255C96.3541 14.9988 96.3298 14.6725 96.2964 14.347L96.3007 12.6432L95.5926 11.1712C95.2001 10.3082 94.6416 9.53097 93.9489 8.88374C93.1077 8.00395 92.3524 7.50612 90.5885 6.65637C86.3097 4.59637 80.5546 2.97412 73.6021 1.85829C71.3919 1.48071 69.1707 1.17157 66.9414 0.931287L65.2076 0.725287C64.6226 0.656653 64.0358 0.603704 63.448 0.566495C60.6085 0.327135 57.7638 0.15542 54.9162 0.0514949C53.5848 0.00679798 52.2526 -0.00894185 50.9206 0.0042866V-5.06644e-06ZM51.6373 3.56208C65.9715 3.53204 77.9367 5.43324 87.683 9.27858C91.288 10.6948 91.9318 11.1369 92.6614 12.6776C93.2107 13.8363 93.2193 14.008 93.0648 19.9348C92.2193 52.5085 81.0481 76.6663 58.2465 95.2149C55.4827 97.468 52.5987 99.5194 51.8777 99.7469C51.5215 99.8585 50.8691 99.6053 49.8048 98.9444C47.6933 97.6354 42.4317 93.3523 38.9039 90.0692C33.1016 84.6832 27.2864 77.4646 23.3252 70.7309C14.8706 56.3796 10.4802 39.6421 9.96095 19.806C9.81074 14.0123 9.82361 13.832 10.3729 12.6733C11.1025 11.1412 11.7549 10.6905 15.2225 9.33866C24.7929 5.59204 34.8998 3.86249 48.7405 3.59212C49.719 3.57495 50.6846 3.56208 51.6373 3.56208ZM47.5989 6.60058L47.4057 6.61345C46.5474 6.71645 45.4831 7.49754 44.9724 8.42454C43.8007 10.5489 44.0282 15.2569 45.3844 16.8963C45.9122 17.54 46.1912 17.6516 47.1912 17.6516C47.8564 17.6516 48.6246 17.48 48.9379 17.2525C49.2512 17.0293 49.7533 16.3641 50.0537 15.7719C50.8434 14.2269 50.8605 10.3429 50.0837 8.61337C49.5859 7.51041 48.6546 6.71216 47.7748 6.61345L47.6804 6.60487H47.5946L47.5989 6.60058ZM52.294 6.85808L52.221 12.1497C52.1898 13.8433 52.1755 15.5372 52.1781 17.231C52.1988 17.3193 52.2275 17.4055 52.2639 17.4885C52.3712 17.51 52.6459 17.5272 53.0064 17.5272H53.7874V15.2569C53.7874 13.0853 53.8089 12.9952 54.3282 13.0724C54.7574 13.1368 55.0234 13.6132 55.6457 15.4028L56.4268 17.6516H58.3152L57.4826 15.2311L56.6543 12.8063L57.3324 12.1583C58.1607 11.36 58.4182 10.2013 58.062 8.86658C57.6714 7.37737 56.68 6.86237 54.2381 6.85808H52.294ZM62.491 7.11558C60.3237 7.11558 59.3452 8.75929 59.358 12.3857C59.358 14.7805 59.7185 16.2912 60.491 17.1624C61.3837 18.1623 63.3235 18.3383 64.5467 17.5229C65.2076 17.0851 65.6282 15.7375 65.641 14.0552C65.641 13.6089 65.6239 13.257 65.5638 13.008C65.4222 12.6046 65.0059 12.5531 63.8171 12.4372L62.8085 12.3385C62.6326 12.4415 62.6197 12.6819 62.6197 13.214V13.3857L62.624 13.463C62.6497 13.9694 62.7742 14.0552 63.2506 14.0552C63.757 14.0552 63.8772 14.184 63.8772 14.7161C63.8772 16.2397 62.6755 16.9135 61.7742 15.9006C60.5382 14.5101 60.8172 9.20562 62.1476 8.77645C62.7055 8.5962 63.6282 9.26999 63.6282 9.85366C63.6282 10.0768 63.9372 10.197 64.508 10.197C65.5123 10.197 65.6239 9.85795 65.0145 8.66058C64.8012 8.17673 64.4453 7.76954 63.9943 7.49344C63.5434 7.21735 63.0189 7.08552 62.491 7.11558ZM40.1786 7.27866C39.71 7.26565 39.241 7.28573 38.7752 7.33874L37.2602 7.50183L37.1229 18.2224L38.9597 18.0422C39.9683 17.9392 41.0627 17.7246 41.4017 17.5658C42.436 17.0594 43.0239 15.995 43.0454 14.5831C43.0583 13.596 42.9381 13.1711 42.5175 12.742C41.9768 12.1926 41.9768 12.184 42.4532 11.3858C42.7366 10.9421 42.8957 10.4304 42.9138 9.90423C42.932 9.37803 42.8084 8.85663 42.5562 8.39449C42.2 7.69495 41.4275 7.32587 40.1786 7.27866ZM67.1603 7.59624V18.3683L68.0401 18.4713L68.9242 18.5786V16.1882C68.9242 13.5402 68.8426 13.6389 70.7567 13.9608L71.7009 14.1239V16.51C71.7009 18.57 71.7609 18.9177 72.1429 19.0207C73.2587 19.3168 73.2287 19.4498 73.1557 13.8621L73.0871 8.52754L72.3961 8.44599L71.7009 8.36445V12.5188L70.628 12.3643C68.8684 12.1154 68.9242 12.1926 68.9242 9.95237C68.9242 8.47174 68.8383 7.88379 68.6109 7.88379C68.3116 7.86072 68.0154 7.80752 67.7268 7.72499L67.3148 7.60912L67.1603 7.59624ZM35.3676 7.73358L34.5093 7.83658C33.6638 7.93529 33.6338 7.9825 32.9772 10.1584C32.6124 11.3815 32.1617 12.845 31.9815 13.4115L31.651 14.4415L30.8313 11.742C30.3807 10.2571 29.9215 8.94383 29.8099 8.82366C29.7026 8.7035 29.2606 8.68204 28.8314 8.78074L28.0503 8.95241V14.2054C28.0503 19.2052 28.0718 19.4541 28.5353 19.4541C28.812 19.4525 29.0869 19.4091 29.3507 19.3254C29.5996 19.2267 29.6683 18.7245 29.6082 17.4499C29.5628 16.5306 29.5628 15.6097 29.6082 14.6904C29.6855 13.7462 29.7627 13.8835 30.6725 16.6045L31.6553 19.5442L32.5652 16.2482L33.475 12.9565L33.5136 14.5015C33.5786 14.6959 33.5831 14.9054 33.5265 15.1024L33.548 15.8448C33.608 18.3254 33.6767 18.7074 34.0072 18.5786C34.2893 18.4822 34.5846 18.4301 34.8827 18.4241C35.3462 18.4241 35.3676 18.1752 35.3676 13.0767V7.73358ZM53.7874 8.33441L54.8518 8.47604C56.3624 8.68633 56.9976 9.74637 56.2466 10.7978C55.9032 11.2699 54.2896 11.6562 53.972 11.3343C53.8733 11.2313 53.7874 10.5103 53.7874 9.73779V8.33441ZM47.513 8.4417C47.8692 8.45887 48.2126 8.74212 48.4872 9.30004C49.0537 10.4502 49.0108 14.493 48.4186 15.4157C47.8478 16.304 47.1096 16.304 46.5388 15.4157C46.2127 14.9092 46.0667 14.0895 46.0152 12.3986C45.9509 10.4073 46.0152 9.94808 46.4659 9.22279C46.792 8.68633 47.1568 8.42883 47.513 8.4417ZM38.8997 8.91379H39.7322C40.7408 8.91379 41.17 9.30004 41.17 10.2185C41.17 11.0339 40.8266 11.3557 39.7194 11.5703L38.9039 11.7291V10.3215L38.8997 8.91379ZM75.366 8.93524C75.3145 8.95724 75.2689 8.99105 75.2329 9.03395V19.6773L75.9282 19.7846C76.3101 19.8404 76.705 19.909 76.8122 19.9262C76.9153 19.9477 77.0011 17.6044 77.0011 14.7118C77.0011 11.8235 76.9153 9.41162 76.8122 9.34725C76.5261 9.23014 76.2303 9.13824 75.9282 9.07258L75.366 8.93524ZM23.9561 9.87083C23.757 9.88693 23.56 9.92287 23.3681 9.97812C22.5956 10.1927 22.587 10.227 21.6514 14.3771C21.1364 16.6774 20.5528 19.2267 20.3639 20.0507L20.0163 21.5442L20.8146 21.3725C21.1422 21.31 21.4638 21.2195 21.7759 21.1021C21.8617 21.0506 22.0119 20.3725 22.1107 19.5915C22.3038 18.0035 22.2866 18.0293 23.5441 17.789L24.4582 17.613L24.7586 18.9091C25.059 20.1794 25.0848 20.2009 25.8659 20.0507C26.1747 20.0041 26.4771 19.922 26.7671 19.806C26.8959 19.6987 24.5011 10.1369 24.2908 9.91804C24.2479 9.87512 24.1234 9.85795 23.9561 9.87083ZM78.765 9.94808V15.2097C78.765 19.2524 78.8379 20.4798 79.0825 20.4841C79.2542 20.4841 79.649 20.5571 79.958 20.6429C80.5074 20.7931 80.516 20.7545 80.5889 17.6645L80.6576 14.5316L82.0395 18.0379C82.7948 19.9691 83.5931 21.6515 83.8034 21.7759C84.8076 22.3767 84.8334 22.2308 84.7647 16.7117L84.696 11.3901L84.0008 11.2055L83.3055 11.0167V13.8835C83.297 17.1752 83.2712 17.1624 81.7605 13.2827C80.6533 10.4416 80.2971 9.94379 79.3486 9.94379L78.765 9.94808ZM16.1066 12.2613C16.0551 12.2613 15.656 12.39 15.2182 12.5402L14.4243 12.8235V14.1539L14.4972 18.3941C14.5316 20.4112 14.5831 22.0205 14.6947 23.4668C14.7419 23.484 14.7977 23.4754 14.8663 23.4454C15.1109 23.3467 16.2439 22.9218 17.3898 22.4926C19.3468 21.7673 19.4713 21.6772 19.4713 20.9734C19.4713 20.5657 19.4327 20.2266 19.3854 20.2266C19.3382 20.2266 18.6387 20.4584 17.8319 20.7416C17.3196 20.9298 16.8015 21.1016 16.2783 21.2566C16.2311 21.2566 16.1924 19.231 16.1924 16.759C16.1924 14.2827 16.1495 12.2613 16.1066 12.2613ZM86.9277 12.2613C86.8805 12.2613 86.8419 14.6732 86.8419 17.6216V22.9819L87.6573 23.248C88.1122 23.3982 88.507 23.5269 88.5414 23.5441C88.5757 23.557 88.6058 21.1536 88.6058 18.1967V12.8192L87.8118 12.536C87.5224 12.427 87.2272 12.3339 86.9277 12.257V12.2613ZM39.9425 13.1454C41.0712 13.1883 41.7751 14.42 41.1399 15.583C40.8695 16.0766 40.5391 16.2654 39.8395 16.3255L38.8997 16.4027V14.8749C38.8997 13.5402 38.964 13.3299 39.4318 13.2055C39.5982 13.1603 39.7703 13.14 39.9425 13.1454ZM23.411 13.1582L23.7458 14.5402C23.9303 15.3127 23.9904 15.6775 23.9217 15.8963C23.9198 15.9274 23.9112 15.9578 23.8963 15.9852C23.8815 16.0126 23.8609 16.0365 23.8359 16.0551C23.8038 16.088 23.7678 16.1169 23.7286 16.141C23.1235 16.5315 22.7072 16.4113 22.8703 15.8835C22.9561 15.6174 23.1106 14.8964 23.2136 14.2784L23.411 13.1582ZM52.9334 20.2824C50.5515 20.3382 48.4958 21.012 47.3285 22.1965C46.2856 23.2565 46.1697 24.3852 47.0367 24.9646C48.131 25.6899 49.9249 25.9088 56.341 26.1148C62.212 26.3036 62.9158 26.3723 63.9372 26.8744C65.1904 27.4967 65.7355 28.3035 65.6968 29.4923C65.6711 30.4794 65.023 31.5395 64.4394 31.5395C63.4566 31.5395 60.1949 30.7069 57.8903 29.8657C56.9646 29.5116 56.0171 29.2177 55.0535 28.9859L54.8904 28.973C54.2724 28.9902 53.5257 29.4923 51.3798 31.3377C50.4357 32.1489 48.7619 33.2862 47.6589 33.8698C44.0797 35.771 42.9767 37.2774 42.4789 40.9468C42.2085 42.9338 41.8781 43.7278 40.3374 46.041C39.0585 47.9637 38.1572 50.5472 38.1486 52.294C38.1486 53.1394 37.8482 54.487 37.3589 55.8947C36.7152 57.7529 36.5693 58.5855 36.5221 60.7099C36.4706 62.9158 36.3719 63.4566 35.8225 64.4823C35.4234 65.2205 35.1101 66.3277 34.9985 67.3749C34.8397 68.9199 34.711 69.2031 33.5823 70.5507C32.8999 71.3575 32.342 72.1601 32.342 72.3317C32.342 72.4262 32.2347 72.6322 32.0716 72.8811C32.0373 73.0442 31.96 73.16 31.8613 73.1729C31.7733 73.2966 31.6787 73.4155 31.5781 73.5291C30.6167 74.6449 30.1447 75.9282 30.5481 76.3359C30.7584 76.5505 30.93 76.4818 31.2219 76.0612C31.7755 75.2544 32.0931 75.3531 31.8399 76.25C31.694 76.765 31.7197 77.0483 31.9214 77.1384C32.2991 77.3058 33.7325 77.0783 34.4835 76.7307C34.8784 76.5462 35.1702 76.0741 35.3848 75.2715C35.5564 74.6149 35.874 73.8682 36.0886 73.615C36.3247 73.3317 36.5221 72.4777 36.5864 71.4434C36.6809 69.9327 36.8053 69.5937 37.6594 68.4907C38.2173 67.7783 38.8052 66.6152 39.037 65.7784C39.2645 64.9715 39.625 63.963 39.8438 63.5381C41.4618 60.3623 42.5047 58.5255 42.6892 58.5255C43.2471 58.5255 43.6934 59.7443 43.6934 61.2721C43.6934 62.4738 43.7964 62.9287 44.0969 63.1004C44.4617 63.3064 44.466 63.4137 44.1355 64.0789C43.9055 64.5612 43.7216 65.0641 43.5862 65.5809C43.3415 66.6109 42.5347 67.7139 41.6892 68.1559C41.303 68.3619 40.4618 69.0486 39.8181 69.6881C38.8911 70.6065 38.6465 71.0185 38.6507 71.6923C38.655 72.8253 39.0198 73.4175 39.4447 72.9798C39.9511 72.4648 40.1829 72.615 40.0026 73.3446C39.8395 74.0055 39.8653 74.0227 40.6807 73.8596C41.7236 73.645 42.6677 73.0313 42.8437 72.4562C42.9167 72.2159 43.0754 71.8468 43.1956 71.6365C43.3201 71.4219 43.7836 70.4606 44.2342 69.4907C44.7921 68.289 45.4058 67.4392 46.1783 66.7955C46.7963 66.2805 47.4658 65.4522 47.6718 64.9587C48.2684 63.5081 50.0022 62.2635 50.0022 63.2935C50.0022 63.8943 49.0237 65.714 48.3113 66.4393C47.4143 67.3534 46.7234 68.5808 46.7234 69.2589C46.7234 69.8555 47.0753 70.0314 47.3542 69.5808C47.6289 69.1259 47.9422 69.3061 47.8049 69.8383C47.7922 69.8878 47.7822 69.9379 47.7748 69.9885C47.8177 70.1172 47.8821 70.2245 47.9679 70.3104C48.0752 70.3404 48.2254 70.3533 48.4486 70.3533C49.7447 70.3533 50.9678 69.6065 51.1524 68.701C51.2961 68.1375 51.5156 67.5962 51.8047 67.0916C52.1223 66.5594 52.2339 66.053 52.1309 65.6282C51.9592 64.9372 52.4227 63.1519 52.7746 63.1519C53.0321 63.1519 53.9505 65.0702 54.1823 66.1131C54.3095 66.5961 54.5377 67.0466 54.8518 67.435C55.3153 67.9542 55.517 67.9843 57.783 67.8555C60.1305 67.7225 60.2421 67.6839 60.8515 66.9242C61.3064 66.3492 61.521 65.7011 61.624 64.5767C61.8043 62.5939 62.6626 61.2464 64.6282 59.8387L66.096 58.7915L66.4564 59.3666C66.6582 59.6799 67.0873 60.6069 67.4135 61.4223C67.9628 62.7785 67.9843 63.0017 67.6925 64.169C67.5165 64.8728 67.4478 65.6882 67.538 65.9844C67.6324 66.2848 67.5079 67.083 67.259 67.7869L67.0659 68.3362L67.0272 68.5765C66.98 68.7906 66.9598 69.0098 66.9672 69.2289L67.4092 69.7009C68.083 70.4391 68.5508 70.5292 68.7654 69.967C68.9542 69.452 69.4306 69.4692 69.4306 69.9885C69.4306 70.5335 69.9241 70.3318 70.4949 69.5593C70.9327 68.9585 70.937 68.8512 70.5636 67.774C70.3404 67.1388 70.216 66.4221 70.276 66.1818C70.3361 65.9372 70.276 65.2419 70.1387 64.6368C69.8245 63.0844 69.8406 61.4832 70.1859 59.9374C70.4305 58.7443 70.4005 58.4825 69.8297 57.2337C69.4821 56.474 69.246 55.8002 69.3018 55.7444C69.3619 55.6844 69.8383 55.8088 70.3662 56.0191C72.8124 56.9976 74.7222 56.7744 75.8852 55.3754L76.4775 54.6587C76.4869 54.6192 76.4926 54.579 76.4947 54.5385L75.0827 54.4097C74.7603 54.3793 74.4383 54.3436 74.1171 54.3024C73.263 54.1608 72.8897 53.8518 71.5249 52.633C70.2632 51.5086 70.2202 51.4227 70.3533 50.4185C70.4348 49.8219 70.3104 48.5216 70.0657 47.41C69.6709 45.5989 69.6709 45.3372 70.04 44.0454C70.2589 43.2729 70.4391 42.2987 70.4391 41.8867C70.4391 40.6421 69.761 38.728 68.9585 37.7109C68.5078 37.1128 68.1624 36.4423 67.9371 35.7281C67.7308 35.0352 67.4304 34.3739 67.0444 33.7625C66.4607 32.887 66.4436 32.7797 66.7912 31.9386C67.0347 31.1931 67.1593 30.4139 67.1603 29.6297C67.1603 28.398 67.053 28.089 66.3406 27.265C64.7956 25.471 64.066 25.3037 56.6843 25.0848C48.1654 24.8273 46.8264 24.5011 48.1482 23.0119C48.6889 22.4025 49.573 22.4197 51.4099 23.072C53.4227 23.7844 55.8818 23.9604 57.3195 23.4969C58.5555 23.0977 58.577 23.1192 56.4354 22.6643C56.0921 22.5913 55.8045 22.4068 55.8045 22.248C55.8045 22.1922 55.8389 22.1536 55.8947 22.1235C55.9333 22.0463 56.1135 22.0291 56.4526 22.0677C56.6071 22.0763 56.7873 22.0935 57.0019 22.1235C60.3022 22.5699 60.8515 22.6042 60.8515 22.351C60.8515 21.9347 58.637 21.0764 56.3238 20.6C55.2092 20.3672 54.0719 20.2606 52.9334 20.2824ZM53.8475 22.3896C54.1886 22.4203 54.5237 22.4983 54.8432 22.6214L55.9333 23.0162L55.1522 23.0291L55.0492 23.0334L54.9162 23.0248C54.5303 23.0347 54.1468 22.9615 53.7917 22.8102C53.3497 22.5227 53.4484 22.3682 53.8475 22.3896Z" fill="#CFCFCF"/>
</g>
<defs>
<clipPath id="clip0_21_118">
<rect width="103" height="103" fill="white"/>
</clipPath>
</defs>
</svg>
