<svg width="105" height="105" viewBox="0 0 105 105" fill="none" xmlns="http://www.w3.org/2000/svg">
<path d="M42.3412 92.8069H62.7725V96.7838H42.3412V92.8069ZM46.1475 105H58.9662V98.8356H46.1475V105ZM42.455 81.7556C44.9706 84.0438 46.3094 87.3556 46.0862 90.7506H58.9662C58.8567 89.0796 59.1211 87.4051 59.7402 85.8491C60.3592 84.2931 61.3174 82.8947 62.545 81.7556H42.455ZM29.1025 72.2619V75.25H75.8975V72.2619H29.1025ZM31.1937 85.7675C34.037 85.1151 36.6609 83.7323 38.8062 81.7556H30.6644L31.1937 85.7675ZM73.8063 85.7675L74.3356 81.7556H66.1981C68.3419 83.7288 70.9625 85.1156 73.8063 85.7675ZM35.8925 65.835C32.9865 56.3258 29.6419 46.9562 25.8694 37.7563C28.6869 38.2025 31.4825 38.7931 34.2387 39.5281C28.7192 33.5952 22.357 28.5066 15.3562 24.4256C20.72 34.8294 25.76 50.6188 28.3281 65.835H35.8925ZM76.6937 65.835C79.2619 50.6188 84.3062 34.8294 89.6481 24.4256C82.6595 28.509 76.3091 33.5976 70.8006 39.5281C73.5569 38.7887 76.3481 38.1981 79.17 37.7563C75.3459 46.9368 71.999 56.3089 69.1425 65.835H76.6937ZM26.6306 70.7438H78.3869V67.7731H26.6306V70.7438ZM49.0962 65.7387C50.4612 62.5013 51.5856 59.1763 52.465 55.7725C53.3531 59.1719 54.4862 62.5013 55.8469 65.7387H64.8244C57.1987 53.1825 55.0506 36.5794 54.5737 21.9888C54.5344 20.4881 55.1425 20.1075 56.5862 20.7506L61.1931 22.8244C56.9242 15.8078 53.9653 8.07414 52.4606 0C50.9633 8.07287 48.0119 15.8066 43.75 22.8244L48.3525 20.7506C49.7962 20.0856 50.3519 20.4881 50.3519 21.9888C49.875 36.4831 47.7269 53.0906 40.1144 65.7387H49.0962ZM26.6306 79.6994H78.3869V76.7331H26.6306V79.6994Z" fill="#CFCFCF"/>
</svg>
