<svg width="120" height="120" viewBox="0 0 120 120" fill="none" xmlns="http://www.w3.org/2000/svg">
<path d="M95.31 58.5651C111.835 47.8701 134.05 47.5251 108.13 64.8051L108.54 64.2551C115.875 54.1751 100.93 56.4401 95.65 58.4251L95.31 58.5651ZM34.835 66.1801H41.83V68.9251H33.735C30.305 68.9251 28.8 67.8951 28.8 65.1551V64.5401C28.8 62.2101 30.17 60.7001 33.6 60.7001H41.83V63.4451H34.835C34.5079 63.4464 34.1945 63.5769 33.9632 63.8083C33.7319 64.0396 33.6013 64.3529 33.6 64.6801V65.0251C33.6192 65.339 33.7579 65.6336 33.9876 65.8484C34.2173 66.0633 34.5205 66.1819 34.835 66.1801ZM48 59.3201V66.1751H52.115V68.9201H42.515V59.3201H48ZM22.01 60.5551C22.965 59.7851 24.145 59.3501 25.37 59.3201H28.115V68.9201H22.625V64.1201L17.345 68.9201H12.34V64.1201L6.235 68.9201H0L10.9 60.6901C11.93 59.9351 12.615 59.3201 14.395 59.3201H17.825V64.1201L22.01 60.5551ZM68.57 61.5851C68.5692 61.3657 68.6141 61.1486 68.7018 60.9475C68.7895 60.7465 68.9181 60.5659 69.0794 60.4173C69.2408 60.2686 69.4313 60.1552 69.6388 60.0843C69.8464 60.0133 70.0664 59.9863 70.285 60.0051H76.8V62.7501H73.37V68.9201H68.57V61.5851ZM100.725 60.0051C104.84 60.0051 106.28 60.8951 106.28 63.9151V68.9201H101.48V65.4901C101.48 65.2202 101.427 64.953 101.324 64.7037C101.22 64.4543 101.069 64.2278 100.878 64.037C100.687 63.8461 100.461 63.6948 100.211 63.5915C99.9621 63.4882 99.6949 63.4351 99.425 63.4351H97.37V68.9201H92.57V60.0051H100.725ZM63.29 60.0051C66.445 60.0051 67.885 61.3101 67.885 63.5001V65.5551C67.885 68.0901 66.445 68.9151 62.95 68.9151H57.535C55.545 68.9151 54.105 68.7101 53.35 68.0251C52.9899 67.5795 52.7955 67.0229 52.8 66.4501V66.1051C52.8 64.7351 53.625 63.4301 56.23 63.4301H62.4C62.4 62.8151 62.47 62.7451 61.715 62.7451H53.485V60.0001L63.29 60.0051ZM62.395 65.8351V65.4901H58.625C58.5436 65.504 58.4697 65.5463 58.4164 65.6094C58.3632 65.6725 58.334 65.7525 58.334 65.8351C58.334 65.9177 58.3632 65.9976 58.4164 66.0608C58.4697 66.1239 58.5436 66.1662 58.625 66.1801H62.055C62.1001 66.1801 62.1447 66.1711 62.1863 66.1537C62.2279 66.1363 62.2656 66.1108 62.2972 66.0787C62.3288 66.0466 62.3538 66.0085 62.3706 65.9667C62.3874 65.9249 62.3957 65.8801 62.395 65.8351ZM87.495 60.0051C91.13 60.0051 91.885 61.1001 91.885 62.6101V62.9551C91.885 64.6001 90.58 65.4901 88.455 65.4901H82.285C82.285 66.1051 82.9 66.1751 83.655 66.1751H91.195V68.9201H81.8C78.85 68.9201 77.48 67.6851 77.48 65.4251V63.8501C77.48 61.2451 78.92 60.0101 82.21 60.0101L87.495 60.0051ZM86.74 63.4351C86.8214 63.4212 86.8953 63.3789 86.9486 63.3158C87.0018 63.2526 87.0311 63.1727 87.0311 63.0901C87.0311 63.0075 87.0018 62.9275 86.9486 62.8644C86.8953 62.8012 86.8214 62.759 86.74 62.7451H82.625C82.5339 62.7464 82.4469 62.7831 82.3825 62.8475C82.3181 62.912 82.2813 62.999 82.28 63.0901V63.4351H86.74Z" fill="#CFCFCF"/>
</svg>
