<svg width="154" height="16" viewBox="0 0 154 16" fill="none" xmlns="http://www.w3.org/2000/svg">
<g clip-path="url(#clip0_66_57)">
<path d="M0.521077 15.5571C0.158387 15.5571 0.000192836 15.202 0.173821 14.8765L10.6802 0.963315C10.931 0.632871 11.2908 0.359639 11.6545 0.359639H23.9801C24.4692 0.359639 24.6457 0.767022 24.2695 1.26417L14.1547 14.6575C13.7814 15.1566 13.2509 15.5571 12.7618 15.5571H0.521077ZM16.299 15.5571C15.9354 15.5571 15.781 15.202 15.9518 14.8765L26.4563 0.963315C26.7071 0.632871 27.0688 0.359639 27.4305 0.359639H33.057C33.5441 0.359639 33.7216 0.767022 33.3454 1.26417L23.2306 14.6575C22.8516 15.1566 22.3258 15.5571 21.8387 15.5571H16.299ZM25.9026 15.5571C25.536 15.5571 25.3807 15.202 25.5553 14.8765L36.0598 0.963315C36.3068 0.632871 36.6694 0.359639 37.0341 0.359639H41.2291C41.7172 0.359639 41.8947 0.767022 41.5185 1.26417L31.4027 14.6575C31.0294 15.1566 30.4989 15.5571 30.0166 15.5571H25.9026ZM37.4334 15.5571C37.9215 15.5571 38.4482 15.1566 38.8195 14.6575L48.9382 1.26417C49.3134 0.767022 49.1359 0.359639 48.6488 0.359639H45.7743C45.4135 0.359639 45.0508 0.632871 44.8049 0.963315L34.2946 14.8765C34.1248 15.202 34.285 15.5571 34.6467 15.5571H37.4334ZM44.4923 15.5571C44.9746 15.5571 45.5052 15.1566 45.8794 14.6575L55.9971 1.26417C56.3704 0.767022 56.1929 0.359639 55.7048 0.359639H53.685C53.3223 0.359639 52.9615 0.632871 52.7156 0.963315L42.2053 14.8765C42.0355 15.202 42.1956 15.5571 42.5525 15.5571H44.4923ZM54.4113 15.5571H49.5497C49.1871 15.5571 49.0289 15.202 49.1996 14.8765L59.7079 0.963315C59.9539 0.632871 60.3147 0.359639 60.6803 0.359639H83.2712C83.8789 0.359639 84.2551 0.875525 84.2551 1.49696V14.6545C84.2543 14.8935 84.1612 15.1225 83.996 15.2915C83.8309 15.4606 83.6071 15.556 83.3734 15.5571H79.6115C79.3778 15.5558 79.154 15.4603 78.9888 15.2913C78.8235 15.1223 78.7301 14.8935 78.7289 14.6545V12.7449C78.7289 12.2092 78.6806 11.9972 78.1549 11.9972H58.3768C58.0102 11.9972 57.7537 12.2655 57.4942 12.587L57.4363 12.666L55.9306 14.6604C55.5505 15.1606 55.0258 15.561 54.5386 15.561H54.4104L54.4113 15.5571ZM64.1654 4.19772C63.9242 4.19772 63.6994 4.38119 63.5306 4.60214L61.2108 7.67181C61.0439 7.89375 61.1529 8.07525 61.4008 8.07525H78.1549C78.6845 8.07525 78.726 7.86613 78.7289 7.33052V5.1999C78.7289 4.47095 78.7482 4.19772 78.1549 4.19772H64.1654ZM106.573 10.9516C106.16 11.2159 105.868 11.4813 105.386 11.4813H101.648C101.165 11.4813 100.871 11.2159 100.46 10.9516L93.2625 6.29381C92.8525 6.02946 92.513 6.2149 92.513 6.71303V14.6545C92.513 14.8939 92.42 15.1235 92.2545 15.2927C92.089 15.462 91.8645 15.5571 91.6304 15.5571H87.8656C87.6316 15.5566 87.4074 15.4613 87.242 15.2922C87.0766 15.123 86.9835 14.8937 86.9829 14.6545V1.26318C86.9829 0.767022 87.3813 0.360625 87.8656 0.360625H91.8976C92.3799 0.360625 92.6693 0.576647 93.0811 0.843961L102.9 7.3463C103.307 7.61263 103.713 7.61263 104.121 7.3463L113.94 0.847906C114.351 0.579606 114.642 0.364571 115.127 0.364571H119.156C119.638 0.364571 120.034 0.770967 120.034 1.26713V14.6585C120.034 15.1566 119.638 15.561 119.156 15.561H115.394C115.16 15.561 114.935 15.4661 114.768 15.297C114.602 15.1279 114.508 14.8983 114.507 14.6585V6.71698C114.507 6.21885 114.173 6.0334 113.762 6.29776L106.597 10.9388L106.578 10.9486M153.998 7.24569C153.996 7.0069 153.903 6.77829 153.738 6.60962C153.572 6.44095 153.348 6.34588 153.115 6.34511H138.61C138.377 6.3464 138.153 6.44163 137.988 6.61019C137.823 6.77875 137.729 7.00706 137.728 7.24569V8.51519C137.728 9.01233 138.128 9.44043 138.61 9.44043H147.73C148.34 9.44043 148.31 9.71366 148.31 10.4416V10.5965C148.31 11.3195 148.339 11.4783 147.737 11.4783H129.171C129.055 11.4781 128.941 11.4545 128.834 11.409C128.727 11.3635 128.631 11.2969 128.549 11.213C128.468 11.1292 128.403 11.0298 128.359 10.9204C128.316 10.8111 128.293 10.6939 128.294 10.5758V5.08548C128.294 4.59129 128.684 4.18391 129.171 4.18391H153.115C153.6 4.18391 153.998 3.77948 153.998 3.28431V1.26022C153.996 1.02125 153.903 0.792431 153.738 0.623449C153.572 0.454468 153.349 0.358961 153.115 0.357666H123.649C123.416 0.358965 123.192 0.454535 123.027 0.623572C122.862 0.79261 122.769 1.02143 122.769 1.26022V14.6526C122.769 15.1507 123.164 15.5551 123.649 15.5551H153.115C153.6 15.5551 153.998 15.1507 153.998 14.6526V7.09181" fill="#CFCFCF"/>
</g>
<defs>
<clipPath id="clip0_66_57">
<rect width="154" height="16" fill="white"/>
</clipPath>
</defs>
</svg>
