<svg width="145" height="145" viewBox="0 0 145 145" fill="none" xmlns="http://www.w3.org/2000/svg">
<mask id="mask0_70_28" style="mask-type:luminance" maskUnits="userSpaceOnUse" x="0" y="0" width="145" height="145">
<path d="M0 0H145V145H0V0Z" fill="white"/>
</mask>
<g mask="url(#mask0_70_28)">
<path fill-rule="evenodd" clip-rule="evenodd" d="M100.478 93.5298C100.663 94.1443 100.294 94.3911 100.049 94.4528C99.8637 94.5137 99.5568 94.5137 99.4951 94.2684C99.4334 93.8999 99.7403 93.7765 99.9253 93.6539C100.232 93.5305 100.171 93.5305 100.417 93.3462L100.478 93.5298ZM99.2484 93.0385C99.1265 92.6082 99.4951 92.4848 99.6185 92.4232C99.7403 92.3623 100.109 92.3006 100.232 92.67V92.7309C100.294 93.0385 100.049 93.0385 99.4334 93.3454C98.9415 93.5914 98.4487 93.8991 98.6346 94.5753C98.6962 94.8214 98.9415 95.4367 99.8644 95.129C100.261 95.0593 100.602 94.8094 100.787 94.4528L100.971 94.6988L101.894 94.4528L101.832 94.3911C101.71 94.3911 101.587 94.2068 101.525 93.8999L101.157 92.5465C101.095 92.178 100.788 91.4393 99.4966 91.8094C99.1882 91.932 98.1433 92.2397 98.3901 93.2852L99.2484 93.0385ZM95.375 92.9768L94.5137 93.1612L95.251 96.1747L96.1123 95.9286L95.7437 94.2684C95.682 94.1451 95.4969 93.4696 96.1123 93.2845C96.6042 93.1612 96.7276 93.6531 96.7878 93.96L97.2181 95.6819L98.1411 95.4359L97.6491 93.5914C97.4039 92.4841 96.7878 92.4841 96.3575 92.6075C95.9889 92.6692 95.6203 92.9144 95.436 93.3447L95.375 92.9768ZM91.993 94.883C91.9312 94.1451 92.4849 94.0217 92.5451 94.0217C92.7918 93.96 93.2221 93.96 93.3455 94.6363L91.993 94.883ZM93.4681 95.5593C93.4681 95.8662 93.2229 95.9896 92.9761 96.0505C92.3623 96.1739 92.1163 95.6819 92.0546 95.4359L94.3904 94.9447L94.3286 94.8214C94.267 94.4528 93.9601 93.1002 92.4849 93.4071C91.5003 93.5914 90.8849 94.3302 91.07 95.3743C91.3768 96.9119 92.6068 96.7275 93.0371 96.6658C93.5908 96.5433 94.3286 96.2972 94.3904 95.3743L93.4681 95.5593ZM89.6557 95.6203C89.7791 96.3582 89.4722 96.7275 89.1035 96.7892C88.6733 96.8501 88.3664 96.4816 88.2422 95.8662C88.1189 95.3743 88.2422 94.8206 88.7342 94.698C89.2246 94.637 89.5331 94.9447 89.6557 95.6203ZM90.763 96.9735L90.0258 92.7918L89.1028 92.9761L89.4097 94.3903C89.1645 94.206 88.6725 94.0826 88.425 94.1443C87.5035 94.3293 87.135 95.0673 87.2568 96.0505C87.4418 96.9735 88.1181 97.5881 88.9787 97.4038C89.3473 97.3421 89.5323 97.1578 89.7776 96.7892L89.8393 97.1578L90.763 96.9735ZM85.3521 97.2195C84.6751 97.2804 84.5532 96.6658 84.4908 96.2965C84.3674 95.3126 84.8594 95.1892 85.1046 95.1892C85.2897 95.1283 85.8434 95.1283 85.9036 96.1122C85.966 96.4816 86.0276 97.1578 85.3521 97.2195ZM85.4138 97.8349C86.3353 97.7115 87.0123 97.0969 86.889 95.9904C86.7656 94.883 85.966 94.4527 84.9835 94.5753C84.1846 94.637 83.3835 95.19 83.5685 96.4207C83.6919 97.5264 84.4908 97.9575 85.4138 97.8349ZM80.3098 98.2035L80.9853 98.1418L81.8466 95.0673L82.0934 98.0808L83.0765 98.0191L82.7696 93.7757L81.3547 93.8991L80.5558 96.8501L79.3258 94.0217L77.9726 94.1443L78.2193 98.3261L79.2642 98.2652L79.019 95.2516H79.0807L80.3098 98.2035ZM74.8982 94.9447H75.8212L75.7595 94.2068L74.8365 94.2684L74.8982 94.9447ZM74.8982 95.4359L75.0817 98.5103L76.0047 98.4494L75.8212 95.3743L74.8982 95.4359ZM73.2996 94.2677L73.3598 98.5103L74.2828 98.4494L74.2211 94.206L73.2996 94.2677ZM71.7621 94.9447H72.6851V94.2068H71.7621V94.9447ZM71.7621 95.3743L71.7003 98.4494H72.6234L72.685 95.3743H71.7621ZM68.7493 96.8501C68.7493 96.605 68.8727 95.8046 69.5481 95.8662C70.0401 95.8662 70.2245 96.3582 70.2245 96.9119C70.1628 97.5881 69.8551 97.9575 69.4248 97.8958C69.0562 97.8958 68.7493 97.5881 68.7493 96.8501ZM68.6876 98.0191C68.9953 98.3878 69.2405 98.5103 69.6716 98.5721C70.4095 98.5721 71.0858 98.1418 71.1474 96.9735C71.2091 95.9896 70.7172 95.3133 69.8558 95.2516C69.4872 95.2516 69.1187 95.3743 68.8719 95.6203L68.9336 94.1443L68.0113 94.0826L67.827 98.3261L68.6883 98.3878V98.0191H68.6876ZM65.5515 97.7732C64.8752 97.7115 64.8752 97.0969 64.8752 96.6658C64.9369 95.6819 65.4898 95.6819 65.6748 95.6819C65.9208 95.7436 66.4121 95.8046 66.3511 96.7892C66.3511 97.1578 66.2278 97.8349 65.5515 97.7732ZM65.4898 98.3878C66.4737 98.4494 67.2117 97.9575 67.3351 96.8501C67.3967 95.7436 66.7197 95.129 65.7366 95.0673C64.8752 95.0056 64.0146 95.3743 63.953 96.605C63.8913 97.7732 64.5676 98.3261 65.4898 98.3878ZM58.7873 94.5137L58.4187 97.5888L59.341 97.7115L59.5253 95.9286C59.6486 95.3141 59.9555 95.1907 60.2015 95.1907C60.5709 95.2524 60.6318 95.5601 60.5709 95.9904L60.3249 97.8349L61.2471 97.8958L61.4931 96.1747C61.5548 95.5601 61.8625 95.4367 62.1085 95.4367C62.5387 95.4983 62.5387 95.9286 62.4771 96.2356L62.2927 98.0808L63.215 98.1418L63.3993 96.2972C63.461 95.9286 63.5227 95.0056 62.5387 94.883C62.3537 94.8214 61.9234 94.8214 61.4314 95.3743C61.3698 95.0673 61.1855 94.6987 60.5709 94.637C60.3249 94.5753 60.0172 94.637 59.5869 95.0673L59.6486 94.637L58.7873 94.5137ZM56.2665 96.8501C55.5903 96.7276 55.6512 96.0513 55.7129 95.6819C55.8972 94.698 56.3891 94.7597 56.6351 94.7597C56.8194 94.8206 57.3114 94.944 57.1271 95.9279C57.0654 96.2973 56.8811 96.9119 56.2665 96.8501ZM56.1431 97.4038C57.0654 97.5881 57.865 97.2195 58.111 96.1122C58.2953 95.0049 57.6808 94.3293 56.6968 94.1443C55.8362 94.0217 54.9749 94.3294 54.7906 95.4976C54.5446 96.605 55.2209 97.2804 56.1431 97.4038ZM52.4541 94.1443L53.007 94.2677L52.6994 95.8662C52.576 96.4808 52.761 96.7892 53.3756 96.9119C53.5599 96.9735 53.8676 96.9735 54.1136 96.9735L54.2362 96.3589C54.1745 96.3589 54.0519 96.4207 53.9293 96.3589C53.56 96.2973 53.6216 96.0513 53.6833 95.867L53.9293 94.4528L54.6055 94.5753L54.6673 93.9608L54.0527 93.8381L54.237 92.9151L53.3148 92.7309L53.1304 93.6539L52.5768 93.5305L52.4541 94.1443ZM50.6705 96.2973L51.5928 96.5433L52.2691 93.5298L51.3468 93.2845L50.9782 95.0056C50.9165 95.19 50.7322 95.8046 50.1786 95.6819C49.8709 95.6203 49.7483 95.3743 49.8709 94.8206L50.2395 93.0378L49.3789 92.8527L48.9479 94.7597C48.8253 95.0666 48.7019 95.9896 49.6242 96.1739C49.9936 96.2965 50.3621 96.2348 50.7932 95.9279L50.6705 96.2973ZM46.1819 93.7757L47.1042 92.2998L47.2275 94.0217L46.1819 93.7757ZM46.8582 91.1316L44.3374 94.8206L45.3213 95.1283L45.8133 94.3903L47.2884 94.7597L47.3501 95.6203L48.3958 95.8662L47.8429 91.3776L46.8582 91.1316ZM106.996 89.779C106.228 89.766 105.595 90.3785 105.582 91.147C105.581 91.1624 105.581 91.1778 105.582 91.1933C105.582 91.9929 106.197 92.6082 106.996 92.6082C107.796 92.6082 108.41 91.9937 108.41 91.1933C108.41 90.3936 107.796 89.779 106.996 89.779ZM115.36 86.0893C114.561 86.0893 113.945 86.7039 113.945 87.5035C113.945 88.3031 114.56 88.9177 115.36 88.9177C116.097 88.9177 116.773 88.3031 116.773 87.5035C116.773 86.7039 116.097 86.0893 115.36 86.0893ZM38.0652 89.779C38.8337 89.7665 39.4668 90.3793 39.4794 91.1478C39.4794 91.1629 39.4794 91.1781 39.4794 91.1933C39.4924 91.9617 38.8799 92.5953 38.1114 92.6082C38.096 92.6085 38.0806 92.6085 38.0652 92.6082C37.2967 92.6208 36.6635 92.008 36.6509 91.2396C36.6509 91.2241 36.6509 91.2087 36.6509 91.1933C36.6384 90.4248 37.2512 89.7916 38.0196 89.779C38.0348 89.7788 38.05 89.7788 38.0652 89.779ZM29.7024 86.0893C30.5013 86.0893 31.1166 86.7039 31.1166 87.5035C31.1166 88.3031 30.5021 88.9177 29.7024 88.9177C28.9645 88.9177 28.2882 88.3031 28.2882 87.5035C28.2882 86.7039 28.9645 86.0893 29.7024 86.0893ZM117.942 57.3738C118.741 57.3738 119.356 57.9883 119.356 58.788C119.356 59.526 118.742 60.2022 117.942 60.2022C117.204 60.2022 116.528 59.526 116.528 58.788C116.528 57.9883 117.204 57.3738 117.942 57.3738ZM111.178 53.745C111.915 53.745 112.592 54.4212 112.592 55.1592C112.592 55.9581 111.916 56.5734 111.178 56.5734C110.409 56.586 109.776 55.9728 109.763 55.2039C109.763 55.189 109.763 55.1741 109.763 55.1592C109.763 54.422 110.379 53.745 111.178 53.745ZM103.491 51.1625C104.228 51.1625 104.844 51.7778 104.844 52.5767C104.844 53.3139 104.229 53.9909 103.491 53.9909C102.692 53.9909 102.078 53.3147 102.078 52.5767C102.065 51.8082 102.678 51.175 103.446 51.1625C103.461 51.1623 103.476 51.1622 103.491 51.1625ZM95.7437 49.1946C96.5425 49.1946 97.1571 49.8092 97.1571 50.6088C97.1571 51.4085 96.5433 52.023 95.7437 52.023C95.0064 52.023 94.3286 51.4085 94.3286 50.6088C94.3286 49.8099 95.0065 49.1946 95.7437 49.1946ZM88.0572 47.7194C88.7959 47.7194 89.4722 48.3957 89.4722 49.1337C89.4722 49.9326 88.7966 50.5479 88.0572 50.5479C87.2891 50.5605 86.6563 49.948 86.6437 49.1799C86.6435 49.1645 86.6435 49.1491 86.6437 49.1337C86.6437 48.3957 87.2576 47.7194 88.0572 47.7194ZM80.3098 46.8582C81.1087 46.8582 81.7233 47.5344 81.7233 48.2724C81.7233 49.0713 81.1094 49.6866 80.3098 49.6866C79.5726 49.6866 78.9565 49.072 78.9565 48.2724C78.9565 47.5344 79.5719 46.8582 80.3098 46.8582ZM72.6234 46.6738C73.3919 46.6612 74.025 47.2741 74.0376 48.0426C74.0379 48.0577 74.0379 48.0729 74.0376 48.088C74.0501 48.8565 73.4373 49.4897 72.6688 49.5023C72.6537 49.5025 72.6385 49.5025 72.6234 49.5023C71.8854 49.5023 71.2091 48.8877 71.2091 48.088C71.2084 47.2884 71.8854 46.6738 72.6234 46.6738ZM67.0274 53.684C67.7646 53.684 68.3799 54.2986 68.3799 55.0982C68.3799 55.8354 67.7653 56.5125 67.0274 56.5125C66.2278 56.5125 65.6132 55.8362 65.6132 55.0982C65.6006 54.3298 66.2134 53.6966 66.9819 53.684C66.9971 53.6838 67.0122 53.6838 67.0274 53.684ZM31.301 81.2313C32.0389 81.2313 32.6535 81.8466 32.6535 82.6463C32.6535 83.4459 32.0389 84.0604 31.301 84.0604C30.5021 84.0604 29.8867 83.4459 29.8867 82.6463C29.8867 81.8466 30.5013 81.2313 31.301 81.2313ZM40.4633 81.2313C41.2622 81.2313 41.8776 81.8466 41.8776 82.6463C41.8776 83.4459 41.2622 84.0604 40.4633 84.0604C39.7261 84.0604 39.0491 83.4459 39.0491 82.6463C39.0491 81.8466 39.7253 81.2313 40.4633 81.2313ZM49.6866 81.2313C50.4855 81.2313 51.1008 81.8466 51.1008 82.6463C51.1008 83.4459 50.4863 84.0604 49.6866 84.0604C48.9486 84.0604 48.2724 83.4459 48.2724 82.6463C48.2724 81.8466 48.9486 81.2313 49.6866 81.2313ZM114.192 81.2313C114.929 81.2313 115.605 81.8466 115.605 82.6463C115.605 83.4459 114.93 84.0604 114.192 84.0604C113.391 84.0604 112.777 83.4459 112.777 82.6463C112.777 81.8466 113.391 81.2313 114.192 81.2313ZM104.968 81.2313C105.767 81.2313 106.381 81.8466 106.381 82.6463C106.381 83.4459 105.767 84.0604 104.968 84.0604C104.168 84.0604 103.553 83.4459 103.553 82.6463C103.553 81.8466 104.169 81.2313 104.968 81.2313ZM95.7437 81.2313C96.5425 81.2313 97.1571 81.8466 97.1571 82.6463C97.1571 83.4459 96.5433 84.0604 95.7437 84.0604C95.0064 84.0604 94.3286 83.4459 94.3286 82.6463C94.3286 81.8466 95.0065 81.2313 95.7437 81.2313ZM86.5203 81.2313C87.3192 81.2313 87.9338 81.8466 87.9338 82.6463C87.9338 83.4459 87.32 84.0604 86.5203 84.0604C85.7831 84.0604 85.167 83.4459 85.167 82.6463C85.167 81.8466 85.7824 81.2313 86.5203 81.2313ZM58.9106 81.2313C59.7095 81.2313 60.3249 81.8466 60.3249 82.6463C60.3249 83.4459 59.7103 84.0604 58.9106 84.0604C58.111 84.0604 57.4964 83.4459 57.4964 82.6463C57.4964 81.8466 58.111 81.2313 58.9106 81.2313ZM68.134 81.2313C68.8719 81.2313 69.5482 81.8466 69.5482 82.6463C69.5482 83.4459 68.8719 84.0604 68.134 84.0604C67.3351 84.0604 66.7197 83.4459 66.7197 82.6463C66.7197 81.8466 67.3351 81.2313 68.134 81.2313ZM77.358 81.2313C78.0953 81.2313 78.7113 81.8466 78.7113 82.6463C78.7113 83.4459 78.0959 84.0604 77.358 84.0604C76.5591 84.0604 75.943 83.4459 75.943 82.6463C75.943 81.8466 76.5584 81.2313 77.358 81.2313ZM115.36 61.3704C116.097 61.3704 116.773 61.985 116.773 62.723C116.773 63.5227 116.098 64.1372 115.36 64.1372C114.592 64.1502 113.958 63.5377 113.945 62.7692C113.945 62.7539 113.945 62.7384 113.945 62.723C113.945 61.985 114.56 61.3704 115.36 61.3704ZM106.381 61.3704C107.118 61.3704 107.796 61.985 107.796 62.723C107.796 63.5227 107.119 64.1372 106.381 64.1372C105.613 64.1498 104.98 63.5373 104.968 62.7692C104.967 62.7539 104.967 62.7384 104.968 62.723C104.968 61.985 105.582 61.3704 106.381 61.3704ZM97.4039 61.3704C98.1411 61.3704 98.8173 61.985 98.8173 62.723C98.8173 63.5227 98.1418 64.1372 97.4039 64.1372C96.6354 64.1502 96.0019 63.5377 95.9889 62.7692C95.9886 62.7539 95.9886 62.7384 95.9889 62.723C95.9896 61.985 96.605 61.3704 97.4039 61.3704ZM88.4258 61.3704C89.1645 61.3704 89.8408 61.985 89.8408 62.723C89.8408 63.5227 89.1652 64.1372 88.4258 64.1372C87.6578 64.1498 87.0249 63.5373 87.0123 62.7692C87.0121 62.7539 87.0121 62.7384 87.0123 62.723C87.0123 61.985 87.6262 61.3704 88.4258 61.3704ZM61.4931 61.3704C62.2311 61.3704 62.8464 61.985 62.8464 62.723C62.8464 63.5227 62.2318 64.1372 61.4931 64.1372C60.7246 64.1498 60.0915 63.537 60.0789 62.7685C60.0787 62.7533 60.0787 62.7381 60.0789 62.723C60.0789 61.985 60.6935 61.3704 61.4931 61.3704ZM70.4705 61.3704C71.2084 61.3704 71.8237 61.985 71.8237 62.723C71.8237 63.5227 71.2084 64.1372 70.4705 64.1372C69.702 64.1498 69.0688 63.537 69.0562 62.7685C69.056 62.7533 69.056 62.7381 69.0562 62.723C69.0562 61.985 69.6716 61.3704 70.4705 61.3704ZM79.4485 61.3704C80.1857 61.3704 80.8635 61.985 80.8635 62.723C80.8635 63.5227 80.1864 64.1372 79.4485 64.1372C78.68 64.1502 78.0465 63.5377 78.0335 62.7692C78.0332 62.7539 78.0332 62.7384 78.0335 62.723C78.0335 61.985 78.6496 61.3704 79.4485 61.3704ZM124.275 84.3065C114.744 93.3454 94.698 99.3709 72.5 99.3709C50.1177 99.3709 29.9484 93.2838 20.4784 84.1831C19.0642 82.5846 20.1707 79.8788 22.3846 79.8788H122.554C124.89 79.8795 125.997 82.8298 124.275 84.3065ZM72.5 37.7574C108.903 37.7574 138.603 53.3764 138.603 72.4999C138.603 91.6243 108.903 107.243 72.5 107.243C36.0973 107.243 6.39709 91.6243 6.39709 72.4999C6.39709 53.3764 36.0973 37.7574 72.5 37.7574ZM72.5 40.4016C107.549 40.4016 136.143 54.7906 136.143 72.4999C136.143 90.2093 107.549 104.66 72.5 104.66C37.3889 104.66 8.79522 90.2093 8.79522 72.4999C8.79522 54.7906 37.3889 40.4016 72.5 40.4016ZM72.5 42.9848C106.136 42.9848 133.561 56.2664 133.561 72.4999C133.561 88.7334 106.136 102.015 72.5 102.015C38.8641 102.015 11.4394 88.7334 11.4394 72.4999C11.4394 56.2664 38.8641 42.9848 72.5 42.9848ZM54.2987 46.9815C58.357 46.4278 63.0916 45.8133 67.2734 45.6898C61.6157 54.2369 53.8066 58.849 45.1979 60.6318L54.2987 46.9815ZM16.7894 64.9978C21.0937 58.111 31.9155 52.0848 45.5056 48.7643L35.1134 64.9369L16.7894 64.9978ZM118.864 75.3291V68.7493H116.897V74.3445C116.897 75.0824 116.098 75.3901 115.605 74.959L107.858 69.3022C106.443 68.0722 104.107 69.0562 104.107 71.024V77.5423H106.013V71.947C106.013 71.2708 106.874 70.9014 107.366 71.3325L115.175 77.051C116.589 78.2185 118.864 77.2354 118.864 75.3291ZM95.682 73.8533V72.7459C95.682 70.8398 91.3151 70.5321 90.086 70.5321C88.6725 70.5321 84.4291 70.8397 84.4291 72.7459V73.8533H95.682ZM82.462 77.5423V72.7459C82.462 69.3022 87.4426 68.6259 90.086 68.6259C92.6076 68.6259 97.5882 69.3022 97.5882 72.7459V77.5423H95.6827V75.7594H84.4298V77.5423H82.462ZM52.6384 73.8533V72.7459C52.6384 70.8398 48.2724 70.5321 47.0425 70.5321C45.6282 70.5321 41.3855 70.8397 41.3855 72.7459V73.8533H52.6384ZM39.4794 77.5423V72.7459C39.4794 69.3022 44.46 68.6259 47.0425 68.6259C49.6249 68.6259 54.6063 69.3022 54.6063 72.7459V77.5423H52.6384V75.7594H41.3855V77.5423H39.4794ZM20.4784 70.6554V73.9149H30.0094C32.0389 73.9149 32.0389 70.6554 30.0094 70.6554H20.4784ZM18.5105 77.5423V68.7493H30.0094C34.6213 68.7493 34.6213 75.882 30.0094 75.882H20.4784V77.5423H18.5105ZM75.8813 70.6554H65.8592C62.0468 70.6554 61.9234 75.6361 65.8592 75.6361H73.9759V74.1601H68.1956V72.254H75.8813V77.5423H65.8592C59.4027 77.5423 59.4643 68.7493 65.8592 68.7493H75.8813V70.6554ZM125.321 68.7493H127.227V77.5423H125.321V68.7493ZM53.1304 65.1212H122.615C124.89 65.0595 125.935 62.231 124.337 60.6942C109.456 46.2435 75.943 45.383 71.7621 45.629C66.4737 53.438 59.8329 58.7263 52.3308 61.985C50.9165 62.7847 51.4702 65.0595 53.1304 65.1212Z" fill="#CFCFCF"/>
</g>
</svg>
