<svg width="21" height="21" viewBox="0 0 21 21" fill="none" xmlns="http://www.w3.org/2000/svg">
<path d="M10.5 2.13281C8.84513 2.13281 7.22742 2.62354 5.85144 3.54294C4.47547 4.46234 3.40302 5.76911 2.76973 7.29802C2.13644 8.82692 1.97074 10.5093 2.29359 12.1324C2.61644 13.7554 3.41334 15.2463 4.58351 16.4165C5.75368 17.5867 7.24457 18.3836 8.86765 18.7064C10.4907 19.0293 12.1731 18.8636 13.702 18.2303C15.2309 17.597 16.5377 16.5245 17.4571 15.1486C18.3765 13.7726 18.8672 12.1549 18.8672 10.5C18.8646 8.28168 17.9822 6.15497 16.4136 4.58638C14.845 3.01779 12.7183 2.13542 10.5 2.13281ZM10.5 17.8828C9.03982 17.8828 7.61243 17.4498 6.39833 16.6386C5.18424 15.8273 4.23796 14.6743 3.67917 13.3253C3.12039 11.9762 2.97418 10.4918 3.25905 9.05968C3.54392 7.62756 4.24706 6.31207 5.27957 5.27956C6.31207 4.24706 7.62756 3.54391 9.05969 3.25905C10.4918 2.97418 11.9763 3.12038 13.3253 3.67917C14.6743 4.23796 15.8274 5.18423 16.6386 6.39833C17.4498 7.61243 17.8828 9.03982 17.8828 10.5C17.8806 12.4574 17.1021 14.334 15.718 15.718C14.334 17.1021 12.4574 17.8806 10.5 17.8828ZM10.5 5.74219C9.23862 5.74371 8.02933 6.24546 7.1374 7.1374C6.24547 8.02933 5.74371 9.23862 5.74219 10.5C5.74219 10.6305 5.69034 10.7557 5.59803 10.848C5.50573 10.9403 5.38054 10.9922 5.25 10.9922C5.11947 10.9922 4.99428 10.9403 4.90197 10.848C4.80967 10.7557 4.75782 10.6305 4.75782 10.5C4.75955 8.97761 5.36509 7.51807 6.44158 6.44158C7.51808 5.36509 8.97761 4.75955 10.5 4.75781C10.6305 4.75781 10.7557 4.80967 10.848 4.90197C10.9403 4.99427 10.9922 5.11946 10.9922 5.25C10.9922 5.38054 10.9403 5.50573 10.848 5.59803C10.7557 5.69033 10.6305 5.74219 10.5 5.74219ZM16.2422 10.5C16.2405 12.0224 15.6349 13.4819 14.5584 14.5584C13.4819 15.6349 12.0224 16.2405 10.5 16.2422C10.3695 16.2422 10.2443 16.1903 10.152 16.098C10.0597 16.0057 10.0078 15.8805 10.0078 15.75C10.0078 15.6195 10.0597 15.4943 10.152 15.402C10.2443 15.3097 10.3695 15.2578 10.5 15.2578C11.7614 15.2563 12.9707 14.7545 13.8626 13.8626C14.7545 12.9707 15.2563 11.7614 15.2578 10.5C15.2578 10.3695 15.3097 10.2443 15.402 10.152C15.4943 10.0597 15.6195 10.0078 15.75 10.0078C15.8805 10.0078 16.0057 10.0597 16.098 10.152C16.1903 10.2443 16.2422 10.3695 16.2422 10.5ZM12.9609 10.5C12.9609 10.0133 12.8166 9.53748 12.5462 9.13278C12.2758 8.72808 11.8914 8.41265 11.4418 8.22639C10.9921 8.04013 10.4973 7.99139 10.0199 8.08635C9.54252 8.1813 9.10403 8.41569 8.75986 8.75985C8.41569 9.10402 8.18131 9.54252 8.08635 10.0199C7.9914 10.4973 8.04013 10.9921 8.22639 11.4418C8.41266 11.8914 8.72808 12.2758 9.13278 12.5462C9.53748 12.8166 10.0133 12.9609 10.5 12.9609C11.1527 12.9609 11.7786 12.7017 12.2401 12.2401C12.7017 11.7786 12.9609 11.1527 12.9609 10.5ZM9.02344 10.5C9.02344 10.208 9.11004 9.92249 9.27229 9.67967C9.43453 9.43685 9.66514 9.24759 9.93495 9.13583C10.2048 9.02408 10.5016 8.99484 10.7881 9.05181C11.0745 9.10878 11.3376 9.24941 11.5441 9.45591C11.7506 9.66241 11.8912 9.92551 11.9482 10.2119C12.0052 10.4984 11.9759 10.7952 11.8642 11.0651C11.7524 11.3349 11.5632 11.5655 11.3203 11.7277C11.0775 11.89 10.792 11.9766 10.5 11.9766C10.1084 11.9766 9.73283 11.821 9.45592 11.5441C9.17901 11.2672 9.02344 10.8916 9.02344 10.5Z" fill="black"/>
</svg>
