<svg width="107" height="107" viewBox="0 0 107 107" fill="none" xmlns="http://www.w3.org/2000/svg">
<g clip-path="url(#clip0_21_121)">
<path d="M53.3752 0C50.3363 0.014362 47.2993 0.149705 44.2713 0.405708C37.889 0.933898 31.5571 1.95493 25.3323 3.45967C20.8206 4.59992 16.3896 6.03867 12.0687 7.76642L11.8012 7.8645C11.8012 7.8645 12.3273 40.1562 12.7375 56.1527C12.8431 60.8623 13.6995 65.5249 15.2743 69.9646C17.0967 75.0157 19.5249 79.8272 22.5057 84.2937C25.6242 88.9061 29.3968 93.0406 33.705 96.5675C35.3891 97.9801 37.1644 99.2803 39.0193 100.46C41.9286 102.217 44.9658 103.754 48.1054 105.056C49.1442 105.493 50.0492 105.912 50.8696 106.193C51.7272 106.521 52.606 106.79 53.5 107C54.3941 106.789 55.2729 106.518 56.1304 106.189C56.9418 105.908 57.8558 105.493 58.8946 105.052C62.0326 103.749 65.0683 102.213 67.9762 100.455C69.8341 99.276 71.6123 97.9758 73.2995 96.563C77.606 93.0374 81.377 88.9044 84.4943 84.2937C87.4755 79.8274 89.9037 75.0159 91.7258 69.9646C93.302 65.5251 94.1599 60.8625 94.267 56.1527C94.6727 40.1562 95.2033 7.88233 95.2033 7.88233C95.1205 7.83954 95.0357 7.80085 94.9491 7.76642C90.6268 6.03847 86.1943 4.59972 81.6811 3.45967C75.4562 1.9564 69.1243 0.936855 62.7421 0.410167C59.714 0.154474 56.677 0.0176462 53.6382 0L53.3752 0ZM53.3752 1.60946H53.6293C56.6565 1.64513 59.3716 1.74321 62.381 2.01071C68.5178 2.5215 74.6056 3.50978 80.5888 4.96658C84.929 6.07313 89.1903 7.46873 93.3441 9.14404C93.4307 9.17691 93.5155 9.21411 93.5983 9.2555L93.4288 19.3938C93.4021 19.3762 93.3737 19.3613 93.3441 19.3492C89.1916 17.6743 84.9319 16.2787 80.5933 15.1717C74.6083 13.7166 68.5192 12.7298 62.381 12.2203C59.3716 11.9528 56.6699 11.7745 53.6427 11.7388H53.3841C50.3569 11.7789 47.6328 11.9528 44.6235 12.2203C38.4864 12.7344 32.3987 13.7257 26.4156 15.1851C22.0754 16.2933 17.8142 17.6904 13.6603 19.367C13.6292 19.379 13.5994 19.3939 13.5712 19.4116L13.4018 9.24213L13.6603 9.14404C17.8127 7.46888 22.0725 6.07328 26.4112 4.96658C32.3972 3.50776 38.4879 2.51798 44.6279 2.00625C47.6373 1.73875 50.348 1.64958 53.3752 1.60946ZM54.6592 2.57246C53.3186 2.54799 51.9777 2.55988 50.6377 2.60812C50.0983 2.63042 49.3537 3.09408 49.3448 3.63354L49.3136 6.52254C49.3047 7.11104 50.0805 7.57471 50.6734 7.58808C52.7332 7.63267 54.5522 7.597 56.5495 7.72183C56.6966 7.73521 56.8259 7.82438 56.8259 7.9715L56.8125 8.55108C56.8152 8.5783 56.8119 8.60577 56.8028 8.63156C56.7938 8.65736 56.7792 8.68086 56.76 8.70041C56.7409 8.71995 56.7178 8.73507 56.6922 8.74471C56.6666 8.75434 56.6392 8.75825 56.6119 8.75617C54.2891 8.75617 51.8593 8.64471 49.5098 8.83196C49.385 8.84087 49.3894 8.80967 49.385 8.9345L49.278 10.6465L49.269 10.7803C52.0636 10.6188 54.8651 10.6188 57.6596 10.7803C57.9857 10.7703 58.2985 10.649 58.5459 10.4364C58.7933 10.2239 58.9604 9.93298 59.0194 9.61217L59.0462 6.81679C59.0462 6.24167 58.3418 5.81813 57.8825 5.79138C55.912 5.66654 53.6694 5.73342 51.6676 5.67992C51.6399 5.67882 51.6127 5.67209 51.5876 5.66016C51.5625 5.64822 51.5401 5.63132 51.5218 5.61048C51.5034 5.58964 51.4895 5.56528 51.4809 5.5389C51.4722 5.51252 51.469 5.48466 51.4715 5.457L51.5116 4.81054C51.5116 4.68571 51.5963 4.65004 51.7211 4.64558C53.7006 4.57425 56.6565 4.66788 58.685 4.73029C58.7591 4.71778 58.8264 4.6797 58.8753 4.62268C58.9242 4.56566 58.9515 4.4933 58.9525 4.41821V3.00492C58.9525 2.92913 58.8099 2.70621 58.6717 2.70175C57.3348 2.64195 55.9972 2.59588 54.6592 2.57246ZM46.2775 2.85779C44.3916 2.89346 40.2989 3.41508 37.9761 3.70487L37.9627 11.77V11.8725L40.0581 11.605C40.067 11.604 40.0756 11.6011 40.0833 11.5965C40.091 11.5919 40.0976 11.5857 40.1027 11.5783C40.1127 11.5657 40.1175 11.5497 40.1161 11.5337V9.202L44.3381 8.74725C44.7082 8.68038 45.1406 8.95233 45.4795 9.50071C45.7505 9.9644 45.9235 10.4788 45.9877 11.0121L48.0697 10.856C48.1143 10.856 48.2035 10.856 48.1946 10.8115C48.1328 9.68747 47.643 8.62979 46.8259 7.85558C47.098 7.74545 47.329 7.55304 47.4864 7.30525C47.6439 7.05746 47.72 6.76666 47.7042 6.4735C47.7261 5.63409 47.6933 4.79415 47.6061 3.959C47.5349 3.65412 47.3653 3.38113 47.1236 3.18213C46.8819 2.98312 46.5815 2.86915 46.2686 2.85779H46.2775ZM62.2829 2.9425C61.8492 2.92594 61.424 3.06658 61.0857 3.33854C60.7474 3.6105 60.5187 3.99549 60.4416 4.42267L60.397 9.75038C60.4112 10.0522 60.5233 10.3412 60.7164 10.5737C60.9094 10.8062 61.1729 10.9694 61.467 11.0388C64.1866 11.293 66.8616 11.5382 69.8933 11.9974C69.9423 11.9974 70.036 11.9662 70.036 11.9216V10.0669C70.036 10.0268 69.9468 9.94208 69.9156 9.93317C67.8915 9.67904 65.221 9.32238 62.8313 9.07271C62.7603 9.05551 62.6968 9.01583 62.6502 8.95959C62.6036 8.90335 62.5764 8.83356 62.5727 8.76063V5.14046C62.5727 4.98888 62.7956 4.90863 62.9472 4.91754C65.3057 5.11371 67.6552 5.54171 70.0092 5.79583C70.0716 5.80475 70.1697 5.76463 70.1742 5.70221L70.2188 3.99913C70.2157 3.96401 70.2016 3.93077 70.1783 3.9043C70.155 3.87782 70.1239 3.85949 70.0895 3.852C67.4965 3.4859 64.8906 3.18264 62.2829 2.9425ZM71.1104 3.99913C71.0569 3.99913 71.0123 4.06154 71.0123 4.11058C70.9856 5.33217 70.8117 10.6064 70.776 12.0108V12.1311C71.4671 12.2515 72.2295 12.3451 72.7957 12.461C72.8581 12.47 72.9517 12.4254 72.9517 12.363C72.9428 11.4401 72.9517 10.3656 72.9339 9.52746C72.9339 9.4695 72.9606 9.46504 73.023 9.47396C74.6665 9.77156 76.3044 10.0986 77.9361 10.4548C77.9718 10.4548 78.168 10.486 78.168 10.5885C78.1546 11.556 78.1368 12.3719 78.11 13.3393C78.1086 13.378 78.1195 13.416 78.1412 13.4481C78.1628 13.4801 78.194 13.5045 78.2304 13.5177C78.8768 13.6648 79.4921 13.8164 80.1029 13.9635C80.2678 13.9992 80.2946 13.968 80.299 13.91C80.3971 11.8993 80.4328 8.67592 80.4595 5.95633C80.4595 5.92067 80.4462 5.86717 80.415 5.85825C79.7328 5.70221 79.0908 5.53725 78.3953 5.39013C78.3329 5.37675 78.2973 5.47929 78.2928 5.54617C78.2259 6.54038 78.2527 7.46325 78.1769 8.453C78.1769 8.48867 78.1769 8.5065 78.1367 8.49758C76.4872 8.15875 74.7261 7.79317 73.0899 7.48554C73.0453 7.47663 73.0632 7.39638 73.0676 7.34733L73.081 4.43604C73.0788 4.40419 73.0663 4.37391 73.0454 4.34979C73.0245 4.32566 72.9963 4.30899 72.9651 4.30229C72.3463 4.19559 71.731 4.09453 71.1104 3.99913ZM35.3724 4.10167C35.3175 4.09831 35.2624 4.09831 35.2075 4.10167C32.7866 4.48508 30.3523 4.99779 27.8958 5.52833C27.5018 5.64247 27.147 5.86307 26.8704 6.16588C26.6119 6.40452 26.4501 6.72975 26.4156 7.07983L26.4335 12.0643C26.4523 12.5016 26.6189 12.9197 26.906 13.2502C27.0039 13.4021 27.1386 13.5267 27.2977 13.6124C27.4567 13.6982 27.6349 13.7423 27.8155 13.7406C30.2317 13.2082 32.6591 12.7281 35.096 12.3005C35.564 12.19 35.9834 11.9303 36.2908 11.5605C36.5536 11.2814 36.7085 10.9179 36.7277 10.535L36.7188 5.35C36.7031 5.17682 36.6513 5.00884 36.5669 4.85682C36.4824 4.70481 36.3671 4.57212 36.2284 4.46725C35.9953 4.25205 35.6938 4.12578 35.3769 4.11058L35.3724 4.10167ZM44.989 4.97996C45.0768 4.97497 45.163 5.00427 45.2296 5.06167C45.2961 5.11906 45.3378 5.20007 45.3457 5.28758L45.3591 6.13021C45.356 6.30653 45.2923 6.4764 45.1786 6.6112C45.0649 6.74601 44.9082 6.83751 44.7349 6.87029L40.0002 7.33396L39.96 7.29829V5.48375L40.0002 5.46592L44.9534 4.98442C44.9653 4.98379 44.9772 4.98379 44.989 4.98442V4.97996ZM33.754 6.27287C33.8763 6.27652 33.9957 6.31021 34.1018 6.37096C34.1805 6.42101 34.2444 6.49125 34.2867 6.57437C34.3291 6.65749 34.3483 6.75044 34.3425 6.84354L34.3024 9.98221C34.3065 10.0721 34.2887 10.1616 34.2507 10.2431C34.2127 10.3246 34.1555 10.3957 34.084 10.4503C33.9235 10.5593 33.7407 10.6309 33.549 10.6599C32.0697 10.9545 30.588 11.2369 29.104 11.507C29.037 11.5237 28.9672 11.5257 28.8994 11.5126C28.8316 11.4995 28.7676 11.4717 28.7117 11.4312C28.6605 11.3697 28.6222 11.2985 28.5992 11.2219C28.5762 11.1453 28.569 11.0648 28.5779 10.9853V7.74858C28.5804 7.58704 28.6442 7.43248 28.7563 7.31613C28.9059 7.17852 29.0913 7.08582 29.2913 7.04862C30.5842 6.80788 32.2783 6.4735 33.6069 6.28179C33.6555 6.27396 33.7048 6.27097 33.754 6.27287ZM81.9486 6.27287L81.9442 6.27733C81.9085 6.27733 81.9085 6.33083 81.9085 6.36204C81.8461 9.06379 81.7747 11.5649 81.7525 14.2667C81.7525 14.3246 81.7792 14.4004 81.8327 14.4138C85.0907 15.2897 88.3019 16.3314 91.4538 17.5346C91.5965 17.5837 91.592 17.4767 91.592 17.4365C91.6054 16.8213 91.6366 16.1971 91.6054 15.5819C91.6015 15.5497 91.5892 15.5191 91.5696 15.4932C91.55 15.4674 91.5239 15.4472 91.4939 15.4347C89.071 14.5015 86.6006 13.6964 84.0931 13.0228C84.0688 13.0145 84.0476 12.999 84.0324 12.9782C84.0172 12.9575 84.0089 12.9326 84.0084 12.9069L84.044 12.1044C84.044 12.0687 84.1065 12.0598 84.1421 12.0687C86.6553 12.7741 89.1391 13.5802 91.5875 14.4851C91.6321 14.4985 91.6321 14.4405 91.6321 14.4004C91.6639 13.7053 91.6639 13.0091 91.6321 12.3139C91.6307 12.2879 91.6214 12.2628 91.6055 12.2421C91.5896 12.2215 91.5678 12.2061 91.543 12.198C89.1409 11.3235 86.7046 10.5456 84.2402 9.86629C84.2046 9.85738 84.16 9.82171 84.16 9.78604V8.93004C84.16 8.89438 84.2179 8.87208 84.2536 8.88546C86.7681 9.52746 89.5323 10.4905 91.4538 11.1993C91.6232 11.2618 91.7213 11.235 91.7213 11.079C91.7213 10.379 91.748 10.33 91.7124 9.63446C91.7035 9.54529 91.6945 9.45613 91.6143 9.42492C88.4493 8.20291 85.2213 7.15074 81.9442 6.27287H81.9486ZM24.124 6.55821C23.9981 6.55704 23.8724 6.57051 23.7495 6.59833C20.8516 7.33842 17.9403 8.44408 15.029 9.50517C14.9892 9.52963 14.9561 9.56365 14.9328 9.60413C14.9094 9.64461 14.8965 9.69028 14.8953 9.737V16.2729L14.9087 17.7442C14.9087 17.7442 17.0085 16.955 17.4633 16.8079C17.5213 16.7901 17.5213 16.7321 17.5213 16.6697L17.4767 14.3514C17.4767 14.2845 17.4856 14.1864 17.548 14.173L24.7928 11.935C25.0365 11.8464 25.2499 11.6902 25.408 11.4847C25.5658 11.2879 25.6481 11.0412 25.6399 10.7892L25.5641 7.74413C25.5452 7.56785 25.4879 7.39785 25.3963 7.2461C25.3046 7.09435 25.1808 6.96455 25.0335 6.86583C24.7677 6.67574 24.4508 6.5701 24.124 6.56267V6.55821ZM22.849 8.76954C23.0095 8.72496 23.161 8.90775 23.17 9.05042C23.2128 9.42032 23.2307 9.79269 23.2235 10.165C23.219 10.3656 22.9292 10.5975 22.733 10.6554L17.4544 12.3763C17.4053 12.3942 17.3162 12.3763 17.3162 12.3228L17.3251 10.7268C17.3251 10.651 17.4142 10.5885 17.4856 10.5662C19.2366 9.86273 21.0275 9.26279 22.849 8.76954ZM53.9102 13.1432C56.8215 13.1877 59.4652 13.2769 62.381 13.5355C68.5163 14.0466 74.6025 15.0349 80.5844 16.4914C84.9246 17.5975 89.1859 18.9932 93.3397 20.6688C93.3612 20.6777 93.3821 20.6881 93.4021 20.7C93.39 21.3658 93.3796 22.0316 93.3709 22.6974H53.9102V13.1432ZM52.4969 13.1521L52.4924 33.7407H39.3537C39.162 33.7228 39.2868 33.6381 39.4206 33.5088C40.3618 32.8057 41.4527 32.3297 42.6083 32.1178C42.7064 32.1089 42.7331 32.0554 42.5949 31.8771C42.0624 31.346 41.391 30.9756 40.6577 30.8085C39.9244 30.6413 39.1588 30.6841 38.4487 30.9319C37.8105 31.1379 37.2279 31.4872 36.7457 31.9532C36.2634 32.4193 35.8943 32.9895 35.6667 33.6203C35.6574 33.6604 35.6346 33.696 35.6021 33.7212C35.5696 33.7464 35.5294 33.7596 35.4883 33.7585C34.7907 33.8022 34.0918 33.8215 33.3929 33.8165C33.2815 33.8165 33.228 33.6738 33.2369 33.5668C33.3284 33.1208 33.5115 32.6987 33.7748 32.3272C34.038 31.9558 34.3756 31.6431 34.7661 31.409C35.458 30.9532 36.254 30.6802 37.08 30.6154C37.1078 30.607 37.1331 30.592 37.1539 30.5717C37.1746 30.5513 37.19 30.5262 37.1988 30.4985C37.2076 30.4708 37.2094 30.4414 37.2043 30.4128C37.1991 30.3842 37.187 30.3574 37.1691 30.3345C37.0327 30.1756 36.8752 30.0361 36.701 29.9199C36.0141 29.5494 35.2202 29.4281 34.454 29.5766C33.3571 29.683 32.3326 30.1718 31.5599 30.9576C30.7872 31.7433 30.3155 32.7759 30.2275 33.8744C30.1829 34.1419 30.2542 34.2043 29.9912 34.2935C29.4919 34.4629 28.5556 34.5788 28.0563 34.6858C27.9671 34.6992 27.8334 34.4941 27.8557 34.405C28.0409 33.558 28.4125 32.763 28.9435 32.0777C29.3475 31.5359 29.8687 31.0924 30.4683 30.7803C30.5842 30.7224 30.6912 30.5842 30.5842 30.495C29.4562 29.5142 27.1468 30.5485 26.215 31.5695C25.3352 32.7321 24.9003 34.1712 24.989 35.6265C24.989 35.6979 25.0514 35.8093 24.989 35.8361C24.4044 36.0846 23.8094 36.3077 23.2056 36.5048C23.1521 36.5182 23.1432 36.38 23.1343 36.3265C22.9559 35.2735 23.1906 34.1924 23.7897 33.3082C24.0514 32.8606 24.4267 32.49 24.8775 32.2337C24.9221 32.207 24.9132 32.1535 24.8775 32.1089C24.3648 31.4446 22.3407 31.9217 21.721 32.528C20.2943 33.919 20.3969 35.2699 20.33 37.4188C20.3255 37.5213 20.1963 37.9137 20.0803 37.9672C19.8271 38.118 19.5495 38.2236 19.26 38.2793C19.1664 38.306 19.1575 38.3417 19.1352 38.248C19.0582 37.9973 18.9254 37.7671 18.7468 37.5749C18.5683 37.3827 18.3485 37.2334 18.104 37.1382C17.8596 37.043 17.5967 37.0044 17.3352 37.0252C17.0737 37.0459 16.8203 37.1257 16.5939 37.2583C16.4028 37.3812 16.2403 37.5437 16.1174 37.7347C15.9945 37.9258 15.9141 38.1411 15.8815 38.3659C15.849 38.5908 15.8651 38.82 15.9288 39.0381C15.9924 39.2562 16.1022 39.4581 16.2506 39.6301C16.3175 39.7059 16.3398 39.7817 16.2372 39.8129C15.9988 39.8863 15.7775 40.0066 15.5861 40.1667C15.3948 40.3268 15.2375 40.5235 15.1233 40.7453C15.009 40.9671 14.9403 41.2095 14.9211 41.4582C14.9018 41.7069 14.9325 41.957 15.0112 42.1937C15.1185 42.4597 15.2998 42.6893 15.5338 42.8553C15.7677 43.0213 16.0444 43.1166 16.3309 43.1299C16.9176 43.1463 17.4947 42.9779 17.9805 42.6484C18.0009 42.6338 18.0241 42.6233 18.0487 42.6176C18.0732 42.6119 18.0986 42.6111 18.1234 42.6153C18.1483 42.6194 18.1721 42.6284 18.1934 42.6418C18.2148 42.6551 18.2333 42.6725 18.248 42.693C18.4889 43.0799 18.8735 43.3553 19.3173 43.459C19.7611 43.5626 20.228 43.486 20.6153 43.2458C21.3376 42.7688 21.6586 42.0287 21.1236 40.7536C21.0924 40.6823 21.2127 40.5485 21.2752 40.5129C25.5463 38.0545 30.3654 36.7057 35.2922 36.5895C35.9867 36.6497 36.6702 36.8011 37.3252 37.0398C37.3607 37.0472 37.3952 37.0592 37.4277 37.0755L37.4366 41.2708C37.3904 41.3135 37.3396 41.3508 37.285 41.3822C36.3702 41.9427 35.6868 42.8127 35.359 43.8343C35.3412 43.9101 35.3323 43.928 35.203 43.9413C34.3425 44.026 33.4241 44.1509 32.5681 44.2178C32.5191 44.2267 32.4255 44.133 32.4433 44.084C33.0635 42.4256 34.1956 41.0078 35.6756 40.0358C35.714 39.9974 35.739 39.9476 35.7471 39.8938C35.7551 39.8401 35.7457 39.7851 35.7202 39.7371C35.5107 39.5363 35.2526 39.3934 34.9712 39.3225C34.2267 39.266 33.4792 39.3822 32.7871 39.6622C32.0949 39.9421 31.4768 40.3782 30.981 40.9364C30.0924 42.0437 29.6024 43.4178 29.59 44.8375C29.5855 44.9355 29.6033 45.096 29.5053 45.1273C28.9524 45.3011 28.3416 45.4572 27.7665 45.6177C27.6996 45.6355 27.6105 45.5686 27.5971 45.4973C27.4519 44.6026 27.5813 43.6849 27.9681 42.8651C28.3549 42.0454 28.9809 41.362 29.7638 40.9052C29.9912 40.7269 29.5944 40.4505 29.3091 40.4505C28.4742 40.4052 27.6443 40.6047 26.9212 41.0244C26.1981 41.4442 25.6133 42.066 25.2386 42.8134C24.8269 43.9492 24.7802 45.1852 25.1049 46.3488C25.1183 46.4514 25.1896 46.6297 25.0781 46.6565C24.7259 46.7412 23.8967 47.0577 23.6381 47.138C23.5445 47.1692 23.482 47.1246 23.4285 47.0042C23.2252 46.2967 23.1931 45.5509 23.3349 44.8285C23.5369 44.0051 23.9485 43.2479 24.5297 42.6306C24.5654 42.586 24.5788 42.4879 24.5297 42.4656C23.9999 42.2262 23.4013 42.1866 22.8445 42.3542C22.39 42.4692 21.9652 42.6799 21.5985 42.972C21.2318 43.2641 20.9316 43.6311 20.7179 44.0483C20.009 45.3725 20.1918 46.6475 20.9452 48.529C20.9809 48.6181 21.0255 48.7875 20.9452 48.841L20.3345 49.1977C20.2587 49.2557 20.1918 49.2066 20.1383 49.1308C19.8931 48.7831 19.5855 48.2303 19.202 48.0608C18.9 47.9104 18.5625 47.8454 18.2262 47.8729C17.8899 47.9004 17.5675 48.0193 17.2939 48.2169C17.0263 48.4496 16.8329 48.7557 16.7378 49.0973C16.6427 49.4389 16.65 49.8009 16.7589 50.1384C16.8835 50.3792 17.033 50.6063 17.2047 50.8161C17.2493 50.8785 17.2002 50.9766 17.1467 51.0256C16.8837 51.2575 16.5226 51.4269 16.3086 51.6498C16.0766 51.9486 15.947 52.3142 15.939 52.6924C15.9309 53.0706 16.0449 53.4413 16.264 53.7497C16.4818 54.0609 16.8017 54.286 17.1681 54.3862C17.5345 54.4864 17.9244 54.4552 18.2703 54.298C18.6291 54.1449 18.975 53.963 19.3046 53.7541C19.425 53.6739 19.5052 53.5267 19.6167 53.6427C19.8869 53.9504 20.2304 54.1851 20.6153 54.3248C20.8827 54.3962 21.1624 54.4085 21.435 54.3607C21.7075 54.313 21.9664 54.2064 22.1936 54.0484C22.4694 53.9177 22.6933 53.698 22.8292 53.4247C22.965 53.1514 23.005 52.8403 22.9426 52.5415C22.8023 52.1059 22.5865 51.6985 22.305 51.3377C22.1579 51.1817 22.149 51.1906 22.305 51.097C24.6312 49.7235 27.1166 48.6395 29.7059 47.8691C32.1466 47.1351 34.6947 46.823 37.2405 46.9463H37.4455L37.4589 55.6355H14.2934C14.0527 46.1259 13.7762 31.0701 13.5979 20.7C13.618 20.6882 13.6388 20.6778 13.6603 20.6688C17.8126 18.9933 22.0724 17.5977 26.4112 16.4914C32.3945 15.0347 38.4822 14.0464 44.619 13.5355C47.2407 13.3082 49.87 13.1803 52.5013 13.1521H52.4969ZM38.7295 16.7901C37.619 16.8158 36.5421 17.1763 35.6399 17.8244C34.3648 18.6626 33.6069 21.2707 33.4553 22.2025C33.4476 22.2452 33.4258 22.2841 33.3936 22.3132C33.3613 22.3422 33.3203 22.3598 33.277 22.363C32.2626 22.491 31.2563 22.6771 30.2632 22.9203C30.232 22.9247 30.2097 22.8757 30.2097 22.8445C30.2869 21.8634 30.692 20.9369 31.3599 20.2141C32.0379 19.5606 32.7735 18.9697 33.5579 18.4486C33.6158 18.3995 33.5757 18.248 33.5044 18.2212C32.938 17.9948 32.3323 17.883 31.7224 17.8922C31.1125 17.9014 30.5104 18.0314 29.9511 18.2747C29.1618 18.6094 28.4711 19.1401 27.9444 19.8166C27.4178 20.4931 27.0726 21.2928 26.9417 22.1401C26.8378 22.7436 26.7945 23.3559 26.8124 23.968C26.8213 24.0438 26.6787 24.0483 26.6118 24.0705C25.515 24.4138 24.3648 24.8151 23.4464 25.1227C23.4018 25.1405 23.2725 25.1316 23.2725 25.0781C23.2381 24.049 23.5096 23.0328 24.0527 22.1579C24.5877 21.2885 25.5819 20.7981 26.3042 20.067C26.3532 20.0135 26.429 19.8708 26.3532 19.8396C24.5253 19.104 22.7999 19.8574 21.342 21.5115C20.8484 22.2366 20.5138 23.058 20.3601 23.9216C20.2064 24.7853 20.2372 25.6717 20.4504 26.5226C20.4905 26.6831 20.4504 26.857 20.3657 26.8927C20.0333 27.0482 19.6907 27.1807 19.3402 27.2895C19.3247 27.2949 19.3082 27.2968 19.2918 27.2951C19.2755 27.2934 19.2597 27.2881 19.2457 27.2796C19.2316 27.2711 19.2196 27.2595 19.2105 27.2458C19.2014 27.2321 19.1955 27.2166 19.1931 27.2003C18.7785 25.8806 17.2315 26.1392 16.5315 26.5405C16.1616 26.7487 15.8889 27.0946 15.7728 27.5029C15.6568 27.9113 15.7067 28.3489 15.9118 28.7206C15.9223 28.7362 15.9295 28.7538 15.9329 28.7724C15.9364 28.7909 15.936 28.8099 15.9318 28.8283C15.9277 28.8467 15.9198 28.864 15.9087 28.8792C15.8976 28.8944 15.8834 28.9072 15.8672 28.9168C15.6312 29.0295 15.42 29.1881 15.246 29.3834C15.0719 29.5786 14.9385 29.8065 14.8534 30.0538C14.7683 30.3011 14.7334 30.5629 14.7505 30.8239C14.7676 31.0849 14.8366 31.3398 14.9533 31.5739C15.1503 31.8822 15.4488 32.1119 15.7972 32.2234C16.1456 32.335 16.522 32.3213 16.8614 32.1847C17.2479 32.0358 17.6159 31.8428 17.9582 31.6096C17.9797 31.5989 18.0039 31.5948 18.0278 31.598C18.0516 31.6012 18.074 31.6114 18.0919 31.6274C18.2298 31.8222 18.406 31.9867 18.6097 32.1109C18.8135 32.2352 19.0404 32.3165 19.2767 32.3499C19.513 32.3833 19.7536 32.3681 19.9838 32.3052C20.214 32.2423 20.4289 32.133 20.6153 31.9841C21.128 31.6185 21.3287 31.5561 21.5248 30.8962C21.554 30.6577 21.5334 30.4157 21.4644 30.1855C21.3953 29.9552 21.2793 29.7419 21.1236 29.5588C21.0701 29.5142 21.1191 29.3804 21.1815 29.3492C26.9766 26.3639 33.372 24.7285 39.8887 24.5654C42.2544 24.6355 44.5267 25.5045 46.3355 27.0309C46.3662 27.0753 46.4076 27.1113 46.4559 27.1354C46.5043 27.1596 46.5579 27.1712 46.6119 27.1691C46.6669 27.1461 46.7167 27.1121 46.7581 27.0692C46.7995 27.0262 46.8317 26.9753 46.8526 26.9194C47.0038 26.3812 46.9986 25.8111 46.8375 25.2758C46.6764 24.7404 46.3662 24.2621 45.9431 23.8967C45.2052 23.127 44.2557 22.5933 43.2146 22.363C43.1611 22.3496 43.1255 22.2337 43.17 22.198C43.594 21.7705 44.1028 21.4364 44.6636 21.2172C45.5548 21.0668 46.4571 20.9922 47.3609 20.9943C47.4233 20.9898 47.5169 20.9274 47.4946 20.8695C47.318 20.3765 47.0018 19.9455 46.5847 19.6289C46.1676 19.3123 45.6674 19.1237 45.1451 19.0861C44.0939 18.955 43.0267 19.109 42.0555 19.532C41.0522 20.0745 40.2654 20.9448 39.8263 21.9974C39.8131 22.024 39.7928 22.0464 39.7676 22.0622C39.7424 22.0779 39.7133 22.0864 39.6836 22.0866C38.8013 22.0546 37.9182 22.0442 37.0354 22.0554C36.973 22.0554 36.8793 22.0554 36.8793 21.993C37.0084 21.1248 37.4059 20.3188 38.0162 19.688C38.9029 18.9194 39.9334 18.3345 41.0479 17.9671C41.1326 17.9403 41.2262 17.8066 41.1772 17.7397C40.9443 17.4181 40.6368 17.158 40.281 16.9818C39.7766 16.848 39.2557 16.7864 38.734 16.799L38.7295 16.7901ZM53.9102 23.9546H93.3441C93.2906 27.013 93.2327 30.3434 93.1658 33.7407H53.9102V23.9546ZM38.7028 34.7795L68.422 34.7928C68.4396 34.7914 68.4571 34.7966 68.4711 34.8073C68.485 34.818 68.4946 34.8335 68.4978 34.8508L68.4889 57.7577C68.4666 58.9206 68.2512 60.0717 67.8514 61.1639C66.668 64.3944 64.3985 67.1131 61.4314 68.8545C59.0846 70.2572 56.4078 71.0126 53.6739 71.0435C49.9673 70.9985 46.3969 69.6398 43.598 67.2094C42.0858 65.9469 40.8631 64.3737 40.013 62.5966C39.1629 60.8195 38.7054 58.8803 38.6716 56.9106L38.6404 34.8642C38.6404 34.8062 38.6448 34.7795 38.7028 34.7795ZM69.8844 35.1629H93.1435C93.09 38.0385 93.032 40.9409 92.9919 43.7496H69.8844V37.0844V35.1629ZM39.3938 35.4794C39.3359 35.4794 39.3314 35.5017 39.3314 35.5597L39.3626 56.7501C39.3911 58.6434 39.8252 60.5086 40.6359 62.2199C41.4465 63.9311 42.6147 65.4486 44.0617 66.6699C46.7206 69.0021 50.1241 70.3094 53.6605 70.357C56.2714 70.3265 58.8266 69.5984 61.0613 68.2482C63.8991 66.5656 66.0644 63.9496 67.1871 60.8473C67.5676 59.7972 67.7725 58.6916 67.7934 57.5749L67.8023 35.5508C67.8018 35.542 67.7995 35.5334 67.7956 35.5255C67.7917 35.5176 67.7863 35.5105 67.7796 35.5047C67.773 35.4989 67.7653 35.4945 67.757 35.4917C67.7486 35.4889 67.7398 35.4877 67.731 35.4883L39.3938 35.4794ZM59.171 36.8348C59.1695 36.8347 59.1725 36.8347 59.171 36.8348C59.2581 36.8478 59.3446 36.8841 59.4128 36.9398C59.4811 36.9955 59.5331 37.0686 59.5633 37.1513L60.6423 40.339C60.6642 40.3885 60.6744 40.4425 60.6721 40.4966C60.6697 40.5507 60.655 40.6036 60.6289 40.6511C60.5998 40.6864 60.5629 40.7145 60.5211 40.733C60.4794 40.7516 60.4338 40.7602 60.3881 40.7581C60.3265 40.7595 60.2661 40.7412 60.2156 40.706C60.1651 40.6707 60.1271 40.6202 60.1073 40.5619L59.9378 40.0046H58.4666L58.3061 40.5753C58.2615 40.7536 58.1278 40.7715 57.9895 40.7715C57.9498 40.7659 57.9118 40.7518 57.8779 40.7303C57.8441 40.7088 57.8153 40.6802 57.7934 40.6466C57.7677 40.6145 57.7503 40.5766 57.7425 40.5362C57.7348 40.4958 57.7369 40.4542 57.7488 40.4148L58.7831 37.1691C58.8062 37.0806 58.8556 37.0012 58.9249 36.9414C58.9942 36.8817 59.08 36.8445 59.171 36.8348ZM55.7693 36.866C55.8034 36.8642 55.8377 36.8642 55.8718 36.866C56.0992 36.8509 56.3251 36.9114 56.5146 37.038C56.704 37.1646 56.8464 37.3501 56.9195 37.5659C56.9285 37.5922 56.9319 37.6201 56.9297 37.6478C56.9276 37.6755 56.9198 37.7025 56.9068 37.7271C56.8939 37.7517 56.8761 37.7734 56.8545 37.7909C56.833 37.8084 56.8081 37.8214 56.7813 37.829C56.7278 37.8568 56.6656 37.863 56.6076 37.8464C56.5495 37.8299 56.5 37.7917 56.4693 37.7398C56.4128 37.6288 56.3293 37.5339 56.2264 37.4637C56.1236 37.3936 56.0047 37.3505 55.8808 37.3385C55.7491 37.3466 55.6227 37.3932 55.5173 37.4724C55.4119 37.5517 55.3321 37.6602 55.2878 37.7844C55.1304 38.0908 55.0464 38.4297 55.0426 38.7741C55.0339 39.124 55.104 39.4714 55.2477 39.7906C55.3005 39.9285 55.3951 40.0464 55.5182 40.1279C55.6412 40.2094 55.7867 40.2505 55.9342 40.2454C56.1634 40.1775 56.3622 40.0327 56.497 39.8353C56.6318 39.638 56.6944 39.4002 56.6743 39.162V38.9881H56.0725C56.036 38.9896 55.9996 38.9832 55.9658 38.9694C55.932 38.9555 55.9016 38.9346 55.8766 38.9079C55.8517 38.8813 55.8327 38.8495 55.8211 38.8149C55.8095 38.7803 55.8055 38.7436 55.8094 38.7073C55.8094 38.6047 55.8406 38.4843 56.0725 38.4843H56.9285C57.2138 38.4843 57.2539 38.6983 57.2539 38.8856C57.2594 39.1125 57.243 39.3395 57.2049 39.5633C57.1162 39.9832 56.8787 40.3568 56.5361 40.6154C56.3339 40.737 56.1033 40.8031 55.8674 40.8071C55.6554 40.8036 55.4486 40.7412 55.2699 40.6271C55.0912 40.513 54.9477 40.3515 54.8553 40.1607C54.628 39.7363 54.5158 39.2598 54.5299 38.7786C54.521 38.3025 54.6445 37.8333 54.8865 37.4233C54.9688 37.2586 55.0945 37.1196 55.2501 37.0214C55.4057 36.9231 55.5853 36.8694 55.7693 36.866ZM42.4478 36.8749C42.4537 36.8748 42.4597 36.8748 42.4656 36.8749C43.2815 36.8838 43.549 37.3698 43.549 37.5436C43.549 37.6997 43.277 37.9003 43.1255 37.7175C43.0385 37.6183 42.9306 37.5397 42.8095 37.4873C42.6885 37.4349 42.5573 37.41 42.4255 37.4143C42.2821 37.3995 42.1378 37.4338 42.0164 37.5115C41.8949 37.5893 41.8034 37.7059 41.7568 37.8423C41.7433 37.9095 41.7436 37.9787 41.7575 38.0458C41.7715 38.1128 41.7989 38.1764 41.838 38.2326C41.8771 38.2888 41.9272 38.3365 41.9853 38.3729C42.0434 38.4093 42.1082 38.4335 42.1758 38.4442C42.5948 38.4696 43.0023 38.5917 43.3662 38.8009H43.3617C43.4856 38.8926 43.5838 39.0145 43.647 39.155C43.7102 39.2955 43.7364 39.4499 43.7229 39.6034C43.7297 39.8926 43.6224 40.1728 43.4242 40.3836C43.2776 40.5214 43.1041 40.6274 42.9146 40.695C42.7251 40.7625 42.5236 40.79 42.323 40.7759C42.0899 40.7844 41.8587 40.7311 41.6528 40.6215C41.4469 40.5119 41.2736 40.3498 41.1504 40.1517C41.1326 40.1072 41.1058 39.8709 41.302 39.804C41.3677 39.7886 41.4364 39.7912 41.5008 39.8116C41.5651 39.832 41.6228 39.8694 41.6676 39.9199C41.8577 40.0947 42.1049 40.1946 42.3631 40.2008C42.6027 40.2085 42.837 40.1293 43.0229 39.9779C43.0907 39.9125 43.1372 39.8281 43.1563 39.7358C43.1754 39.6436 43.1662 39.5477 43.1299 39.4607C43.0366 39.3196 42.9083 39.2051 42.7574 39.1285C42.6066 39.0519 42.4384 39.0158 42.2695 39.0238C41.9833 39.0221 41.7087 38.9103 41.5026 38.7117C41.3917 38.5966 41.3068 38.459 41.2537 38.3083C41.2006 38.1575 41.1806 37.9971 41.195 37.8379C41.2095 37.6909 41.2572 37.5492 41.3344 37.4233C41.4116 37.2974 41.5164 37.1907 41.6408 37.1112C41.8797 36.9526 42.1611 36.8702 42.4478 36.8749ZM49.7996 36.8749C49.7981 36.8749 49.8011 36.8749 49.7996 36.8749C49.8085 36.8744 49.8219 36.8744 49.8308 36.8749H51.4135C51.4486 36.8749 51.4834 36.8818 51.5159 36.8952C51.5483 36.9087 51.5778 36.9284 51.6027 36.9532C51.6275 36.9781 51.6472 37.0076 51.6606 37.04C51.6741 37.0725 51.681 37.1073 51.681 37.1424C51.681 37.1775 51.6741 37.2123 51.6606 37.2447C51.6472 37.2772 51.6275 37.3067 51.6027 37.3315C51.5778 37.3564 51.5483 37.3761 51.5159 37.3895C51.4834 37.403 51.4486 37.4099 51.4135 37.4099L50.9053 37.4188V40.4594C50.8967 40.5272 50.8636 40.5896 50.8123 40.6348C50.761 40.68 50.695 40.7049 50.6266 40.7049C50.5582 40.7049 50.4922 40.68 50.4409 40.6348C50.3896 40.5896 50.3566 40.5272 50.348 40.4594V37.4143H49.8308C49.7598 37.4185 49.6902 37.3943 49.6371 37.347C49.584 37.2998 49.5518 37.2334 49.5477 37.1624C49.5435 37.0915 49.5678 37.0218 49.615 36.9687C49.6622 36.9156 49.7286 36.8835 49.7996 36.8793V36.8749ZM52.2962 36.8749C52.2977 36.8749 52.2992 36.8749 52.3007 36.8749C52.3096 36.8744 52.3186 36.8744 52.3275 36.8749H53.9057C53.9408 36.8749 53.9756 36.8818 54.0081 36.8952C54.0405 36.9087 54.07 36.9284 54.0949 36.9532C54.1197 36.9781 54.1394 37.0076 54.1528 37.04C54.1663 37.0725 54.1732 37.1073 54.1732 37.1424C54.1732 37.1775 54.1663 37.2123 54.1528 37.2447C54.1394 37.2772 54.1197 37.3067 54.0949 37.3315C54.07 37.3564 54.0405 37.3761 54.0081 37.3895C53.9756 37.403 53.9408 37.4099 53.9057 37.4099L53.3975 37.4188V40.4594C53.3889 40.5272 53.3558 40.5896 53.3045 40.6348C53.2532 40.68 53.1872 40.7049 53.1188 40.7049C53.0504 40.7049 52.9844 40.68 52.9331 40.6348C52.8818 40.5896 52.8488 40.5272 52.8402 40.4594V37.4143H52.3275C52.2565 37.4185 52.1868 37.3943 52.1337 37.347C52.0806 37.2998 52.0485 37.2334 52.0444 37.1624C52.0402 37.0915 52.0644 37.0218 52.1117 36.9687C52.1589 36.9156 52.2253 36.8835 52.2962 36.8793V36.8749ZM64.5121 36.8749C64.5151 36.8748 64.518 36.8748 64.521 36.8749C64.5299 36.8744 64.5388 36.8744 64.5477 36.8749H66.1215C66.1567 36.8749 66.1915 36.8818 66.2239 36.8952C66.2564 36.9087 66.2859 36.9284 66.3107 36.9532C66.3355 36.9781 66.3552 37.0076 66.3687 37.04C66.3821 37.0725 66.389 37.1073 66.389 37.1424C66.389 37.1775 66.3821 37.2123 66.3687 37.2447C66.3552 37.2772 66.3355 37.3067 66.3107 37.3315C66.2859 37.3564 66.2564 37.3761 66.2239 37.3895C66.1915 37.403 66.1567 37.4099 66.1215 37.4099L65.6222 37.4188V40.4594C65.6136 40.5272 65.5806 40.5896 65.5293 40.6348C65.478 40.68 65.4119 40.7049 65.3436 40.7049C65.2752 40.7049 65.2092 40.68 65.1579 40.6348C65.1066 40.5896 65.0735 40.5272 65.0649 40.4594V37.4143H64.5477C64.4768 37.4185 64.4071 37.3943 64.354 37.347C64.3009 37.2998 64.2688 37.2334 64.2646 37.1624C64.2605 37.0915 64.2847 37.0218 64.332 36.9687C64.3792 36.9156 64.4456 36.8835 64.5165 36.8793L64.5121 36.8749ZM61.4938 36.8927C61.5116 36.891 61.5295 36.891 61.5473 36.8927H62.3944C62.7225 36.8831 63.0459 36.9733 63.3217 37.1513C63.4635 37.2605 63.58 37.3992 63.6631 37.5577C63.7462 37.7163 63.794 37.8909 63.8032 38.0697C63.8226 38.2313 63.8042 38.3952 63.7492 38.5485C63.6943 38.7017 63.6044 38.84 63.4867 38.9525C63.3408 39.1026 63.1623 39.217 62.965 39.2868L62.8759 39.318L63.5803 40.2097C63.6436 40.2778 63.68 40.3665 63.6828 40.4594C63.6739 40.602 63.5803 40.6823 63.4153 40.6823C63.367 40.6843 63.319 40.6743 63.2754 40.6533C63.2319 40.6323 63.1942 40.6009 63.1657 40.5619L62.332 39.4117H61.8103V40.4371C61.8158 40.476 61.8124 40.5157 61.8005 40.5532C61.7886 40.5907 61.7684 40.6251 61.7415 40.6537C61.7145 40.6824 61.6815 40.7046 61.6448 40.7188C61.6081 40.733 61.5687 40.7388 61.5295 40.7358C61.4908 40.7374 61.4523 40.7305 61.4165 40.7157C61.3808 40.7009 61.3486 40.6786 61.3224 40.6502C61.2961 40.6218 61.2763 40.588 61.2643 40.5512C61.2523 40.5145 61.2485 40.4755 61.253 40.4371V37.2003C61.2484 37.1198 61.2738 37.0403 61.3244 36.9774C61.3693 36.9304 61.4292 36.9005 61.4938 36.8927ZM44.24 36.9016C44.2445 36.9015 44.249 36.9015 44.2534 36.9016H45.845C45.9166 36.9016 45.9852 36.93 46.0358 36.9806C46.0864 37.0312 46.1148 37.0998 46.1148 37.1714C46.1148 37.2429 46.0864 37.3115 46.0358 37.3621C45.9852 37.4127 45.9166 37.4411 45.845 37.4411H45.3279V40.4906C45.3193 40.5584 45.2862 40.6208 45.2349 40.666C45.1836 40.7112 45.1176 40.7361 45.0492 40.7361C44.9809 40.7361 44.9148 40.7112 44.8635 40.666C44.8122 40.6208 44.7792 40.5584 44.7706 40.4906V37.4411H44.2534C44.1825 37.4429 44.1137 37.4164 44.0623 37.3675C44.0109 37.3186 43.981 37.2512 43.9792 37.1803C43.9775 37.1093 44.0039 37.0406 44.0528 36.9892C44.1018 36.9377 44.1691 36.9034 44.24 36.9016ZM46.8392 36.9016C46.8422 36.9016 46.8452 36.9016 46.8482 36.9016C46.8862 36.9004 46.924 36.9069 46.9594 36.9208C46.9949 36.9346 47.0271 36.9555 47.0542 36.9822C47.0813 37.0089 47.1027 37.0408 47.1171 37.076C47.1315 37.1112 47.1386 37.1489 47.138 37.187V39.2868C47.1224 39.5229 47.18 39.7579 47.3029 39.96C47.3692 40.0454 47.4556 40.1129 47.5545 40.1565C47.6533 40.2001 47.7614 40.2183 47.8691 40.2097C47.9757 40.2202 48.0832 40.2027 48.1809 40.1589C48.2787 40.1151 48.3633 40.0466 48.4264 39.96C48.5435 39.7575 48.5978 39.5247 48.5825 39.2913V37.1825C48.5911 37.1147 48.6286 37.0523 48.6799 37.0071C48.7312 36.9619 48.7972 36.9369 48.8656 36.9369C48.9339 36.9369 49 36.9619 49.0513 37.0071C49.1026 37.0523 49.1356 37.1147 49.1442 37.1825V39.1085C49.175 39.5138 49.0884 39.9193 48.8945 40.2766C48.7809 40.4365 48.6271 40.5636 48.4486 40.645C48.2701 40.7264 48.0733 40.7593 47.878 40.7402C47.6818 40.7564 47.4847 40.7223 47.3053 40.6412C47.1259 40.5601 46.9701 40.4346 46.8526 40.2766C46.6466 39.9234 46.5518 39.5164 46.5807 39.1085V37.1825C46.5804 37.1117 46.607 37.0435 46.6549 36.9914C46.7028 36.9393 46.7687 36.9072 46.8392 36.9016ZM61.7925 37.4143V38.8767H62.3721C62.4825 38.8891 62.5943 38.8784 62.7003 38.8453C62.8064 38.8123 62.9045 38.7575 62.9883 38.6846C63.0721 38.6117 63.1399 38.5222 63.1873 38.4217C63.2347 38.3212 63.2607 38.212 63.2637 38.1009C63.2615 38.0086 63.2401 37.9178 63.2009 37.8341C63.1618 37.7505 63.1058 37.6759 63.0364 37.615C62.9579 37.5447 62.8663 37.4908 62.7667 37.4564C62.6672 37.422 62.5619 37.4077 62.4568 37.4143H61.7925ZM59.1888 37.4812L58.5825 39.5722H59.8219L59.1888 37.4812ZM54.1063 41.9618C54.1554 41.9618 54.2 41.9708 54.2044 42.0109C54.2133 42.0911 54.1331 42.1402 54.0172 42.1981C53.8443 42.2714 53.698 42.3959 53.5981 42.5548C53.4745 42.7765 53.4143 43.0279 53.4242 43.2815C53.4411 43.3577 53.4752 43.4291 53.5239 43.4901C53.5726 43.5511 53.6345 43.6003 53.7051 43.6337C53.9026 43.7267 54.1201 43.7696 54.3382 43.7585C54.6748 43.7383 55.0024 43.6423 55.2967 43.4777C55.6937 43.3493 56.1158 43.3187 56.5272 43.3885C56.8374 43.3917 57.1392 43.4897 57.3921 43.6694C57.4991 43.7452 57.4813 43.8388 57.4412 43.8477C57.3787 43.87 57.3119 43.7942 57.245 43.8031C57.0298 43.8248 56.8175 43.8696 56.6119 43.9369C56.3444 44.0573 56.224 44.1018 56.0947 44.3381C56.0431 44.4386 56.0319 44.5551 56.0635 44.6636C56.1081 44.7706 56.2196 44.8419 56.2419 44.9177C56.307 45.1174 56.4033 45.3055 56.5272 45.475C56.5685 45.5132 56.6133 45.5476 56.661 45.5775C57.1048 45.909 57.5249 46.271 57.9182 46.6609C58.0042 46.7861 58.0648 46.927 58.0965 47.0755C58.1099 47.129 58.0653 47.2093 58.0163 47.187C57.959 47.1488 57.9053 47.1056 57.8558 47.0577C57.7885 46.9856 57.7084 46.9266 57.6195 46.8838C57.371 46.7831 57.1016 46.7449 56.8348 46.7724C56.7145 46.7724 56.4737 46.8794 56.6119 46.9329C56.8481 47.0535 57.0504 47.2313 57.2004 47.45C57.5358 47.8296 57.7073 48.3265 57.6775 48.8321C57.6775 48.8589 57.624 48.8767 57.6106 48.8589C57.4947 48.6668 57.3398 48.5013 57.1558 48.3729C56.8853 48.1749 56.5543 48.0772 56.2196 48.0965C56.1527 48.101 55.9521 48.0965 55.9744 48.1589C56.1839 48.4246 56.3675 48.7098 56.5228 49.0105C56.6831 49.3995 56.7429 49.8227 56.6966 50.241C56.6922 50.2633 56.6075 50.2855 56.5941 50.2633C56.4899 50.1404 56.375 50.027 56.2508 49.9244C56.1263 49.8134 55.9848 49.723 55.8317 49.6569C55.5235 49.5859 55.1999 49.6303 54.9222 49.7818C54.676 49.9175 54.4746 50.122 54.3426 50.3703C54.1845 50.6509 54.0901 50.963 54.0662 51.2842C54.017 51.6762 54.082 52.0741 54.2535 52.43C54.4414 52.7655 54.7412 53.0242 55.1005 53.1612C55.5814 53.3143 56.0856 53.3807 56.5896 53.3573C57.2093 53.3796 57.829 53.286 58.4487 53.2682C59.0362 53.2125 59.6277 53.217 60.2142 53.2815C60.6893 53.3758 61.1428 53.5572 61.5518 53.8165C61.8856 54.0712 62.2056 54.3436 62.5103 54.6324C62.546 54.6592 62.6262 54.619 62.6663 54.5923C62.9591 54.3111 63.1623 53.9497 63.2504 53.5535C63.3082 53.1695 63.219 52.7779 63.0007 52.4568C62.7912 52.0778 62.4835 51.6543 62.2428 51.253C61.9162 50.8317 61.6155 50.391 61.3422 49.9333C61.1943 49.626 61.1672 49.2744 61.2664 48.948C61.3514 48.7065 61.5208 48.5038 61.7435 48.3774C61.7925 48.3462 61.8415 48.4041 61.8193 48.471C61.7556 48.6297 61.7432 48.8042 61.7836 48.9703C61.8587 49.2097 61.9955 49.4249 62.1804 49.5945C62.2383 49.6391 62.3899 49.5722 62.4256 49.5009C62.5058 49.3092 62.4568 49.0105 62.5281 48.8143C62.6183 48.4491 62.7821 48.1062 63.0096 47.8067C63.5012 47.4419 64.0414 47.1478 64.6146 46.9329C64.7617 46.8482 64.8554 46.4648 65.0203 46.5272C65.1853 46.5851 65.0961 46.973 64.9713 47.1603C64.793 47.4367 64.5834 47.6061 64.3873 47.8558C64.1194 48.1997 63.885 48.5684 63.6873 48.957C63.5794 49.1413 63.5341 49.3555 63.558 49.5678C63.5781 49.6572 63.6177 49.7412 63.674 49.8136C63.7302 49.886 63.8018 49.9452 63.8835 49.9868C63.9815 50.0314 64.1064 49.9423 64.1955 49.8754C64.3668 49.7503 64.5135 49.5946 64.628 49.4162C64.7305 49.2467 64.6726 49.0194 64.7707 48.8455C64.7974 48.8054 64.9044 48.8143 64.9356 48.8455C65.0429 48.9435 65.1123 49.076 65.1318 49.22C65.1414 49.3892 65.1264 49.5589 65.0872 49.7238C65.0738 49.7595 64.9802 49.8442 64.949 49.9244C64.9248 49.9865 64.895 50.0462 64.8598 50.1028C64.6993 50.3836 64.5121 50.6199 64.3025 50.6645C64.258 50.669 64.2267 50.7581 64.258 50.7983C64.3796 51.0297 64.5518 51.2309 64.7617 51.3868C64.8662 51.4386 64.9798 51.4692 65.0961 51.4768C65.2124 51.4845 65.3291 51.469 65.4394 51.4313C65.5598 51.3957 65.6534 51.311 65.7916 51.2664C65.8496 51.2485 65.8139 51.2842 65.8139 51.3422C65.8126 51.4728 65.79 51.6023 65.747 51.7256C65.6752 51.8797 65.5587 52.0086 65.4127 52.0956C65.1855 52.2238 64.9327 52.3 64.6726 52.3185C64.5522 52.3408 64.3694 52.43 64.414 52.5459C64.4523 52.6828 64.5158 52.8113 64.6012 52.9249C64.694 53.0257 64.8214 53.0878 64.9579 53.0988C65.1562 53.1072 65.3518 53.0508 65.5152 52.9383C65.6935 52.8223 65.7872 52.6083 65.9432 52.4568C65.9744 52.43 66.0591 52.4568 66.0591 52.5013C66.0529 52.747 65.9904 52.988 65.8763 53.2058C65.727 53.4453 65.5333 53.6541 65.3057 53.821C65.2388 53.879 65.1585 53.9503 65.1585 54.0395C65.193 54.1782 65.2602 54.3067 65.3547 54.414C65.4428 54.5385 65.5752 54.6246 65.7248 54.6547C65.8721 54.6826 66.0233 54.6826 66.1706 54.6547C66.2285 54.6547 66.2152 54.7573 66.1661 54.7929C66.023 54.9395 65.8427 55.0443 65.6445 55.0961C65.4606 55.1574 65.2639 55.1697 65.0738 55.1318C64.7127 55.0426 64.4764 54.9088 64.1198 54.8063C63.9277 54.7329 63.718 54.7189 63.5179 54.7662C63.3266 54.8389 63.1618 54.9679 63.0453 55.1362C62.9758 55.2175 62.9296 55.3161 62.9115 55.4215C62.8848 55.7024 63.023 56.0011 62.9338 56.2775C62.8442 56.6352 62.7233 56.9843 62.5727 57.3208C62.4208 57.5787 62.2494 57.8247 62.06 58.0564C61.8817 58.2972 61.6454 58.3863 61.525 58.6494C61.474 58.7462 61.4174 58.84 61.3556 58.9303C61.1914 59.2459 61.1029 59.5955 61.097 59.9512C61.1425 60.2888 61.2729 60.6094 61.476 60.883L62.1581 61.9396C62.2065 62.0566 62.2204 62.185 62.1982 62.3097C62.1936 62.3738 62.1733 62.4358 62.1391 62.4902C62.1049 62.5446 62.0578 62.5898 62.002 62.6217C61.0967 63.1312 60.4263 63.9744 60.134 64.9713L60.1251 65.0293V65.0471C60.1083 65.1157 60.0763 65.1797 60.0315 65.2343C59.8033 65.4656 59.5059 65.6159 59.1844 65.6623C58.9392 65.7292 58.694 65.7916 58.4487 65.8674C58.3689 65.8884 58.2992 65.9375 58.2526 66.0056C58.2107 66.0721 58.192 66.1505 58.1992 66.2287C58.2065 66.3069 58.2393 66.3805 58.2927 66.4381C58.3667 66.5286 58.4131 66.6385 58.4265 66.7546C58.4303 66.822 58.4097 66.8885 58.3685 66.9419C58.3326 66.9813 58.2904 67.0144 58.2437 67.04C57.9416 67.2121 57.6177 67.3425 57.2807 67.4278C57.0577 67.4769 56.8973 67.4189 56.9686 67.1648C57.0922 66.7223 57.2381 66.2863 57.4055 65.8585C57.552 65.6072 57.755 65.3935 57.9985 65.2343C58.2992 64.9754 58.6148 64.7343 58.9436 64.5121C59.1584 64.3647 59.3393 64.1732 59.4742 63.9503C59.7356 63.5276 60.0184 63.1184 60.3213 62.7243C60.3818 62.6428 60.4246 62.5495 60.4468 62.4504C60.4691 62.3514 60.4704 62.2487 60.4505 62.1492C60.4215 61.97 60.3484 61.8009 60.238 61.657C60.1275 61.513 59.983 61.3988 59.8175 61.3244C59.6934 61.2684 59.567 61.2178 59.4385 61.1728C59.0055 61.0236 58.6247 60.7527 58.3418 60.3926C58.3109 60.345 58.2703 60.3045 58.2227 60.2738C58.175 60.2431 58.1214 60.2228 58.0653 60.2142C57.7845 60.2232 57.7042 60.6155 57.6953 60.8295C57.6726 61.1444 57.6786 61.4608 57.7131 61.7747C57.7407 61.8794 57.7467 61.9886 57.731 62.0957C57.7166 62.1333 57.6933 62.1667 57.663 62.1932C57.6326 62.2196 57.5963 62.2382 57.5571 62.2473C56.6724 62.5636 55.8271 62.981 55.0381 63.4911C54.9248 63.5756 54.8293 63.6817 54.7572 63.8032L54.6815 63.9325C54.5824 64.0976 54.4293 64.2234 54.248 64.2884C54.0668 64.3534 53.8687 64.3537 53.6872 64.2892C53.6226 64.2699 53.5572 64.2535 53.4911 64.2401C53.3899 64.2299 53.2885 64.2569 53.2057 64.3159C53.1362 64.3587 53.0744 64.413 53.023 64.4764C53.0031 64.5017 52.988 64.5304 52.9784 64.5611V64.5879C52.9775 64.5998 52.9775 64.6117 52.9784 64.6235C52.9811 64.6495 52.9871 64.6749 52.9962 64.6993L53.0943 64.9668C53.1163 65.0052 53.1294 65.048 53.1326 65.0921C53.1358 65.1363 53.129 65.1805 53.1127 65.2217C53.0964 65.2628 53.0711 65.2997 53.0386 65.3297C53.0061 65.3597 52.9672 65.3819 52.9249 65.3948C52.6341 65.5124 52.3302 65.5947 52.0198 65.64C51.8415 65.6623 51.6855 65.5955 51.73 65.3859C51.794 65.0231 51.8987 64.6687 52.0421 64.3293C52.0613 64.2683 52.0941 64.2124 52.1382 64.1661C52.1822 64.1197 52.2363 64.084 52.2962 64.0618C52.591 63.8933 52.8597 63.6831 53.0943 63.4376C53.2987 63.2429 53.5659 63.1275 53.8478 63.1122C54.271 63.0752 54.6756 62.9208 55.0158 62.6663C55.373 62.4187 55.7085 62.1413 56.019 61.8371C56.2466 61.5424 56.3679 61.1794 56.3631 60.807C56.3582 60.4347 56.2275 60.0749 55.9922 59.7863L55.903 59.6302C55.8183 59.4965 55.7693 59.3048 55.698 59.1665C55.6045 59.0277 55.545 58.8689 55.5241 58.7029C55.5241 58.3997 55.6445 58.1099 55.6623 57.8068C55.6646 57.7829 55.6589 57.7589 55.6459 57.7387C55.633 57.7185 55.6136 57.7032 55.591 57.6953C55.3949 57.6215 55.1891 57.5765 54.9802 57.5615C54.1512 57.6577 53.3144 57.6667 52.4835 57.5883C51.8667 57.4103 51.2804 57.1397 50.7448 56.7858C50.5085 56.6387 50.3658 56.4737 50.125 56.3355C50.0626 56.2998 50.0582 56.3132 50.0002 56.3623C49.4089 56.7913 48.6811 56.9895 47.9538 56.9195H47.9449C47.4989 56.843 47.0604 56.7281 46.6342 56.5763C46.3087 56.4559 45.7871 56.2463 45.475 56.5094C45.3457 56.6208 45.3769 56.7769 45.3769 56.924C45.4179 57.3774 45.4029 57.8341 45.3323 58.2838C45.324 58.3071 45.3209 58.332 45.3232 58.3566C45.3255 58.3813 45.3332 58.4051 45.3457 58.4265C45.3537 58.4362 45.3627 58.4452 45.3725 58.4532C45.4211 58.4909 45.4752 58.521 45.533 58.5424L45.5775 58.5602C45.7024 58.6048 45.7247 58.6628 45.8005 58.8188C45.8392 58.9064 45.8633 58.9998 45.8718 59.0952C45.8855 59.1873 45.881 59.2813 45.8584 59.3716C45.8472 59.4301 45.8338 59.4881 45.8183 59.5455C45.7625 59.7445 45.775 59.9564 45.854 60.1474C45.8913 60.2431 45.9565 60.3255 46.0412 60.3837C46.0556 60.3907 46.0705 60.3967 46.0858 60.4015C46.1003 60.4072 46.1152 60.4117 46.1304 60.4149C46.1452 60.416 46.1601 60.416 46.175 60.4149H46.2195C46.2508 60.4074 46.2809 60.3954 46.3087 60.3792L46.3265 60.3703C46.3698 60.3332 46.4256 60.314 46.4826 60.3168C46.4979 60.3195 46.5129 60.324 46.5272 60.3302C46.6037 60.3467 46.6727 60.388 46.7234 60.4476C46.7742 60.5072 46.8039 60.5819 46.808 60.6601C46.8183 61.0001 46.748 61.3377 46.603 61.6454C46.5894 61.6769 46.5697 61.7054 46.5451 61.7292C46.5204 61.753 46.4913 61.7717 46.4593 61.7841C46.4274 61.7966 46.3933 61.8025 46.359 61.8017C46.3247 61.8008 46.291 61.7932 46.2597 61.7791L46.1794 61.7479C45.9376 61.619 45.725 61.4414 45.5553 61.2263C45.4294 61.0885 45.3526 60.9129 45.3368 60.727C45.3422 60.5938 45.2976 60.4634 45.212 60.3614C45.1697 60.3283 45.1211 60.304 45.0693 60.29C44.9472 60.2541 44.8386 60.1827 44.7572 60.085C44.6501 59.9488 44.5738 59.7909 44.5338 59.6223C44.4938 59.4537 44.4909 59.2784 44.5254 59.1086C44.6636 58.1538 44.5937 57.1804 44.3203 56.2553C44.2629 56.0993 44.2661 55.9275 44.3292 55.7738L44.4005 55.582C44.4095 55.5577 44.4199 55.5339 44.4317 55.5107C44.45 55.4742 44.4764 55.4424 44.5088 55.4177C44.5413 55.3929 44.579 55.376 44.619 55.368C44.6616 55.3598 44.7049 55.3554 44.7483 55.3547C45.4289 55.3523 46.1053 55.247 46.7545 55.0426C46.8426 55.0086 46.9367 54.9935 47.031 54.998C47.1393 55.0054 47.2479 55.0084 47.3564 55.0069C47.4902 55.0069 47.6239 54.8865 47.4634 54.784C47.3295 54.6638 47.2043 54.5342 47.0889 54.3961C47.0667 54.3563 47.0318 54.3251 46.9898 54.3073C46.9478 54.2896 46.9011 54.2863 46.8571 54.298C46.8417 54.3043 46.8268 54.3118 46.8125 54.3203L46.7724 54.3426C46.7224 54.3866 46.6631 54.4185 46.5989 54.4361C46.5346 54.4536 46.4673 54.4562 46.4019 54.4437C46.3365 54.4313 46.2749 54.404 46.2216 54.3641C46.1684 54.3242 46.125 54.2726 46.0947 54.2133C45.9258 53.9318 45.7953 53.6289 45.7068 53.3128C45.6318 52.9254 45.4651 52.5616 45.2209 52.2517C45.1091 52.1454 44.9752 52.0651 44.8287 52.0165C44.6823 51.968 44.527 51.9524 44.3738 51.9708C44.131 52.0353 43.923 52.1921 43.7942 52.4077L43.5133 52.8C43.4421 52.8859 43.3945 52.9889 43.3751 53.0988C43.3733 53.1225 43.3733 53.1463 43.3751 53.1701C43.3814 53.2189 43.3933 53.2668 43.4108 53.3128C43.4595 53.4307 43.4689 53.5612 43.4376 53.6849C43.4063 53.8085 43.3359 53.9188 43.2369 53.9993L42.8178 54.3337C42.7789 54.3672 42.7471 54.4081 42.7241 54.4541C42.7012 54.5 42.6876 54.55 42.6841 54.6012C42.6714 54.6913 42.6536 54.7807 42.6306 54.8687C42.6145 54.9343 42.6099 55.0022 42.6172 55.0693C42.6189 55.0874 42.6219 55.1052 42.6261 55.1228C42.652 55.1955 42.7004 55.258 42.7643 55.3012C42.7846 55.3179 42.804 55.3358 42.8223 55.3547C42.8436 55.3773 42.8616 55.4028 42.8758 55.4305C42.9013 55.4814 42.9098 55.5391 42.9002 55.5953C42.8906 55.6514 42.8633 55.703 42.8223 55.7425C42.7889 55.7763 42.7532 55.8076 42.7153 55.8362C42.4578 56.037 42.1725 56.1992 41.8682 56.3177C41.831 56.3318 41.792 56.3408 41.7523 56.3444C41.5829 56.3578 41.5294 56.2285 41.5205 56.0769C41.5071 55.8808 41.5071 55.6801 41.5071 55.4795C41.5134 55.2515 41.6039 55.0339 41.7612 54.8687C41.978 54.58 42.0911 54.2265 42.0822 53.8656C42.071 53.6573 42.1342 53.4519 42.2605 53.286C42.3681 53.1682 42.4542 53.0324 42.5147 52.8848C42.5576 52.7785 42.6162 52.6793 42.6885 52.5905C43.1409 52.0461 43.5593 51.4744 43.9413 50.8785C44.1821 50.4951 44.6324 50.0225 44.998 50.553C45.0929 50.6958 45.2104 50.8223 45.3457 50.9275C45.7146 51.1957 46.1003 51.4399 46.5004 51.6587C46.9195 51.895 46.9864 51.4715 47.0577 51.1193V51.1059C47.0932 50.9614 47.1503 50.8231 47.2271 50.6957C47.4794 50.292 47.7821 49.9219 48.1277 49.5945C48.3194 49.4251 48.5958 49.2557 48.7965 49.0907C48.8767 49.0194 48.899 49.0105 48.9302 48.9124C48.9703 48.8143 49.0372 48.6895 49.0818 48.5646C49.1264 48.4443 49.1487 48.3194 49.1888 48.2258C49.2767 48.0913 49.3429 47.9439 49.385 47.7889V47.7755C49.3858 47.7681 49.3858 47.7606 49.385 47.7532V47.722L49.3716 47.6908C49.3529 47.6459 49.32 47.6083 49.278 47.5838C49.1413 47.5007 48.983 47.4603 48.8232 47.4679H48.8098C48.5829 47.4698 48.3586 47.5167 48.15 47.6061C48.0426 47.6536 47.9568 47.7395 47.9093 47.8468C47.8631 47.9503 47.7998 48.0453 47.722 48.1277C47.6454 48.2023 47.5441 48.2463 47.4373 48.2512C47.3305 48.2561 47.2256 48.2217 47.1424 48.1545C47.0354 48.0831 47.08 47.9627 47.1424 47.8736C47.1998 47.8032 47.252 47.7287 47.2985 47.6507C47.3173 47.6167 47.3251 47.5778 47.3208 47.5392V47.5214L47.3118 47.4991C47.3056 47.4893 47.2981 47.4803 47.2895 47.4723C47.2617 47.4502 47.2285 47.4356 47.1934 47.4302C47.1582 47.4247 47.1222 47.4285 47.0889 47.4411C46.9638 47.4757 46.8404 47.5159 46.7189 47.5615C46.6785 47.5836 46.6333 47.5955 46.5873 47.5963C46.5413 47.5972 46.4957 47.5868 46.4546 47.5663C46.4134 47.5457 46.3778 47.5154 46.3509 47.4781C46.3239 47.4408 46.3064 47.3975 46.2998 47.352C46.2823 47.2715 46.2778 47.1887 46.2864 47.1068C46.2892 47.0556 46.3078 47.0066 46.3398 46.9667C46.3718 46.9267 46.4155 46.8977 46.4647 46.8838C46.5539 46.8571 46.6877 46.808 46.6698 46.6966C46.6648 46.6626 46.6648 46.628 46.6698 46.594C46.678 46.5543 46.6964 46.5174 46.7233 46.487C46.7625 46.4438 46.8075 46.4063 46.8571 46.3756C47.3502 46.0524 47.8263 45.7042 48.2837 45.3323C48.3183 45.2923 48.3659 45.2658 48.4182 45.2576C48.4705 45.2494 48.524 45.2601 48.5691 45.2878L48.6137 45.3145C48.8206 45.4223 49.059 45.4539 49.2869 45.4037C49.3271 45.4018 49.3659 45.3881 49.3984 45.3643C49.4309 45.3405 49.4557 45.3077 49.4697 45.2699C49.4704 45.2625 49.4704 45.255 49.4697 45.2476V45.2253L49.4608 45.1986L49.4474 45.1808C49.4056 45.1349 49.3514 45.1024 49.2913 45.0871L49.0327 44.9935C48.9517 44.9648 48.874 44.9274 48.8009 44.882C48.7562 44.8564 48.7211 44.8168 48.7009 44.7693C48.6808 44.7218 48.6768 44.669 48.6895 44.619C48.792 44.1152 49.3448 44.1108 49.7639 44.1509H49.7818C49.9934 44.1477 50.2035 44.1147 50.4059 44.0528C50.6734 43.9592 50.8785 43.7541 51.1326 43.6337C51.3867 43.5133 51.6543 43.3796 51.9173 43.277C51.9975 43.2503 52.0644 43.2681 52.1357 43.2369C52.1959 43.2128 52.2494 43.1745 52.2918 43.1255C52.4749 42.8603 52.6873 42.6165 52.9249 42.3988C53.2523 42.2085 53.6072 42.0701 53.977 41.9886C54.0201 41.9733 54.0652 41.9643 54.1108 41.9618H54.1063ZM52.2115 44.4451C52.0483 44.444 51.8873 44.4839 51.7434 44.561C51.7033 44.5833 51.6765 44.6324 51.7077 44.668C51.788 44.7617 51.9262 44.8018 52.0198 44.891C52.0839 44.9493 52.1367 45.0188 52.1759 45.096C52.216 45.1808 52.2829 45.2744 52.323 45.3635C52.3991 45.5428 52.466 45.7259 52.5236 45.9119C52.625 46.2154 52.6996 46.5272 52.7465 46.8437C52.7911 47.0978 52.7777 47.3653 52.7911 47.6239V47.985C52.7867 48.0876 52.7867 48.1946 52.7778 48.2971C52.7656 48.4424 52.7596 48.5882 52.7599 48.734V49.0907C52.7688 49.4028 52.8179 49.6257 52.9561 49.6257C53.0859 49.6282 53.2144 49.5991 53.3306 49.541C53.4448 49.4725 53.5396 49.3759 53.606 49.2604C53.6723 49.1449 53.708 49.0144 53.7095 48.8812C53.8274 48.0289 53.8229 47.1642 53.6962 46.3132C53.675 46.001 53.5897 45.6965 53.4455 45.4188C53.3012 45.1411 53.1012 44.8961 52.858 44.6993C52.6821 44.5392 52.4494 44.4488 52.2115 44.4451ZM69.8665 45.1629H92.9473C92.8715 48.841 92.7958 52.2962 92.7244 55.2521H69.8532L69.871 46.9507L69.8665 45.1629ZM69.8398 56.5049H92.6798C92.5392 60.9299 91.7197 65.307 90.25 69.4831C88.4995 74.3798 86.1642 79.0472 83.2951 83.3842C80.3014 87.8512 76.6746 91.8596 72.5282 95.2835C70.9087 96.6549 69.2004 97.9179 67.4145 99.0642C64.6179 100.767 61.6968 102.255 58.6761 103.518C57.6775 103.946 56.8125 104.347 56.019 104.619C55.1585 104.909 54.4229 105.177 53.9057 105.315V104.802L53.9191 72.2785C54.39 72.2653 54.8601 72.2311 55.3279 72.176C55.3502 72.2428 55.3993 72.4301 55.4661 72.6218C55.5668 72.8075 55.706 72.9696 55.8744 73.0972C56.0428 73.2249 56.2365 73.3151 56.4425 73.3619C56.6918 73.4125 56.9501 73.3949 57.1902 73.3109C57.4303 73.227 57.6433 73.0798 57.8067 72.8848C58.0385 73.091 58.3234 73.2282 58.629 73.281C58.9347 73.3338 59.2491 73.3001 59.5366 73.1835C59.76 73.1245 59.9577 72.9933 60.0988 72.8102C60.24 72.6272 60.3166 72.4026 60.3168 72.1715C60.3454 71.855 60.2948 71.5363 60.1697 71.2442L60.0092 70.9499C61.1777 70.4624 62.2899 69.8495 63.3262 69.122L63.4153 69.0953C65.0783 68.6762 71.7613 66.282 75.8585 66.2285C78.3861 66.1713 80.8853 66.7704 83.1123 67.9673C84.2517 68.6331 85.2781 69.4758 86.1528 70.464C86.1796 70.5041 86.2108 70.5888 86.3178 70.6066C86.35 70.6074 86.3817 70.5984 86.4087 70.5809C86.4357 70.5634 86.4569 70.5382 86.4694 70.5085C86.7633 69.7793 86.8839 68.9918 86.8216 68.208C86.7324 66.9508 85.4841 66.0413 85.114 65.6668C85.1007 65.6534 85.0695 65.5732 85.2032 65.484C85.3462 65.3423 85.503 65.2154 85.6713 65.105C86.3875 64.5363 87.2636 64.2058 88.1769 64.1599C88.3107 64.1732 88.2661 63.9815 88.2304 63.821C87.9718 62.7065 86.3802 61.9842 84.7083 62.2428C84.1526 62.3567 83.6249 62.5797 83.1558 62.8988C82.6867 63.2179 82.2855 63.6268 81.9754 64.1019C81.9442 64.151 81.7881 64.2223 81.7257 64.1599C81.1884 63.965 80.6388 63.8056 80.0806 63.6828C79.88 63.6383 79.987 63.4867 79.9959 63.4599C80.3269 62.8621 80.7906 62.3481 81.3512 61.9575C81.9929 61.4499 82.749 61.1071 83.5536 60.9588C83.6517 60.9588 83.6517 60.825 83.625 60.7805C83.4666 60.4439 83.2338 60.1479 82.9442 59.9146C82.6545 59.6813 82.3156 59.517 81.9531 59.434C81.3666 59.2455 80.7429 59.2038 80.1365 59.3126C79.5302 59.4214 78.9598 59.6775 78.4756 60.0582C77.5336 60.8415 76.8435 61.8852 76.4916 63.0587C76.4292 63.1478 76.4114 63.2192 76.3311 63.2013C75.8898 63.1122 74.793 63.1701 74.6949 63.1033C74.628 63.072 74.6414 62.9695 74.6548 62.9026C74.8411 62.2654 75.181 61.6837 75.6445 61.2085C76.0623 60.6465 76.6226 60.2063 77.2674 59.9334C77.306 59.9156 77.3393 59.8882 77.3641 59.8536C77.3889 59.8191 77.4043 59.7788 77.4088 59.7365C77.4133 59.6943 77.4067 59.6516 77.3898 59.6126C77.3728 59.5736 77.346 59.5398 77.312 59.5143C76.4103 59.0472 75.3742 58.9088 74.3816 59.1228C73.389 59.3368 72.5019 59.8898 71.8728 60.6868C71.2439 61.6344 70.7852 62.6845 70.5175 63.7898C70.5085 63.83 70.4417 63.9503 70.357 63.9503L68.0921 64.4497L67.7221 64.5344L67.624 64.6369C69.0031 62.4253 69.7679 59.8861 69.8398 57.2807V56.5049ZM14.3335 56.8839H37.4723V57.2851C37.515 60.7575 38.8447 64.0905 41.2039 66.6387H15.8538C14.9764 63.4556 14.4693 60.1829 14.3335 56.8839ZM16.1838 67.7756H42.323C42.485 67.929 42.6515 68.0777 42.8223 68.2214C45.5587 70.519 48.937 71.9171 52.4969 72.225V77.6196H20.3077C18.9238 74.9941 17.7318 72.2719 16.741 69.4742C16.5444 68.9131 16.3586 68.3483 16.1838 67.78V67.7756ZM63.3708 69.0685L63.3262 69.122H63.3172L63.3083 69.1131C63.3307 69.0983 63.353 69.0834 63.3752 69.0685H63.3708ZM71.1193 69.8933C70.314 69.8945 69.5272 70.135 68.859 70.5843C68.101 70.9977 67.4903 71.6365 67.1113 72.4123C66.6836 73.519 66.4251 74.6838 66.3445 75.8675C66.3288 75.904 66.3057 75.9368 66.2765 75.9636C66.2473 75.9905 66.2127 76.0109 66.175 76.0235C65.6699 76.1229 65.1712 76.2524 64.6815 76.4114C64.6572 76.4092 64.6342 76.3994 64.6158 76.3834C64.5974 76.3674 64.5845 76.346 64.579 76.3222C64.4215 75.197 64.6577 74.052 65.2477 73.081C65.4926 72.6308 65.8227 72.2326 66.2196 71.9085C66.2486 71.8898 66.2711 71.8625 66.2838 71.8305C66.2965 71.7984 66.2988 71.7632 66.2905 71.7297C66.2821 71.6962 66.2634 71.6662 66.2371 71.6439C66.2108 71.6216 66.1782 71.6081 66.1438 71.6053C65.151 71.4367 64.1305 71.6163 63.2548 72.1135C62.7083 72.4152 62.2408 72.8419 61.8906 73.3587C61.5403 73.8755 61.3173 74.4678 61.2397 75.0872C61.1346 75.9739 61.1982 76.8724 61.4269 77.7355C61.4269 77.7623 61.4537 77.8559 61.3556 77.8737C61.0168 78.0387 60.0983 78.5202 59.7729 78.6762C59.7506 78.6851 59.6882 78.6985 59.6748 78.6495C59.5912 78.3176 59.4425 78.0056 59.2374 77.7316C59.0323 77.4576 58.7748 77.2271 58.48 77.0534C58.1616 76.9229 57.8185 76.864 57.4748 76.8809C57.1312 76.8979 56.7955 76.9902 56.4915 77.1515C56.0808 77.3843 55.7463 77.7312 55.5285 78.1501C55.376 78.5019 55.349 78.8954 55.4521 79.2648C55.5552 79.6341 55.7821 79.9567 56.0947 80.1787C56.1215 80.2054 56.1705 80.2678 56.0947 80.2901C55.6935 80.5086 55.6846 80.5576 55.3814 81.0079C55.2285 81.3305 55.1692 81.6896 55.2102 82.0442C55.2511 82.3989 55.3908 82.7349 55.6133 83.0142C55.7802 83.2613 55.9986 83.4696 56.2534 83.6246C56.5083 83.7797 56.7936 83.8779 57.0898 83.9126C57.3861 83.9473 57.6864 83.9177 57.9701 83.8257C58.2539 83.7337 58.5145 83.5816 58.7341 83.3798C58.7519 83.3664 58.8143 83.402 58.8455 83.4689C59.0131 83.732 59.2295 83.9605 59.4831 84.1421C59.7926 84.3167 60.142 84.4085 60.4974 84.4085C60.8527 84.4085 61.2021 84.3167 61.5116 84.1421C61.8355 83.9634 62.098 83.6914 62.265 83.3614C62.432 83.0313 62.4957 82.6587 62.4479 82.2919C62.4414 81.853 62.2638 81.4339 61.953 81.1238C61.895 81.0525 61.953 81.0168 62.1046 80.9188C64.7988 79.3752 67.766 78.3669 70.8429 77.9495C72.4356 77.7042 74.0588 77.7374 75.6401 78.0476C76.6715 78.2835 77.6324 78.7602 78.4444 79.4386C79.1064 79.9737 79.7129 80.5741 80.2545 81.2308C80.4362 81.2607 80.6225 81.2209 80.7761 81.1194C80.9411 80.7592 81.0317 80.3693 81.0425 79.9733C81.0532 79.5772 80.9838 79.183 80.8385 78.8144C80.4697 77.8217 79.8849 76.9232 79.1265 76.184C79.1131 76.1751 79.1131 76.126 79.1131 76.0948C79.0953 75.9611 79.18 75.8942 79.345 75.7426C80.0474 75.086 80.9123 74.6289 81.8505 74.4185C81.9709 74.4096 82.02 74.3204 81.9397 74.1822C81.6005 73.5635 81.0491 73.0882 80.3871 72.844C79.7251 72.5999 78.9971 72.6033 78.3374 72.8536C77.4689 73.2197 76.7493 73.875 76.3088 74.7083C76.2821 74.7573 76.2108 74.9312 76.1439 74.8777C75.7426 74.842 75.065 74.735 74.6682 74.6994C74.4854 74.6905 74.5567 74.5255 74.5612 74.4987C74.726 73.9637 75.0235 73.479 75.4261 73.0899C75.9655 72.4685 76.6436 71.9829 77.4056 71.6722C77.4209 71.6704 77.4355 71.6649 77.4481 71.6562C77.4608 71.6475 77.4711 71.6357 77.4781 71.6221C77.4852 71.6084 77.4887 71.5932 77.4885 71.5779C77.4883 71.5625 77.4843 71.5474 77.4769 71.534C77.2241 71.2258 76.9083 70.9753 76.5508 70.7992C76.1932 70.6231 75.8022 70.5256 75.4038 70.513C74.8964 70.4864 74.3892 70.5672 73.9152 70.75C73.4412 70.9329 73.0111 71.2137 72.653 71.5741C71.7999 72.4766 71.2714 73.6373 71.1505 74.8733C71.1104 74.9758 71.0614 75.0293 70.9856 75.0293C70.5755 75.0953 70.1614 75.1325 69.7462 75.1408C69.6793 75.1229 69.6838 75.0516 69.6838 74.9803C69.6912 74.3501 69.8454 73.7304 70.134 73.1702C70.6995 72.0978 71.5475 71.2006 72.5861 70.5754C72.7466 70.464 72.7555 70.2366 72.702 70.2098C72.201 69.9995 71.6628 69.8919 71.1193 69.8933ZM20.9854 78.8768H52.5013V88.6406H27.6996C26.2506 86.9756 24.9131 85.2167 23.696 83.3753C22.7375 81.9073 21.8318 80.4053 20.9809 78.8724L20.9854 78.8768ZM65.9075 84.1198C65.4807 84.1029 65.058 84.2097 64.6904 84.4275C63.6882 84.9545 62.9292 85.8494 62.5727 86.9241C62.364 87.7624 62.3824 88.6411 62.6262 89.4698C62.6396 89.501 62.6797 89.5768 62.6173 89.6036C62.2695 89.7373 62.011 89.8934 61.6677 90.0316C61.6498 90.0316 61.5607 90.0539 61.5428 90.0093C61.2537 89.4909 61.1359 88.8943 61.2064 88.3049C61.2769 87.7156 61.532 87.1636 61.9352 86.728C62.011 86.6611 62.0555 86.5719 61.8995 86.5184C61.4644 86.4515 61.0194 86.4953 60.6057 86.6457C60.192 86.7961 59.8227 87.0482 59.5321 87.3789C59.198 87.7814 58.9743 88.2639 58.8828 88.7789C58.7914 89.294 58.8354 89.824 59.0105 90.3169C59.0977 90.7249 59.2465 91.1173 59.4519 91.4805C59.4653 91.5028 59.5856 91.5742 59.5143 91.6054L58.8455 92.1181C58.8322 92.1315 58.7831 92.1538 58.7608 92.1181C58.6264 91.8644 58.4428 91.6399 58.2209 91.4578C57.9989 91.2756 57.743 91.1394 57.4679 91.057C57.2184 90.9979 56.9579 91.0029 56.7108 91.0715C56.4637 91.1401 56.238 91.27 56.0546 91.4493C55.8564 91.6448 55.7123 91.8883 55.6363 92.1561C55.5603 92.4238 55.5551 92.7068 55.6211 92.9772C55.6872 93.2476 55.8222 93.4962 56.013 93.6989C56.2039 93.9015 56.444 94.0512 56.71 94.1333C56.7412 94.1466 56.7858 94.1868 56.7323 94.2224C56.3767 94.4632 56.0857 94.7878 55.8852 95.1676C55.7645 95.4733 55.736 95.8077 55.8034 96.1294C55.8707 96.4511 56.0309 96.7461 56.2642 96.9777C56.4394 97.1314 56.6452 97.2463 56.8681 97.3147C57.091 97.383 57.3258 97.4034 57.5571 97.3745C57.9028 97.2612 58.222 97.0792 58.4955 96.8394C58.769 96.5996 58.9912 96.3069 59.1487 95.979C59.1576 95.9656 59.2423 95.9032 59.2869 95.9522C59.5742 96.3674 59.9866 96.6798 60.4639 96.8439C60.7079 96.9288 60.9702 96.9467 61.2235 96.8957C61.4768 96.8448 61.7118 96.7268 61.904 96.5541C62.1659 96.3486 62.3553 96.0646 62.4443 95.7438C62.5334 95.4229 62.5174 95.082 62.3988 94.7708C62.1834 94.3813 61.8757 94.0506 61.5027 93.8078C61.4448 93.7632 61.4893 93.6518 61.6053 93.5626C63.4112 92.1105 65.5664 91.1574 67.8558 90.7984C69.4187 90.5911 71.0081 90.8485 72.4256 91.5385C72.9794 91.8634 73.4851 92.2641 73.9281 92.7289C73.986 92.7601 74.151 92.818 74.209 92.7645C74.5448 92.4559 74.7484 92.0295 74.7775 91.5743C74.8066 91.1191 74.6588 90.6703 74.365 90.3214C74.112 90.0163 73.7995 89.766 73.4466 89.5858C73.432 89.5657 73.4213 89.543 73.4154 89.5189C73.6914 88.8216 74.156 88.2149 74.7573 87.7668C75.1689 87.5028 75.6104 87.2888 76.0725 87.1292C76.1706 87.1025 76.1528 87.04 76.1038 86.9197C75.5331 85.6134 73.2727 85.5643 72.2072 86.2509C71.5563 86.7044 71.0267 87.3106 70.6646 88.0164C70.6423 88.061 70.6111 88.1948 70.5531 88.1546L69.6035 87.8693C69.5857 87.8693 69.5857 87.7623 69.5946 87.7445C69.9093 87.1327 70.3477 86.593 70.8818 86.1594C71.4159 85.7258 72.0342 85.4078 72.6976 85.2255C72.7645 85.1988 72.7422 85.1363 72.7288 85.1007C72.2384 83.9058 69.7818 84.0084 68.5825 84.7708C67.468 85.5099 66.6809 86.6499 66.3846 87.954C66.3712 88.0432 66.4113 88.119 66.3534 88.1323C66.0202 88.2466 65.6768 88.3287 65.328 88.3775C65.3019 88.3754 65.2775 88.3638 65.2595 88.3449C65.2414 88.326 65.2309 88.3011 65.2299 88.275C65.142 87.6755 65.2465 87.0636 65.5286 86.5273C65.9287 85.8606 66.4143 85.2491 66.9731 84.7083C66.9916 84.6895 67.006 84.667 67.0154 84.6424C67.0248 84.6177 67.029 84.5914 67.0277 84.565C67.0265 84.5386 67.0198 84.5128 67.0081 84.4891C66.9964 84.4655 66.9799 84.4445 66.9597 84.4275C66.6407 84.2368 66.2789 84.134 65.9075 84.1198ZM52.5058 89.8978V105.132C52.0689 104.989 51.5517 104.802 50.981 104.61C50.1875 104.343 49.3181 103.937 48.3194 103.509C45.2985 102.245 42.3775 100.755 39.5811 99.0508C37.7953 97.9059 36.087 96.6444 34.4674 95.2746C32.4662 93.6125 30.5804 91.816 28.8231 89.8978H52.4969H52.5058Z" fill="#CFCFCF"/>
</g>
<defs>
<clipPath id="clip0_21_121">
<rect width="107" height="107" fill="white"/>
</clipPath>
</defs>
</svg>
