<svg width="101" height="101" viewBox="0 0 101 101" fill="none" xmlns="http://www.w3.org/2000/svg">
<path d="M56.236 15.4151H41.9192V44.3053C40.1938 45.1302 38.3127 45.854 36.2758 46.4558C35.2008 46.7656 34.1109 47.0212 33.0102 47.2217V16.6987C33.0102 16.6987 33.2627 12.3178 30.826 10.8365V10.2894H53.6941C54.721 11.5393 55.6426 13.2226 56.236 15.4151ZM60.2675 54.9356C70.6411 49.9613 75.6364 41.208 75.729 31.1753C75.7921 24.3494 73.3849 20.1579 70.6916 17.9275C70.5324 17.7963 70.3681 17.6714 70.1992 17.553C69.6502 15.178 68.7839 12.8877 67.6237 10.7439C68.1203 10.8154 68.579 10.8954 68.9872 10.9838C76.5117 12.5829 82.5591 17.0269 85.4208 25.6035C87.7522 32.5978 86.6201 41.2753 81.6164 48.2317C80.4339 49.8772 77.2818 53.3911 73.6627 55.9835C73.0062 56.4548 72.6106 56.7157 71.9204 57.1492C76.4528 64.4128 78.6874 68.5832 81.5785 76.5075C84.1035 83.426 86.0183 92.6254 86.2793 94.7885C86.9105 99.9353 88.4465 100.343 88.8 100.449V101H70.7253V100.453C71.2808 100.158 76.1666 98.1552 76.1919 90.4918C76.2171 84.8653 74.8452 78.6748 72.3455 71.7226C70.8251 67.6373 69.0297 63.6597 66.9714 59.8172L66.9125 59.7289C65.7153 60.2469 64.4902 60.6979 63.2428 61.0798C62.3044 58.9083 61.3491 56.943 60.2675 54.9398V54.9356ZM41.9192 54.3296V59.0261C43.2869 58.9672 47.5584 58.6221 51.4048 57.873C52.2759 59.8425 53.0334 61.711 53.5552 63.1629L53.6268 63.3649C51.9071 63.6384 50.1812 63.8713 48.4505 64.0635C46.278 64.2983 44.1003 64.4821 41.9192 64.6148V94.9568C41.9192 95.626 42.0749 99.1988 44.4021 100.453V101H30.5272V100.453C32.7913 99.262 33.0102 95.626 33.0102 94.961V55.9498C36.0095 55.579 38.9812 55.038 41.9192 54.3296ZM43.8424 5.26042L41.8982 5.23096H23.8276V49.7341C25.6203 49.6541 32.299 49.0944 36.6714 47.7983C51.2533 43.4847 58.2181 33.2921 58.3275 21.3152C58.3906 14.3504 55.9372 10.0705 53.1849 7.79804C51.4721 6.37983 49.2038 5.71071 47.5542 5.46663C46.6283 5.28146 44.5662 5.25621 43.8424 5.25621V5.26042ZM14.7376 86.5107V6.53975C14.7376 6.53975 14.9985 2.0705 12.5072 0.559708V0H43.4216C46.0013 0.00420833 49.3764 0.265125 51.4469 0.715417C59.1229 2.34404 65.2965 6.87642 68.2171 15.6298C70.5948 22.7671 69.4417 31.6214 64.337 38.7209C63.1292 40.4042 59.9182 43.9813 56.2149 46.6325C55.6374 47.048 55.0451 47.4425 54.439 47.8151C59.0682 55.2302 61.3449 59.4848 64.2991 67.5732C66.8746 74.6306 68.8273 84.0236 69.0966 86.2245C69.7321 91.4765 71.306 92.0068 71.6637 92.1162V92.6717H53.2228L53.2186 92.112C53.7909 91.809 58.7736 89.6585 58.7988 81.8353C58.8283 76.0993 57.4269 69.7784 54.8767 62.6873C53.3231 58.5179 51.4883 54.4587 49.3848 50.5379L49.3259 50.4453C46.8766 51.5605 41.7004 53.0713 38.3421 53.7068C35.9392 54.1613 33.5025 54.5358 30.4936 54.8725C27.8718 55.167 25.33 55.3396 23.8276 55.4364V86.5107C23.8276 87.1882 23.9875 90.8369 26.3652 92.1162V92.6717H12.2042V92.1162C14.5145 90.8958 14.7376 87.1925 14.7376 86.5107Z" fill="#CFCFCF"/>
</svg>
