<svg width="32" height="31" viewBox="0 0 32 31" fill="none" xmlns="http://www.w3.org/2000/svg">
<path d="M14.346 2.09052C14.8666 0.488242 17.1334 0.488243 17.654 2.09052L20.0998 9.61795C20.3326 10.3345 21.0004 10.8197 21.7538 10.8197H29.6686C31.3534 10.8197 32.0539 12.9755 30.6909 13.9658L24.2877 18.618C23.6781 19.0608 23.4231 19.8458 23.6559 20.5624L26.1017 28.0898C26.6223 29.6921 24.7884 31.0245 23.4254 30.0342L17.0222 25.382C16.4127 24.9392 15.5873 24.9392 14.9778 25.382L8.57455 30.0342C7.21157 31.0245 5.37769 29.6921 5.89831 28.0898L8.34412 20.5624C8.57694 19.8458 8.32188 19.0608 7.71234 18.618L1.30913 13.9658C-0.0538533 12.9755 0.646626 10.8197 2.33136 10.8197H10.2462C10.9996 10.8197 11.6674 10.3345 11.9002 9.61795L14.346 2.09052Z" fill="#D9D9D9"/>
</svg>
